SplineFontDB: 3.2
FontName: tigger-regular-Italic
FullName: tigger-regular Italic
FamilyName: tigger
Weight: Regular
Copyright: (c) 2025 Tadhg O'Brien
Version: 2025.12
ItalicAngle: -13
UnderlinePosition: -150
UnderlineWidth: 50
Ascent: 800
Descent: 200
InvalidEm: 0
LayerCount: 2
Layer: 0 1 "Back" 1
Layer: 1 1 "Fore" 0
XUID: [1021 796 -163880829 13004990]
StyleMap: 0x0040
FSType: 0
OS2Version: 1
OS2_WeightWidthSlopeOnly: 0
OS2_UseTypoMetrics: 0
CreationTime: 1280473793
ModificationTime: 1736977427
PfmFamily: 17
TTFWeight: 500
TTFWidth: 5
LineGap: 90
VLineGap: 0
Panose: 2 0 6 3 0 0 0 0 0 0
OS2TypoAscent: 800
OS2TypoAOffset: 0
OS2TypoDescent: -200
OS2TypoDOffset: 0
OS2TypoLinegap: 90
OS2WinAscent: 843
OS2WinAOffset: 0
OS2WinDescent: 347
OS2WinDOffset: 0
HheadAscent: 843
HheadAOffset: 0
HheadDescent: -347
HheadDOffset: 0
OS2SubXSize: 650
OS2SubYSize: 700
OS2SubXOff: 0
OS2SubYOff: 140
OS2SupXSize: 650
OS2SupYSize: 700
OS2SupXOff: 0
OS2SupYOff: 480
OS2StrikeYSize: 49
OS2StrikeYPos: 258
OS2Vendor: '2ttf'
OS2CodePages: 00000001.00000000
OS2UnicodeRanges: a00000af.00010042.00000000.00000000
Lookup: 1 0 0 "'rtla' Right to Left Alternates lookup 0" { "'rtla' Right to Left Alternates lookup 0 subtable"  } ['rtla' ('DFLT' <'dflt' > ) ]
Lookup: 258 0 0 "'kern' Horizontal Kerning in Latin lookup 0" { "'kern' Horizontal Kerning in Latin lookup 0 subtable" [150,15,0] } ['kern' ('DFLT' <'dflt' > 'latn' <'dflt' > ) ]
MarkAttachClasses: 1
DEI: 91125
TtTable: prep
PUSHW_1
 511
SCANCTRL
PUSHB_1
 1
SCANTYPE
SVTCA[y-axis]
MPPEM
PUSHB_1
 8
LT
IF
PUSHB_2
 1
 1
INSTCTRL
EIF
PUSHB_2
 70
 6
CALL
IF
POP
PUSHB_1
 16
EIF
MPPEM
PUSHB_1
 20
GT
IF
POP
PUSHB_1
 128
EIF
SCVTCI
PUSHB_1
 6
CALL
NOT
IF
EIF
PUSHB_1
 20
CALL
EndTTInstrs
TtTable: fpgm
PUSHB_1
 0
FDEF
PUSHB_1
 0
SZP0
MPPEM
PUSHB_1
 42
LT
IF
PUSHB_1
 74
SROUND
EIF
PUSHB_1
 0
SWAP
MIAP[rnd]
RTG
PUSHB_1
 6
CALL
IF
RTDG
EIF
MPPEM
PUSHB_1
 42
LT
IF
RDTG
EIF
DUP
MDRP[rp0,rnd,grey]
PUSHB_1
 1
SZP0
MDAP[no-rnd]
RTG
ENDF
PUSHB_1
 1
FDEF
DUP

StartChar: .notdef
Encoding: 65536 -1 0
Width: 500
GlyphClass: 1
Flags: W
LayerCount: 2
Fore
SplineSet
100 50 m 1,0,-1
 400 50 l 1,1,-1
 400 483 l 1,2,-1
 100 483 l 1,3,-1
 100 50 l 1,0,-1
50 0 m 1,4,-1
 50 533 l 1,5,-1
 450 533 l 1,6,-1
 450 0 l 1,7,-1
 50 0 l 1,4,-1
EndSplineSet
EndChar

StartChar: exclam
Encoding: 33 33 4
AltUni2: 00ff01.ffffffff.0 00fe57.ffffffff.0 00fe15.ffffffff.0 002762.ffffffff.0 00ff01.ffffffff.0 00fe57.ffffffff.0 00fe15.ffffffff.0 002762.ffffffff.0
Width: 176
GlyphClass: 1
Flags: W
LayerCount: 2
Fore
SplineSet
93 115 m 0,0,1
 103 115 103 115 108 113 c 0,2,3
 130 102 130 102 144 89 c 0,4,5
 160 69 160 69 159 50 c 0,6,7
 157 12 157 12 119 -2 c 0,8,9
 102 -9 102 -9 87 -6 c 0,10,11
 65 -3 65 -3 53 14 c 0,12,13
 41 32 41 32 44 55 c 0,14,15
 45 73 45 73 58 98 c 0,16,17
 70 120 70 120 93 115 c 0,0,1
165 637 m 0,18,19
 140 383 140 383 140 207 c 0,20,21
 140 194 140 194 130.5 184.5 c 128,-1,22
 121 175 121 175 107 175 c 0,23,24
 94 175 94 175 84.5 184.5 c 128,-1,25
 75 194 75 194 75 207 c 0,26,27
 75 390 75 390 101 644 c 0,28,29
 102 657 102 657 112 666 c 128,-1,30
 122 675 122 675 136 673 c 128,-1,31
 150 671 150 671 158 660.5 c 128,-1,32
 166 650 166 650 165 637 c 0,18,19
EndSplineSet
EndChar

StartChar: quotedbl
Encoding: 34 34 5
AltUni2: 00ff02.ffffffff.0 00201d.ffffffff.0 00201c.ffffffff.0 00030e.ffffffff.0 00030b.ffffffff.0 0002ba.ffffffff.0 00ff02.ffffffff.0 00201d.ffffffff.0 00201c.ffffffff.0 00030e.ffffffff.0 00030b.ffffffff.0 0002ba.ffffffff.0
Width: 292
GlyphClass: 1
Flags: W
LayerCount: 2
Fore
SplineSet
123 747 m 0,0,1
 94 645 94 645 104 542 c 0,2,3
 106 526 106 526 96 513.5 c 128,-1,4
 86 501 86 501 70 500 c 0,5,6
 54 498 54 498 42 508 c 128,-1,7
 30 518 30 518 28 534 c 0,8,9
 16 647 16 647 49 768 c 0,10,11
 53 784 53 784 67 791.5 c 128,-1,12
 81 799 81 799 97 795 c 0,13,14
 112 790 112 790 119.5 776.5 c 128,-1,15
 127 763 127 763 123 747 c 0,0,1
267 751 m 0,16,17
 234 628 234 628 255 533 c 0,18,19
 258 517 258 517 249.5 504 c 128,-1,20
 241 491 241 491 225 487 c 0,21,22
 209 484 209 484 196 493 c 128,-1,23
 183 502 183 502 180 517 c 0,24,25
 156 629 156 629 192 770 c 0,26,27
 196 786 196 786 209.5 794 c 128,-1,28
 223 802 223 802 239 798 c 0,29,30
 254 793 254 793 262.5 780 c 128,-1,31
 271 767 271 767 267 751 c 0,16,17
EndSplineSet
EndChar

StartChar: numbersign
Encoding: 35 35 6
AltUni2: 00ff03.ffffffff.0 00fe5f.ffffffff.0 00ff03.ffffffff.0 00fe5f.ffffffff.0
Width: 731
GlyphClass: 1
Flags: W
LayerCount: 2
Fore
SplineSet
459 420 m 1,0,1
 362 414 362 414 329 413 c 0,2,3
 320 412 320 412 303 412 c 1,4,5
 303 406 303 406 302.5 400 c 128,-1,6
 302 394 302 394 301 387 c 128,-1,7
 300 380 300 380 300 376 c 0,8,9
 295 326 295 326 295 266 c 1,10,-1
 297 266 l 2,11,12
 357 266 357 266 463 270 c 1,13,14
 461 305 461 305 459 374 c 2,15,-1
 459 420 l 1,0,1
47 264 m 0,16,17
 85 265 85 265 178 265 c 2,18,-1
 230 265 l 1,19,20
 230 328 230 328 235 382 c 2,21,-1
 238 409 l 1,22,23
 152 407 152 407 55 406 c 0,24,25
 42 405 42 405 32.5 414.5 c 128,-1,26
 23 424 23 424 22 438 c 0,27,28
 22 451 22 451 31 460.5 c 128,-1,29
 40 470 40 470 54 471 c 0,30,31
 185 472 185 472 245 475 c 1,32,33
 246 483 246 483 248 501 c 0,34,35
 258 586 258 586 260 607 c 0,36,37
 266 661 266 661 266 696 c 0,38,39
 266 710 266 710 275 719 c 128,-1,40
 284 728 284 728 298 728 c 128,-1,41
 312 728 312 728 321.5 718.5 c 128,-1,42
 331 709 331 709 331 696 c 0,43,44
 331 657 331 657 325 600 c 0,45,46
 324 594 324 594 322.5 576.5 c 128,-1,47
 321 559 321 559 319 548 c 0,48,49
 317 532 317 532 316 521 c 0,50,51
 316 517 316 517 312 493 c 0,52,53
 312 491 312 491 311.5 485.5 c 128,-1,54
 311 480 311 480 311 477 c 1,55,56
 321 477 321 477 327 478 c 0,57,58
 358 479 358 479 460 485 c 1,59,60
 461 495 461 495 461.5 517 c 128,-1,61
 462 539 462 539 462 550 c 0,62,63
 465 676 465 676 464 697 c 0,64,65
 464 711 464 711 473.5 720.5 c 128,-1,66
 483 730 483 730 496 730 c 0,67,68
 510 731 510 731 519.5 721.5 c 128,-1,69
 529 712 529 712 529 699 c 0,70,71
 530 677 530 677 527 548 c 0,72,73
 527 538 527 538 526.5 518 c 128,-1,74
 526 498 526 498 525 489 c 1,75,76
 590 493 590 493 680 501 c 0,77,78
 693 502 693 502 703 493.5 c 128,-1,79
 713 485 713 485 715 471 c 0,80,81
 716 457 716 457 707 447 c 128,-1,82
 698 437 698 437 685 436 c 0,83,84
 592 428 592 428 524 424 c 1,85,-1
 524 374 l 2,86,87
 526 306 526 306 528 273 c 1,88,89
 630 281 630 281 685 287 c 0,90,91
 699 289 699 289 709 280 c 128,-1,92
 719 271 719 271 720 258 c 128,-1,93
 721 245 721 245 713 234.5 c 128,-1,94
 705 224 705 224 692 222 c 0,95,96
 618 214 618 214 533 209 c 1,97,98
 534 203 534 203 535.5 192 c 128,-1,99
 537 181 537 181 538 175 c 0,100,101
 553 81 553 81 583 41 c 0,102,103
 591 31 591 31 589 17.5 c 128,-1,104
 587 4 587 4 576 -4 c 128,-1,105
 565 -12 565 -12 552 -10.5 c 128,-1,106
 539 -9 539 -9 531 2 c 0,107,108
 491 55 491 55 474 165 c 0,109,110
 470 191 470 191 468 205 c 1,111,112
 360 201 360 201 298 201 c 1,113,114
 298 198 298 198 298.5 193.5 c 128,-1,115
 299 189 299 189 299 187 c 0,116,117
 311 96 311 96 351 46 c 0,118,119
 359 36 359 36 357.5 22 c 128,-1,120
 356 8 356 8 346 0 c 128,-1,121
 336 -8 336 -8 322 -6.5 c 128,-1,122
 308 -5 308 -5 300 5 c 0,123,124
 249 69 249 69 235 179 c 0,125,126
 233 193 233 193 233 200 c 1,127,-1
 178 200 l 2,128,129
 86 200 86 200 48 199 c 0,130,131
 35 199 35 199 25 208.5 c 128,-1,132
 15 218 15 218 15 231 c 0,133,134
 15 245 15 245 24.5 254.5 c 128,-1,135
 34 264 34 264 47 264 c 0,16,17
EndSplineSet
EndChar

StartChar: dollar
Encoding: 36 36 7
AltUni2: 00ff04.ffffffff.0 00fe69.ffffffff.0 00ff04.ffffffff.0 00fe69.ffffffff.0
Width: 535
GlyphClass: 1
Flags: W
LayerCount: 2
Fore
SplineSet
334 105 m 2,0,-1
 315 97 l 1,1,-1
 315 224 l 2,2,3
 316 238 316 238 316 274 c 2,4,-1
 316 350 l 1,5,-1
 330 349 l 2,6,7
 378 346 378 346 402 333 c 0,8,9
 422 323 422 323 435 304 c 0,10,11
 450 278 450 278 450 241 c 0,12,13
 450 188 450 188 386 140 c 0,14,15
 361 118 361 118 334 105 c 2,0,-1
131 431 m 2,16,17
 130 442 130 442 130 447 c 0,18,19
 130 473 130 473 150 500 c 1,20,-1
 151 501 l 1,21,22
 176 532 176 532 224 558 c 0,23,24
 231 563 231 563 238 565 c 2,25,-1
 255 568 l 1,26,27
 252 500 252 500 252 497 c 2,28,-1
 252 496 l 2,29,30
 251 489 251 489 251 467 c 128,-1,31
 251 445 251 445 249 422 c 1,32,33
 212 420 212 420 191 420 c 0,34,35
 173 420 173 420 159 422 c 0,36,37
 144 423 144 423 141 425 c 2,38,-1
 132 425 l 1,39,-1
 131 430 l 1,40,-1
 131 431 l 2,16,17
319 525.5 m 128,-1,42
 321 558 321 558 322 593 c 1,43,44
 353 598 353 598 369 598 c 128,-1,45
 385 598 385 598 397 595 c 0,46,47
 401 593 401 593 405 593 c 0,48,49
 415 593 415 593 425 599 c 0,50,51
 437 606 437 606 440 621 c 0,52,53
 442 626 442 626 442 633.5 c 128,-1,54
 442 641 442 641 436 651 c 0,55,56
 429 663 429 663 413 666 c 0,57,58
 393 672 393 672 364 672 c 0,59,60
 352 672 352 672 326 670 c 1,61,62
 326 714 326 714 326 735 c 128,-1,63
 326 756 326 756 326 771 c 0,64,65
 325 786 325 786 315 795.5 c 128,-1,66
 305 805 305 805 292 805 c 0,67,68
 277 805 277 805 268.5 793.5 c 128,-1,69
 260 782 260 782 260 769 c 0,70,71
 260 768 260 768 260.5 759.5 c 128,-1,72
 261 751 261 751 261 727 c 128,-1,73
 261 703 261 703 259 653 c 1,74,75
 222 639 222 639 196 626 c 0,76,77
 130 594 130 594 93 547 c 1,78,-1
 92 546 l 1,79,80
 55 502 55 502 55 449 c 0,81,82
 55 435 55 435 58 420 c 0,83,84
 65 387 65 387 92 368 c 0,85,86
 111 354 111 354 144 349 c 0,87,88
 165 345 165 345 196 345 c 0,89,90
 199 345 199 345 250 348 c 1,91,-1
 250 223 l 2,92,93
 250 136 250 136 248 84 c 1,94,95
 233 84 233 84 230 84 c 0,96,97
 179 84 179 84 91 101 c 0,98,99
 87 102 87 102 84 102 c 0,100,101
 73 102 73 102 64 96 c 0,102,103
 51 87 51 87 48 72 c 0,104,105
 47 67 47 67 47 65 c 0,106,107
 47 54 47 54 53 44 c 0,108,109
 62 32 62 32 77 29 c 0,110,111
 175 9 175 9 232 9 c 2,112,-1
 246 9 l 1,113,114
 242 -80 242 -80 236 -140 c 0,115,116
 236 -143 236 -143 236 -144 c 0,117,118
 236 -156 236 -156 244 -167 c 0,119,120
 253 -181 253 -181 270 -181 c 0,121,122
 281 -181 281 -181 290.5 -172 c 128,-1,123
 300 -163 300 -163 301 -147 c 0,124,125
 309 -74 309 -74 312 19 c 1,126,-1
 321 21 l 1,127,128
 379 40 379 40 429 80 c 0,129,130
 473 113 473 113 496 152 c 1,131,-1
 496 152 l 1,132,133
 524 194 524 194 524 240 c 0,134,135
 524 244 524 244 524 248 c 1,136,-1
 524 248 l 1,137,138
 520 357 520 357 433 400 c 0,139,140
 402 415 402 415 361 421 c 0,141,142
 337 423 337 423 330 423 c 2,143,-1
 317 423 l 1,144,-1
 317 438 l 2,145,41
 317 493 317 493 319 525.5 c 128,-1,42
EndSplineSet
EndChar

StartChar: percent
Encoding: 37 37 8
AltUni2: 00ff05.ffffffff.0 00fe6a.ffffffff.0 00066a.ffffffff.0 00ff05.ffffffff.0 00fe6a.ffffffff.0 00066a.ffffffff.0
Width: 671
GlyphClass: 1
Flags: W
LayerCount: 2
Fore
SplineSet
530 59 m 0,0,1
 518 29 518 29 495 23 c 0,2,3
 484 21 484 21 476.5 21 c 128,-1,4
 469 21 469 21 462.5 23 c 128,-1,5
 456 25 456 25 447 32 c 0,6,7
 436 46 436 46 436 81 c 0,8,9
 436 107 436 107 450.5 134 c 128,-1,10
 465 161 465 161 489 173 c 2,11,-1
 494 175 l 1,12,13
 503 172 503 172 507.5 172 c 128,-1,14
 512 172 512 172 530 175 c 1,15,-1
 533 162 l 2,16,17
 539 139 539 139 539 113 c 0,18,19
 539 83 539 83 530 59 c 0,0,1
490 240 m 1,20,21
 478 243 478 243 472 243 c 256,22,23
 466 243 466 243 460 239 c 0,24,25
 418 218 418 218 393 172.5 c 128,-1,26
 368 127 368 127 368 80 c 0,27,28
 368 79 368 79 368 77 c 1,29,-1
 368 77 l 1,30,31
 368 13 368 13 403 -23 c 0,32,33
 433 -53 433 -53 476 -53 c 0,34,35
 489 -53 489 -53 506 -50 c 0,36,37
 568 -40 568 -40 596 29 c 0,38,39
 613 69 613 69 613 117 c 0,40,41
 613 128 613 128 612 141 c 0,42,43
 607 196 607 196 578 231 c 0,44,45
 558 256 558 256 529 256 c 0,46,47
 511 256 511 256 495 244 c 2,48,-1
 490 240 l 1,20,21
219 542 m 0,49,50
 219 513 219 513 211 494 c 0,51,52
 200 469 200 469 175 464 c 0,53,54
 157 461 157 461 141 463 c 0,55,56
 129 468 129 468 125 472 c 0,57,58
 113 481 113 481 113 504 c 0,59,60
 113 505 113 505 113 507 c 0,61,62
 113 536 113 536 129 567 c 0,63,64
 144 598 144 598 169 612 c 1,65,66
 171 631 171 631 174 615 c 1,67,68
 183 613 183 613 187.5 613 c 128,-1,69
 192 613 192 613 210 616 c 1,70,71
 217 577 217 577 218 561 c 1,72,73
 218 563 218 563 218 561 c 1,74,75
 219 551 219 551 219 542 c 0,49,50
170 681 m 1,76,77
 159 685 159 685 153 685 c 256,78,79
 147 685 147 685 138 679 c 0,80,81
 94 656 94 656 66 607 c 0,82,83
 39 557 39 557 39 506 c 0,84,85
 39 505 39 505 39 503 c 1,86,-1
 39 503 l 1,87,88
 39 446 39 446 77 415 c 0,89,90
 109 388 109 388 156 388 c 0,91,92
 240 388 240 388 272 461 c 0,93,94
 288 500 288 500 288 543 c 0,95,96
 288 556 288 556 287 568 c 0,97,98
 282 629 282 629 256 666 c 0,99,100
 236 698 236 698 208 698 c 0,101,102
 192 698 192 698 175 683 c 1,103,104
 173 688 173 688 170 681 c 1,76,77
108 -27 m 0,105,106
 106 -31 106 -31 106 -36 c 0,107,108
 106 -46 106 -46 111 -58 c 0,109,110
 118 -77 118 -77 133 -84 c 0,111,112
 140 -86 140 -86 146 -86 c 128,-1,113
 152 -86 152 -86 161 -80 c 0,114,115
 173 -70 173 -70 177 -50 c 0,116,117
 223 101 223 101 370 314 c 0,118,119
 509 516 509 516 646 637 c 1,120,121
 660 644 660 644 660 656 c 0,122,123
 660 673 660 673 651 687 c 0,124,125
 641 706 641 706 623 706 c 0,126,127
 610 706 610 706 600 694 c 0,128,129
 462 571 462 571 316 359 c 0,130,131
 160 135 160 135 108 -27 c 0,105,106
EndSplineSet
EndChar

StartChar: ampersand
Encoding: 38 38 9
AltUni2: 00ff06.ffffffff.0 00fe60.ffffffff.0 00ff06.ffffffff.0 00fe60.ffffffff.0
Width: 650
GlyphClass: 1
Flags: W
LayerCount: 2
Fore
SplineSet
356 738 m 0,0,1
 311 731 311 731 254.5 678.5 c 128,-1,2
 198 626 198 626 168 566 c 0,3,4
 154 536 154 536 150 517 c 128,-1,5
 146 498 146 498 146 457 c 128,-1,6
 146 416 146 416 157 367 c 128,-1,7
 168 318 168 318 176 303 c 128,-1,8
 184 288 184 288 184 281 c 2,9,-1
 154 228 l 1,10,11
 64 101 64 101 64 18 c 0,12,13
 64 -12 64 -12 67.5 -19.5 c 128,-1,14
 71 -27 71 -27 94 -42 c 0,15,16
 161 -87 161 -87 262.5 -75.5 c 128,-1,17
 364 -64 364 -64 438 -4 c 1,18,-1
 468 18 l 1,19,-1
 498 -4 l 1,20,21
 528 -34 528 -34 558 -34 c 2,22,-1
 588 -34 l 1,23,-1
 588 33 l 1,24,25
 581 41 581 41 569.5 41 c 128,-1,26
 558 41 558 41 544 56 c 2,27,-1
 528 71 l 1,28,-1
 558 108 l 1,29,-1
 506 161 l 1,30,-1
 491 146 l 1,31,32
 468 131 468 131 464.5 131 c 128,-1,33
 461 131 461 131 397.5 187 c 128,-1,34
 334 243 334 243 311 266 c 2,35,-1
 288 288 l 1,36,-1
 304 318 l 1,37,38
 386 423 386 423 431 509.5 c 128,-1,39
 476 596 476 596 476 641 c 128,-1,40
 476 686 476 686 468.5 704.5 c 128,-1,41
 461 723 461 723 438.5 734.5 c 128,-1,42
 416 746 416 746 401 746 c 128,-1,43
 386 746 386 746 356 738 c 0,0,1
341 641 m 0,44,45
 378 663 378 663 389.5 663 c 128,-1,46
 401 663 401 663 394 633 c 0,47,48
 378 566 378 566 304 453 c 2,49,-1
 258 386 l 2,50,51
 244 371 244 371 240 371 c 128,-1,52
 236 371 236 371 228 393 c 0,53,54
 206 476 206 476 243.5 539.5 c 128,-1,55
 281 603 281 603 341 641 c 0,44,45
214 176 m 2,56,-1
 244 221 l 1,57,-1
 348 123 l 1,58,-1
 408 71 l 1,59,60
 416 71 416 71 390 52 c 128,-1,61
 364 33 364 33 330 18 c 128,-1,62
 296 3 296 3 247 3 c 128,-1,63
 198 3 198 3 168 10.5 c 128,-1,64
 138 18 138 18 138 29.5 c 128,-1,65
 138 41 138 41 161 89.5 c 128,-1,66
 184 138 184 138 214 176 c 2,56,-1
EndSplineSet
EndChar

StartChar: quotesingle
Encoding: 39 39 10
AltUni2: 00ff07.ffffffff.0 002032.ffffffff.0 002019.ffffffff.0 000374.ffffffff.0 0002c8.ffffffff.0 0002bc.ffffffff.0 0002b9.ffffffff.0 00ff07.ffffffff.0 002032.ffffffff.0 002019.ffffffff.0 000374.ffffffff.0 0002c8.ffffffff.0 0002bc.ffffffff.0 0002b9.ffffffff.0
Width: 166
GlyphClass: 1
Flags: W
LayerCount: 2
Fore
SplineSet
100 784 m 128,-1,1
 83 784 83 784 71.5 772.5 c 128,-1,2
 60 761 60 761 60 744 c 0,3,4
 60 693 60 693 61 659 c 1,5,-1
 62 659 l 1,6,7
 62 654 62 654 62 631 c 0,8,9
 63 575 63 575 64 520 c 0,10,11
 64 503 64 503 75 491.5 c 128,-1,12
 86 480 86 480 103 480 c 128,-1,13
 120 480 120 480 131 491.5 c 128,-1,14
 142 503 142 503 142 520 c 0,15,16
 142 577 142 577 142 632 c 0,17,18
 140 661 140 661 140 744 c 0,19,20
 140 761 140 761 128.5 772.5 c 128,-1,0
 117 784 117 784 100 784 c 128,-1,1
EndSplineSet
EndChar

StartChar: parenleft
Encoding: 40 40 11
AltUni2: 00ff08.ffffffff.0 00fe59.ffffffff.0 00fe35.ffffffff.0 00208d.ffffffff.0 00207d.ffffffff.0 00ff08.ffffffff.0 00fe59.ffffffff.0 00fe35.ffffffff.0 00208d.ffffffff.0 00207d.ffffffff.0
Width: 360
GlyphClass: 1
Flags: W
LayerCount: 2
Fore
SplineSet
336 708 m 0,0,1
 340 717 340 717 340 725 c 128,-1,2
 340 733 340 733 337 740 c 0,3,4
 330 756 330 756 314 763 c 0,5,6
 305 766 305 766 297 766 c 128,-1,7
 289 766 289 766 282 764 c 0,8,9
 196 729 196 729 143 616 c 0,10,11
 102 528 102 528 83 395 c 0,12,13
 70 304 70 304 70 211 c 0,14,15
 70 75 70 75 92 3 c 0,16,17
 131 -134 131 -134 246 -222 c 0,18,19
 257 -231 257 -231 271 -231 c 0,20,21
 292 -231 292 -231 305 -214 c 0,22,23
 314 -203 314 -203 314 -190 c 0,24,25
 314 -169 314 -169 297 -156 c 0,26,27
 204 -84 204 -84 172 26 c 0,28,29
 158 71 158 71 155 171 c 0,30,31
 154 189 154 189 154 208 c 0,32,33
 154 295 154 295 166 383 c 1,34,-1
 166 383 l 1,35,36
 183 504 183 504 221 584 c 128,-1,37
 259 664 259 664 312 685 c 0,38,39
 329 692 329 692 336 708 c 0,0,1
EndSplineSet
Substitution2: "'rtla' Right to Left Alternates lookup 0 subtable" parenright
EndChar

StartChar: parenright
Encoding: 41 41 12
AltUni2: 00ff09.ffffffff.0 00fe5a.ffffffff.0 00fe36.ffffffff.0 00208e.ffffffff.0 00207e.ffffffff.0 00ff09.ffffffff.0 00fe5a.ffffffff.0 00fe36.ffffffff.0 00208e.ffffffff.0 00207e.ffffffff.0
Width: 323
GlyphClass: 1
Flags: W
LayerCount: 2
Fore
SplineSet
106 768 m 0,0,1
 94 768 94 768 83 761 c 0,2,3
 64 748 64 748 64 725 c 0,4,5
 64 713 64 713 71 703 c 0,6,7
 129 617 129 617 158 558 c 0,8,9
 196 481 196 481 211 406 c 0,10,11
 219 368 219 368 219 312 c 0,12,13
 219 198 219 198 198 100 c 0,14,15
 156 -119 156 -119 55 -196 c 0,16,17
 38 -209 38 -209 38 -230 c 0,18,19
 38 -244 38 -244 48 -256 c 0,20,21
 60 -272 60 -272 82 -272 c 0,22,23
 95 -272 95 -272 106 -263 c 0,24,25
 175 -210 175 -210 220 -111 c 0,26,27
 258 -28 258 -28 280 84 c 0,28,29
 302 197 302 197 302 311 c 0,30,31
 302 378 302 378 293 423 c 0,32,33
 275 511 275 511 233 597 c 0,34,35
 197 667 197 667 141 749 c 0,36,37
 128 768 128 768 106 768 c 0,0,1
EndSplineSet
Substitution2: "'rtla' Right to Left Alternates lookup 0 subtable" parenleft
EndChar

StartChar: asterisk
Encoding: 42 42 13
AltUni2: 00ff0a.ffffffff.0 00fe61.ffffffff.0 002731.ffffffff.0 002217.ffffffff.0 00ff0a.ffffffff.0 00fe61.ffffffff.0 002731.ffffffff.0 002217.ffffffff.0
Width: 503
GlyphClass: 1
Flags: W
LayerCount: 2
Fore
SplineSet
374 342 m 0,0,1
 384 337 384 337 392 337 c 128,-1,2
 400 337 400 337 407 339 c 0,3,4
 423 345 423 345 431 362 c 0,5,6
 436 371 436 371 436 378.5 c 128,-1,7
 436 386 436 386 434 393 c 0,8,9
 428 409 428 409 412 417 c 0,10,11
 387 430 387 430 345 469 c 2,12,-1
 324 488 l 1,13,-1
 353 486 l 2,14,15
 398 483 398 483 422 470 c 0,16,17
 438 462 438 462 454 467.5 c 128,-1,18
 470 473 470 473 478 490 c 0,19,20
 483 499 483 499 483 506.5 c 128,-1,21
 483 514 483 514 481 521 c 0,22,23
 475 537 475 537 459 545 c 0,24,25
 424 562 424 562 371 569 c 2,26,-1
 351 572 l 1,27,28
 368 590 368 590 386 610 c 128,-1,29
 404 630 404 630 408 634 c 0,30,31
 418 645 418 645 418 660 c 0,32,33
 418 680 418 680 404 692 c 0,34,35
 390 703 390 703 375 703 c 0,36,37
 356 703 356 703 344 689 c 0,38,39
 341 686 341 686 327 670 c 128,-1,40
 313 654 313 654 308 649 c 0,41,42
 275 610 275 610 268 602 c 0,43,44
 264 598 264 598 258 591 c 128,-1,45
 252 584 252 584 243 575 c 1,46,47
 184 644 184 644 159 684 c 0,48,49
 151 698 151 698 134 702 c 0,50,51
 129 703 129 703 124 703 c 0,52,53
 113 703 113 703 102 696 c 0,54,55
 82 685 82 685 82 661 c 0,56,57
 82 650 82 650 89 639 c 0,58,59
 99 622 99 622 153 550 c 1,60,61
 107 547 107 547 98 547 c 0,62,63
 80 546 80 546 68.5 534 c 128,-1,64
 57 522 57 522 57 507 c 0,65,66
 57 506 57 506 57 504 c 1,67,-1
 57 504 l 1,68,69
 57 486 57 486 69 474.5 c 128,-1,70
 81 463 81 463 97 463 c 0,71,72
 98 463 98 463 100 463 c 1,73,-1
 100 463 l 1,74,75
 110 463 110 463 160 467 c 1,76,77
 135 434 135 434 115 408 c 0,78,79
 106 397 106 397 106 383 c 0,80,81
 106 362 106 362 123 349 c 0,82,83
 134 341 134 341 147 341 c 0,84,85
 169 341 169 341 181.5 357.5 c 128,-1,86
 194 374 194 374 214 400 c 128,-1,87
 234 426 234 426 248 446 c 1,88,-1
 256 437 l 1,89,90
 326 366 326 366 374 342 c 0,0,1
EndSplineSet
EndChar

StartChar: plus
Encoding: 43 43 14
AltUni2: 00ff0b.ffffffff.0 00fe62.ffffffff.0 00fb29.ffffffff.0 00208a.ffffffff.0 00207a.ffffffff.0 00ff0b.ffffffff.0 00fe62.ffffffff.0 00fb29.ffffffff.0 00208a.ffffffff.0 00207a.ffffffff.0
Width: 638
GlyphClass: 1
Flags: W
LayerCount: 2
Fore
SplineSet
178 309 m 1,0,1
 156 308 156 308 133.5 308 c 128,-1,2
 111 308 111 308 100 309 c 128,-1,3
 89 310 89 310 88 310 c 0,4,5
 75 310 75 310 64 301 c 0,6,7
 51 291 51 291 51 273 c 0,8,9
 51 260 51 260 60 248.5 c 128,-1,10
 69 237 69 237 84 236 c 0,11,12
 108 234 108 234 133 234 c 128,-1,13
 158 234 158 234 182 235 c 0,14,15
 223 238 223 238 294 246 c 1,16,-1
 294 229 l 2,17,18
 294 204 294 204 297 178 c 1,19,-1
 297 178 l 1,20,21
 306 91 306 91 332 25 c 0,22,23
 338 10 338 10 352 4 c 0,24,25
 359 1 359 1 366 1 c 128,-1,26
 373 1 373 1 380 4 c 0,27,28
 394 10 394 10 400 24 c 0,29,30
 403 32 403 32 403 39 c 128,-1,31
 403 46 403 46 401 53 c 0,32,33
 377 109 377 109 371 185 c 0,34,35
 369 204 369 204 366 253 c 1,36,37
 402 256 402 256 439 256 c 2,38,-1
 440 256 l 2,39,40
 514 253 514 253 555 226 c 0,41,42
 565 219 565 219 575 219 c 0,43,44
 595 219 595 219 607 236 c 0,45,46
 613 246 613 246 613 256 c 0,47,48
 613 276 613 276 596 288 c 0,49,50
 538 325 538 325 443 330 c 0,51,52
 404 330 404 330 367 328 c 1,53,54
 368 376 368 376 368 401 c 128,-1,55
 368 426 368 426 367 445 c 1,56,-1
 367 445 l 1,57,58
 366 501 366 501 358 547 c 0,59,60
 355 563 355 563 344 571.5 c 128,-1,61
 333 580 333 580 321 580 c 0,62,63
 303 580 303 580 292 564 c 0,64,65
 284 554 284 554 284 542 c 0,66,67
 284 539 284 539 285 536 c 0,68,69
 292 488 292 488 293 442 c 0,70,71
 294 425 294 425 294 400 c 128,-1,72
 294 375 294 375 293 343 c 2,73,-1
 293 334 l 1,74,-1
 293 319 l 1,75,-1
 281 319 l 1,76,-1
 280 318 l 1,77,-1
 274 318 l 1,78,-1
 273 318 l 1,79,80
 220 312 220 312 178 309 c 1,81,-1
 178 309 l 1,0,1
EndSplineSet
EndChar

StartChar: comma
Encoding: 44 44 15
AltUni2: 00ff0c.ffffffff.0 00fe50.ffffffff.0 00fe11.ffffffff.0 00fe10.ffffffff.0 003001.ffffffff.0 00066c.ffffffff.0 00ff0c.ffffffff.0 00fe50.ffffffff.0 00fe11.ffffffff.0 00fe10.ffffffff.0 003001.ffffffff.0 00066c.ffffffff.0
Width: 230
GlyphClass: 1
Flags: W
LayerCount: 2
Fore
SplineSet
116 -54 m 0,0,1
 99 -75 99 -75 78 -96 c 0,2,3
 66 -108 66 -108 66 -126 c 0,4,5
 66 -142 66 -142 78 -155 c 128,-1,6
 90 -168 90 -168 108 -168 c 0,7,8
 124 -168 124 -168 137 -155 c 0,9,10
 167 -125 167 -125 185 -101 c 0,11,12
 210 -67 210 -67 210 -28 c 0,13,14
 210 -1 210 -1 195 28 c 128,-1,15
 180 57 180 57 145 95 c 0,16,17
 132 109 132 109 115 109 c 256,18,19
 98 109 98 109 86 98 c 0,20,21
 72 86 72 86 72 68.5 c 128,-1,22
 72 51 72 51 82 39 c 0,23,24
 112 6 112 6 119 -8 c 128,-1,25
 126 -22 126 -22 126 -30 c 128,-1,26
 126 -38 126 -38 116 -54 c 0,0,1
EndSplineSet
EndChar

StartChar: hyphen
Encoding: 45 45 16
AltUni2: 00ff0d.ffffffff.0 00fe63.ffffffff.0 00fe32.ffffffff.0 002500.ffffffff.0 002212.ffffffff.0 00207b.ffffffff.0 002015.ffffffff.0 002014.ffffffff.0 002013.ffffffff.0 002012.ffffffff.0 002011.ffffffff.0 002010.ffffffff.0 00ff0d.ffffffff.0 00fe63.ffffffff.0 00fe32.ffffffff.0 002500.ffffffff.0 002212.ffffffff.0 00207b.ffffffff.0 002015.ffffffff.0 002014.ffffffff.0 002013.ffffffff.0 002012.ffffffff.0 002011.ffffffff.0 002010.ffffffff.0
Width: 382
GlyphClass: 1
Flags: W
LayerCount: 2
Fore
SplineSet
91 332 m 0,0,1
 114 324 114 324 143 323 c 0,2,3
 157 322 157 322 198 322 c 0,4,5
 236 322 236 322 251 321 c 0,6,7
 289 317 289 317 307 312 c 0,8,9
 322 309 322 309 330 291.5 c 128,-1,10
 338 274 338 274 336 252 c 0,11,12
 333 231 333 231 321.5 218.5 c 128,-1,13
 310 206 310 206 296 210 c 0,14,15
 267 216 267 216 248 217 c 0,16,17
 235 218 235 218 198 218 c 0,18,19
 156 218 156 218 140 219 c 0,20,21
 105 222 105 222 78 229 c 0,22,23
 64 233 64 233 56 251 c 128,-1,24
 48 269 48 269 50.5 290 c 128,-1,25
 53 311 53 311 65 323.5 c 128,-1,26
 77 336 77 336 91 332 c 0,0,1
EndSplineSet
EndChar

StartChar: period
Encoding: 46 46 17
AltUni2: 00ff0e.ffffffff.0 00fe52.ffffffff.0 002024.ffffffff.0 00ff0e.ffffffff.0 00fe52.ffffffff.0 002024.ffffffff.0
Width: 198
GlyphClass: 1
Flags: W
LayerCount: 2
Fore
SplineSet
147 -1 m 0,0,1
 177 12 177 12 177 51 c 0,2,3
 177 59 177 59 174 70 c 0,4,5
 172 80 172 80 165 94 c 0,6,7
 152 120 152 120 134 132 c 0,8,9
 123 140 123 140 105.5 140 c 128,-1,10
 88 140 88 140 74 126 c 0,11,12
 64 115 64 115 62 100 c 0,13,14
 61 94 61 94 61 83 c 0,15,16
 62 73 62 73 68 46 c 0,17,18
 71 37 71 37 71 33 c 0,19,20
 71 32 71 32 74 26 c 0,21,22
 80 2 80 2 104 -4 c 0,23,24
 117 -7 117 -7 122 -7 c 0,25,26
 136 -7 136 -7 147 -1 c 0,0,1
EndSplineSet
EndChar

StartChar: slash
Encoding: 47 47 18
AltUni2: 00ff0f.ffffffff.0 002215.ffffffff.0 00ff0f.ffffffff.0 002215.ffffffff.0
Width: 452
GlyphClass: 1
Flags: W
LayerCount: 2
Fore
SplineSet
80 -134 m 0,0,1
 93 -134 93 -134 104.5 -125 c 128,-1,2
 116 -116 116 -116 117 -102 c 2,3,-1
 117 -101 l 1,4,5
 139 100 139 100 218.5 308.5 c 128,-1,6
 298 517 298 517 420 699 c 0,7,8
 426 709 426 709 426 720 c 0,9,10
 426 740 426 740 410 751 c 0,11,12
 400 757 400 757 389 757 c 0,13,14
 369 757 369 757 358 741 c 0,15,16
 231 550 231 550 149 333.5 c 128,-1,17
 67 117 67 117 44 -92 c 0,18,19
 44 -95 44 -95 44 -97 c 0,20,21
 44 -110 44 -110 52 -121 c 0,22,23
 62 -134 62 -134 80 -134 c 0,0,1
EndSplineSet
EndChar

StartChar: zero
Encoding: 48 48 19
AltUni2: 00ff10.ffffffff.0 002080.ffffffff.0 002070.ffffffff.0 00ff10.ffffffff.0 002080.ffffffff.0 002070.ffffffff.0
Width: 471
GlyphClass: 1
Flags: W
LayerCount: 2
Fore
SplineSet
180 619 m 1,0,1
 153 569 153 569 130 479 c 0,2,3
 101 366 101 366 101 275 c 0,4,5
 99 168 99 168 139 112 c 0,6,7
 181 53 181 53 278 63 c 0,8,9
 339 69 339 69 373 169 c 0,10,11
 407 273 407 273 391 401 c 0,12,13
 375 533 375 533 321 598 c 0,14,15
 269 661 269 661 192 622 c 0,16,17
 186 619 186 619 180 619 c 1,0,1
151 671 m 1,18,19
 155 677 155 677 162 680 c 0,20,21
 285 742 285 742 371 640 c 0,22,23
 439 558 439 558 456 409 c 0,24,25
 472 262 472 262 434 149 c 0,26,27
 414 86 414 86 380 49 c 0,28,29
 340 4 340 4 285 -2 c 0,30,31
 151 -16 151 -16 86 74 c 0,32,33
 34 148 34 148 36 276 c 0,34,35
 36 374 36 374 67 496 c 0,36,37
 94 599 94 599 126 655 c 0,38,39
 136 669 136 669 151 671 c 1,18,19
EndSplineSet
EndChar

StartChar: one
Encoding: 49 49 20
AltUni2: 00ff11.ffffffff.0 002081.ffffffff.0 0000b9.ffffffff.0 00ff11.ffffffff.0 002081.ffffffff.0 0000b9.ffffffff.0
Width: 307
GlyphClass: 1
Flags: W
LayerCount: 2
Fore
SplineSet
131 602 m 0,0,1
 154 633 154 633 184 669 c 0,2,3
 216 704 216 704 220 707 c 0,4,5
 222 709 222 709 237 721 c 0,6,7
 240 723 240 723 248 727 c 0,8,9
 257 731 257 731 267 730 c 0,10,11
 282 729 282 729 291 717 c 128,-1,12
 300 705 300 705 296 691 c 1,13,-1
 296 690 l 1,14,-1
 296 689 l 2,15,16
 296 688 296 688 295 686 c 128,-1,17
 294 684 294 684 294 683 c 0,18,19
 294 680 294 680 289 662 c 0,20,21
 283 633 283 633 275 599 c 0,22,23
 275 598 275 598 274 596 c 0,24,25
 261 540 261 540 254 514 c 0,26,27
 198 308 198 308 198 31 c 1,28,29
 201 32 201 32 206.5 33.5 c 128,-1,30
 212 35 212 35 215 36 c 0,31,32
 228 40 228 40 239.5 34 c 128,-1,33
 251 28 251 28 255 15 c 128,-1,34
 259 2 259 2 253 -10 c 128,-1,35
 247 -22 247 -22 234 -26 c 0,36,37
 221 -31 221 -31 197 -36 c 0,38,39
 194 -36 194 -36 193 -37 c 0,40,41
 157 -45 157 -45 120 -66 c 0,42,43
 108 -73 108 -73 95 -69.5 c 128,-1,44
 82 -66 82 -66 75 -55 c 0,45,46
 68 -43 68 -43 71.5 -30 c 128,-1,47
 75 -17 75 -17 87 -10 c 0,48,49
 120 9 120 9 134 14 c 0,50,51
 133 17 133 17 133 24 c 0,52,53
 133 312 133 312 192 531 c 0,54,55
 193 536 193 536 195 544.5 c 128,-1,56
 197 553 197 553 200.5 567.5 c 128,-1,57
 204 582 204 582 207 594 c 1,58,59
 199 585 199 585 183 563 c 0,60,61
 175 552 175 552 162 550.5 c 128,-1,62
 149 549 149 549 138 557 c 0,63,64
 127 564 127 564 125 578 c 128,-1,65
 123 592 123 592 131 602 c 0,0,1
EndSplineSet
EndChar

StartChar: two
Encoding: 50 50 21
AltUni2: 00ff12.ffffffff.0 002082.ffffffff.0 0000b2.ffffffff.0 00ff12.ffffffff.0 002082.ffffffff.0 0000b2.ffffffff.0
Width: 480
GlyphClass: 1
Flags: W
LayerCount: 2
Fore
SplineSet
29 512 m 0,0,1
 38 590 38 590 100 644 c 0,2,3
 155 692 155 692 228 701 c 0,4,5
 303 712 303 712 358 677 c 0,6,7
 420 637 420 637 423 553 c 0,8,9
 423 516 423 516 415 484 c 0,10,11
 403 430 403 430 362 359 c 0,12,13
 332 310 332 310 284 244 c 0,14,15
 241 188 241 188 230 172 c 0,16,17
 202 134 202 134 186 106 c 1,18,-1
 186 105 l 2,19,20
 186 104 186 104 185 104 c 2,21,-1
 184 102 l 2,22,23
 183 100 183 100 181 97 c 128,-1,24
 179 94 179 94 178 92 c 0,25,26
 172 80 172 80 160 58 c 0,27,28
 160 57 160 57 158.5 54.5 c 128,-1,29
 157 52 157 52 156 51 c 0,30,31
 156 50 156 50 155 48.5 c 128,-1,32
 154 47 154 47 153 45.5 c 128,-1,33
 152 44 152 44 152 43 c 1,34,35
 153 43 153 43 156 43.5 c 128,-1,36
 159 44 159 44 160 45 c 0,37,38
 185 55 185 55 195 60 c 0,39,40
 198 61 198 61 214 69 c 0,41,42
 215 69 215 69 219 71 c 128,-1,43
 223 73 223 73 228 75 c 128,-1,44
 233 77 233 77 235 78 c 0,45,46
 269 95 269 95 303 108 c 0,47,48
 347 123 347 123 380 124 c 0,49,50
 390 124 390 124 399 121 c 0,51,52
 402 119 402 119 410 115 c 0,53,54
 413 113 413 113 427 104 c 1,55,-1
 427 103 l 1,56,-1
 428 103 l 1,57,-1
 429 103 l 2,58,59
 442 106 442 106 453.5 99 c 128,-1,60
 465 92 465 92 468 79 c 0,61,62
 470 69 470 69 470 65 c 0,63,64
 468 49 468 49 460 41 c 0,65,66
 450 29 450 29 433 29 c 2,67,-1
 418 32 l 2,68,69
 408 37 408 37 389 50 c 1,70,-1
 389 51 l 1,71,-1
 377 59 l 1,72,73
 352 56 352 56 324 46 c 0,74,75
 307 40 307 40 263 20 c 0,76,77
 258 18 258 18 242 10 c 2,78,-1
 222 0 l 2,79,80
 201 -10 201 -10 181 -16 c 0,81,82
 131 -33 131 -33 95 -21 c 0,83,84
 81 -16 81 -16 76 -5 c 0,85,86
 72 0 72 0 72 9 c 0,87,88
 71 14 71 14 73 23 c 0,89,90
 74 30 74 30 79 41 c 0,91,92
 80 44 80 44 84 51.5 c 128,-1,93
 88 59 88 59 91.5 66.5 c 128,-1,94
 95 74 95 74 99 81 c 0,95,96
 100 82 100 82 101 84.5 c 128,-1,97
 102 87 102 87 102 88 c 0,98,99
 103 90 103 90 121 123 c 0,100,101
 125 129 125 129 127 134 c 0,102,103
 129 136 129 136 129 137 c 2,104,-1
 130 138 l 1,105,-1
 130 139 l 1,106,107
 145 165 145 165 177 210 c 2,108,-1
 231 283 l 2,109,110
 279 347 279 347 306 392 c 0,111,112
 339 449 339 449 352 499 c 0,113,114
 358 528 358 528 358 552 c 0,115,116
 357 599 357 599 322 623 c 0,117,118
 289 645 289 645 237 637 c 0,119,120
 183 629 183 629 143 595 c 0,121,122
 99 557 99 557 93 504 c 0,123,124
 92 491 92 491 81.5 482.5 c 128,-1,125
 71 474 71 474 57 476 c 128,-1,126
 43 478 43 478 35 488.5 c 128,-1,127
 27 499 27 499 29 512 c 0,0,1
EndSplineSet
EndChar

StartChar: three
Encoding: 51 51 22
AltUni2: 00ff13.ffffffff.0 002083.ffffffff.0 0000b3.ffffffff.0 00ff13.ffffffff.0 002083.ffffffff.0 0000b3.ffffffff.0
Width: 472
GlyphClass: 1
Flags: W
LayerCount: 2
Fore
SplineSet
37 583 m 0,0,1
 119 692 119 692 209 697 c 0,2,3
 294 703 294 703 343 626 c 0,4,5
 389 552 389 552 364 470 c 0,6,7
 353 433 353 433 332 407 c 1,8,9
 363 401 363 401 388 383 c 0,10,11
 423 360 423 360 442.5 321 c 128,-1,12
 462 282 462 282 461 239 c 0,13,14
 459 141 459 141 372 75 c 0,15,16
 274 3 274 3 99 3 c 0,17,18
 86 3 86 3 76.5 12.5 c 128,-1,19
 67 22 67 22 67 35 c 0,20,21
 67 49 67 49 76.5 58.5 c 128,-1,22
 86 68 86 68 99 68 c 0,23,24
 252 68 252 68 333 127 c 0,25,26
 396 175 396 175 396 239 c 0,27,28
 398 298 398 298 351 329 c 0,29,30
 309 358 309 358 250 340 c 0,31,32
 247 339 247 339 241.5 336.5 c 128,-1,33
 236 334 236 334 234 333 c 0,34,35
 227 330 227 330 220 330 c 0,36,37
 195 326 195 326 185 349 c 0,38,39
 180 362 180 362 185 374.5 c 128,-1,40
 190 387 190 387 202 392 c 0,41,42
 218 398 218 398 225 401 c 0,43,44
 284 431 284 431 302 488 c 0,45,46
 317 544 317 544 288 591 c 0,47,48
 260 635 260 635 213 633 c 0,49,50
 153 628 153 628 89 544 c 0,51,52
 82 534 82 534 68 531.5 c 128,-1,53
 54 529 54 529 44 537 c 128,-1,54
 34 545 34 545 31.5 559 c 128,-1,55
 29 573 29 573 37 583 c 0,0,1
EndSplineSet
EndChar

StartChar: four
Encoding: 52 52 23
AltUni2: 00ff14.ffffffff.0 002084.ffffffff.0 002074.ffffffff.0 00ff14.ffffffff.0 002084.ffffffff.0 002074.ffffffff.0
Width: 514
GlyphClass: 1
Flags: W
LayerCount: 2
Fore
SplineSet
149 697 m 0,0,1
 148 686 148 686 141 615 c 0,2,3
 141 610 141 610 140 602 c 128,-1,4
 139 594 139 594 138 588 c 2,5,-1
 137 582 l 2,6,7
 137 580 137 580 136.5 575 c 128,-1,8
 136 570 136 570 136 567 c 0,9,10
 135 554 135 554 132 494 c 0,11,12
 128 386 128 386 149 328 c 0,13,14
 165 283 165 283 197 268 c 0,15,16
 226 254 226 254 274 260 c 0,17,18
 278 261 278 261 284.5 262 c 128,-1,19
 291 263 291 263 296.5 264 c 128,-1,20
 302 265 302 265 307 266 c 0,21,22
 308 270 308 270 308.5 279.5 c 128,-1,23
 309 289 309 289 309 294 c 0,24,25
 314 381 314 381 315 400 c 0,26,27
 318 448 318 448 316 482 c 0,28,29
 316 496 316 496 325.5 505.5 c 128,-1,30
 335 515 335 515 348 516 c 0,31,32
 362 517 362 517 371.5 507.5 c 128,-1,33
 381 498 381 498 381 485 c 0,34,35
 383 447 383 447 380 397 c 0,36,37
 379 375 379 375 374 290 c 0,38,39
 374 289 374 289 373.5 286.5 c 128,-1,40
 373 284 373 284 373 283 c 1,41,42
 374 283 374 283 376.5 283.5 c 128,-1,43
 379 284 379 284 380 284 c 0,44,45
 386 287 386 287 393 288 c 0,46,47
 442 303 442 303 463 307 c 0,48,49
 476 311 476 311 487.5 304 c 128,-1,50
 499 297 499 297 502 284 c 0,51,52
 506 271 506 271 499 259.5 c 128,-1,53
 492 248 492 248 478 244 c 0,54,55
 467 242 467 242 411 226 c 0,56,57
 408 225 408 225 403.5 223.5 c 128,-1,58
 399 222 399 222 398 222 c 0,59,60
 396 221 396 221 385 218 c 128,-1,61
 374 215 374 215 369 214 c 1,62,63
 362 77 362 77 371 22 c 0,64,65
 374 9 374 9 366.5 -2.5 c 128,-1,66
 359 -14 359 -14 346 -16 c 0,67,68
 332 -18 332 -18 321 -10.5 c 128,-1,69
 310 -3 310 -3 308 10 c 0,70,71
 301 42 301 42 301 120 c 0,72,73
 301 139 301 139 303 199 c 1,74,-1
 282 196 l 2,75,76
 216 187 216 187 169 209 c 0,77,78
 113 236 113 236 88 306 c 128,-1,79
 63 376 63 376 67 497 c 0,80,81
 70 554 70 554 71 572 c 0,82,83
 71 578 71 578 73 590 c 0,84,85
 73 602 73 602 77 622 c 0,86,87
 78 627 78 627 80.5 654.5 c 128,-1,88
 83 682 83 682 85 703 c 0,89,90
 86 716 86 716 96 725 c 128,-1,91
 106 734 106 734 120 732 c 0,92,93
 133 731 133 731 142 721 c 128,-1,94
 151 711 151 711 149 697 c 0,0,1
EndSplineSet
EndChar

StartChar: five
Encoding: 53 53 24
AltUni2: 00ff15.ffffffff.0 002085.ffffffff.0 002075.ffffffff.0 00ff15.ffffffff.0 002085.ffffffff.0 002075.ffffffff.0
Width: 449
GlyphClass: 1
Flags: W
LayerCount: 2
Fore
SplineSet
157 669 m 0,0,1
 220 678 220 678 398 720 c 0,2,3
 411 723 411 723 422.5 716 c 128,-1,4
 434 709 434 709 437 695 c 0,5,6
 440 682 440 682 433 670.5 c 128,-1,7
 426 659 426 659 413 656 c 0,8,9
 235 616 235 616 181 607 c 1,10,11
 138 519 138 519 125 472 c 0,12,13
 114 431 114 431 120 416 c 0,14,15
 122 412 122 412 134 409 c 0,16,17
 147 407 147 407 189 408 c 0,18,19
 196 408 196 408 205 408.5 c 128,-1,20
 214 409 214 409 217 409 c 0,21,22
 244 409 244 409 265 406 c 0,23,24
 293 402 293 402 315 390 c 0,25,26
 367 361 367 361 379 288 c 0,27,28
 391 218 391 218 356 145 c 0,29,30
 324 80 324 80 269 38 c 0,31,32
 209 -7 209 -7 151 1 c 0,33,34
 82 9 82 9 52 85 c 0,35,36
 47 98 47 98 52 110.5 c 128,-1,37
 57 123 57 123 70 127 c 0,38,39
 82 132 82 132 94.5 127 c 128,-1,40
 107 122 107 122 112 109 c 0,41,42
 127 70 127 70 159 65 c 0,43,44
 190 62 190 62 230 91 c 0,45,46
 273 122 273 122 297 173 c 0,47,48
 323 226 323 226 315 278 c 0,49,50
 308 320 308 320 283 333 c 0,51,52
 264 344 264 344 218 344 c 0,53,54
 215 344 215 344 206.5 343.5 c 128,-1,55
 198 343 198 343 191 343 c 0,56,57
 173 342 173 342 156 342 c 0,58,59
 137 342 137 342 122 345 c 0,60,61
 76 354 76 354 60 391 c 0,62,63
 45 426 45 426 61.5 486 c 128,-1,64
 78 546 78 546 128 646 c 0,65,66
 130 650 130 650 133 654 c 0,67,68
 141 668 141 668 157 669 c 0,0,1
EndSplineSet
EndChar

StartChar: six
Encoding: 54 54 25
AltUni2: 00ff16.ffffffff.0 002086.ffffffff.0 002076.ffffffff.0 00ff16.ffffffff.0 002086.ffffffff.0 002076.ffffffff.0
Width: 442
GlyphClass: 1
Flags: W
LayerCount: 2
Fore
SplineSet
114 257 m 1,0,1
 98 173 98 173 116 123 c 0,2,3
 142 51 142 51 241 44 c 0,4,5
 307 40 307 40 341 89 c 0,6,7
 373 137 373 137 365 207 c 128,-1,8
 357 277 357 277 316 313 c 0,9,10
 274 349 274 349 210 324 c 0,11,12
 188 315 188 315 168 300.5 c 128,-1,13
 148 286 148 286 143 275 c 0,14,15
 135 257 135 257 114 257 c 1,0,1
320 668 m 0,16,17
 275 624 275 624 220 526 c 0,18,19
 175 446 175 446 144 363 c 1,20,21
 158 372 158 372 186 385 c 0,22,23
 287 423 287 423 358 362 c 0,24,25
 419 310 419 310 429 215 c 0,26,27
 440 121 440 121 395 53 c 0,28,29
 342 -27 342 -27 237 -21 c 0,30,31
 94 -10 94 -10 55 102 c 0,32,33
 25 188 25 188 64 328 c 0,34,35
 94 433 94 433 163 558 c 0,36,37
 228 669 228 669 275 715 c 0,38,39
 284 724 284 724 297.5 724 c 128,-1,40
 311 724 311 724 321 714 c 0,41,42
 330 704 330 704 330 691 c 128,-1,43
 330 678 330 678 320 668 c 0,16,17
EndSplineSet
EndChar

StartChar: seven
Encoding: 55 55 26
AltUni2: 00ff17.ffffffff.0 002087.ffffffff.0 002077.ffffffff.0 00ff17.ffffffff.0 002087.ffffffff.0 002077.ffffffff.0
Width: 479
GlyphClass: 1
Flags: W
LayerCount: 2
Fore
SplineSet
61 664 m 0,0,1
 91 672 91 672 112 678 c 0,2,3
 113 678 113 678 125 681 c 0,4,5
 166 693 166 693 210 704 c 0,6,7
 261 715 261 715 301 719 c 0,8,9
 302 719 302 719 305 719.5 c 128,-1,10
 308 720 308 720 310 720 c 0,11,12
 317 720 317 720 321 722 c 0,13,14
 348 725 348 725 365 725 c 0,15,16
 393 725 393 725 417 716 c 0,17,18
 447 704 447 704 464 675 c 0,19,20
 468 667 468 667 468 656 c 0,21,22
 468 648 468 648 467 644 c 0,23,24
 466 635 466 635 461 621 c 0,25,26
 454 603 454 603 437 563 c 0,27,28
 434 556 434 556 401.5 485.5 c 128,-1,29
 369 415 369 415 361 396 c 1,30,-1
 360 395 l 2,31,32
 360 394 360 394 360 393 c 1,33,-1
 363 393 l 2,34,35
 388 395 388 395 413 398 c 0,36,37
 426 401 426 401 437 393.5 c 128,-1,38
 448 386 448 386 451 372 c 0,39,40
 453 358 453 358 445 347 c 128,-1,41
 437 336 437 336 424 334 c 0,42,43
 419 334 419 334 401.5 332 c 128,-1,44
 384 330 384 330 369 328 c 0,45,46
 357 328 357 328 333 325 c 2,47,-1
 331 325 l 1,48,49
 325 311 325 311 323 304 c 0,50,51
 287 217 287 217 270 146 c 0,52,53
 253 70 253 70 263 35 c 0,54,55
 267 22 267 22 260 10.5 c 128,-1,56
 253 -1 253 -1 240 -5 c 128,-1,57
 227 -9 227 -9 215.5 -2 c 128,-1,58
 204 5 204 5 200 18 c 0,59,60
 186 71 186 71 207 161 c 0,61,62
 224 228 224 228 258 317 c 1,63,-1
 216 310 l 2,64,65
 202 308 202 308 191 315.5 c 128,-1,66
 180 323 180 323 178 336 c 0,67,68
 175 349 175 349 182.5 360.5 c 128,-1,69
 190 372 190 372 203 374 c 0,70,71
 245 381 245 381 286 385 c 1,72,73
 296 409 296 409 302 422 c 0,74,75
 320 464 320 464 378 589 c 0,76,77
 394 627 394 627 400 643 c 0,78,79
 400 646 400 646 402 650 c 1,80,81
 392 660 392 660 365 660 c 0,82,83
 352 660 352 660 329 657 c 0,84,85
 328 657 328 657 323.5 656.5 c 128,-1,86
 319 656 319 656 318 656 c 0,87,88
 314 655 314 655 308 655 c 0,89,90
 271 651 271 651 225 640 c 0,91,92
 195 633 195 633 142 618 c 0,93,94
 138 617 138 617 134 616 c 128,-1,95
 130 615 130 615 129 615 c 0,96,97
 122 613 122 613 77 601 c 0,98,99
 64 597 64 597 52.5 604 c 128,-1,100
 41 611 41 611 38 624 c 0,101,102
 34 637 34 637 41 648.5 c 128,-1,103
 48 660 48 660 61 664 c 0,0,1
EndSplineSet
EndChar

StartChar: eight
Encoding: 56 56 27
AltUni2: 00ff18.ffffffff.0 002088.ffffffff.0 002078.ffffffff.0 00ff18.ffffffff.0 002088.ffffffff.0 002078.ffffffff.0
Width: 437
GlyphClass: 1
Flags: W
LayerCount: 2
Fore
SplineSet
176 -6 m 1,0,-1
 174 -6 l 2,1,2
 173 -5 173 -5 172 -5 c 0,3,4
 77 24 77 24 41 69 c 0,5,6
 1 115 1 115 18 177 c 0,7,8
 31 224 31 224 76 278 c 0,9,10
 101 308 101 308 127 334 c 1,11,12
 96 360 96 360 79 388 c 0,13,14
 32 470 32 470 105 577 c 0,15,16
 138 627 138 627 169 656 c 0,17,18
 220 702 220 702 277 706 c 0,19,20
 310 709 310 709 336 693 c 0,21,22
 349 685 349 685 373 660 c 0,23,24
 406 624 406 624 400 577 c 0,25,26
 397 543 397 543 368 497 c 0,27,28
 341 459 341 459 305 421 c 0,29,30
 296 411 296 411 230 345 c 2,31,-1
 229 344 l 1,32,33
 235 340 235 340 241 337 c 0,34,35
 243 336 243 336 251 331 c 128,-1,36
 259 326 259 326 260 326 c 0,37,38
 285 311 285 311 317 291 c 0,39,40
 352 266 352 266 370 248 c 0,41,42
 427 193 427 193 427 121 c 0,43,44
 427 77 427 77 398 45 c 0,45,46
 372 17 372 17 334 2 c 0,47,48
 259 -27 259 -27 188 -11 c 0,49,50
 184 -10 184 -10 176 -6 c 1,0,-1
173 381 m 1,51,-1
 184 392 l 2,52,53
 225 432 225 432 258 465 c 0,54,55
 295 505 295 505 313 533 c 0,56,57
 333 561 333 561 336 584 c 0,58,59
 338 602 338 602 325 616 c 0,60,61
 309 634 309 634 301.5 638.5 c 128,-1,62
 294 643 294 643 282 642 c 0,63,64
 247 639 247 639 213 608 c 0,65,66
 193 590 193 590 158 540 c 0,67,68
 131 498 131 498 126 466 c 0,69,70
 123 442 123 442 135 421 c 0,71,72
 149 398 149 398 173 381 c 1,51,-1
203 52 m 0,73,74
 254 40 254 40 309 62 c 0,75,76
 362 83 362 83 362 121 c 0,77,78
 362 165 362 165 324 202 c 0,79,80
 300 227 300 227 227 270 c 0,81,82
 226 270 226 270 218 275 c 128,-1,83
 210 280 210 280 208 281 c 0,84,85
 204 283 204 283 195 288.5 c 128,-1,86
 186 294 186 294 181 297 c 1,87,88
 148 264 148 264 127 237 c 0,89,90
 88 191 88 191 81 160 c 0,91,92
 72 131 72 131 90 111 c 0,93,94
 116 81 116 81 191 57 c 0,95,96
 197 55 197 55 201 53 c 0,97,98
 201 52 201 52 203 52 c 0,73,74
EndSplineSet
EndChar

StartChar: nine
Encoding: 57 57 28
AltUni2: 00ff19.ffffffff.0 002089.ffffffff.0 002079.ffffffff.0 00ff19.ffffffff.0 002089.ffffffff.0 002079.ffffffff.0
Width: 444
GlyphClass: 1
Flags: W
LayerCount: 2
Fore
SplineSet
356 308 m 1,0,1
 378 402 378 402 362 484 c 0,2,3
 344 584 344 584 278 613 c 0,4,5
 217 640 217 640 172 599 c 0,6,7
 127 559 127 559 122 484 c 0,8,9
 117 407 117 407 164 359 c 0,10,11
 223 302 223 302 339 312 c 0,12,13
 349 312 349 312 356 308 c 1,0,1
103 76 m 0,14,15
 180 43 180 43 247 101 c 0,16,17
 304 150 304 150 338 247 c 1,18,19
 194 236 194 236 118 314 c 0,20,21
 51 381 51 381 57 488 c 0,22,23
 63 589 63 589 129 648 c 0,24,25
 206 717 206 717 304 672 c 0,26,27
 402 628 402 628 426 496 c 0,28,29
 447 384 447 384 409 253 c 0,30,31
 370 121 370 121 289 51 c 0,32,33
 192 -32 192 -32 77 16 c 0,34,35
 65 21 65 21 60 33.5 c 128,-1,36
 55 46 55 46 60 59 c 0,37,38
 65 71 65 71 77.5 76 c 128,-1,39
 90 81 90 81 103 76 c 0,14,15
EndSplineSet
EndChar

StartChar: colon
Encoding: 58 58 29
AltUni2: 00ff1a.ffffffff.0 00fe55.ffffffff.0 00fe13.ffffffff.0 002236.ffffffff.0 000589.ffffffff.0 00ff1a.ffffffff.0 00fe55.ffffffff.0 00fe13.ffffffff.0 002236.ffffffff.0 000589.ffffffff.0
Width: 230
GlyphClass: 1
Flags: W
LayerCount: 2
Fore
SplineSet
63 74 m 0,0,1
 63 72 63 72 63 71 c 2,2,-1
 63 70 l 2,3,4
 63 51 63 51 76 36 c 0,5,6
 88 23 88 23 108 19 c 0,7,8
 113 18 113 18 120 18 c 128,-1,9
 127 18 127 18 138 20 c 0,10,11
 170 28 170 28 188 53 c 1,12,13
 197 74 197 74 198 84 c 0,14,15
 198 103 198 103 183 123 c 0,16,17
 163 149 163 149 132 157 c 0,18,19
 127 158 127 158 123 158 c 0,20,21
 109 158 109 158 100 146 c 2,22,-1
 99 144 l 1,23,24
 84 136 84 136 76 124 c 0,25,26
 72 117 72 117 70 112 c 0,27,28
 63 91 63 91 63 74 c 0,0,1
73 349 m 0,29,30
 73 323 73 323 91 303 c 0,31,32
 112 280 112 280 150 280 c 0,33,34
 190 280 190 280 205 311 c 0,35,36
 210 327 210 327 210 335 c 0,37,38
 210 353 210 353 199 374 c 0,39,40
 184 404 184 404 159 417 c 0,41,42
 143 426 143 426 128 426 c 0,43,44
 107 426 107 426 90 409 c 0,45,46
 83 398 83 398 83 393.5 c 128,-1,47
 83 389 83 389 83 383 c 2,48,-1
 81 380 l 2,49,50
 75 372 75 372 74 363.5 c 128,-1,51
 73 355 73 355 73 349 c 0,29,30
EndSplineSet
EndChar

StartChar: semicolon
Encoding: 59 59 30
AltUni2: 00ff1b.ffffffff.0 00fe54.ffffffff.0 00fe14.ffffffff.0 00037e.ffffffff.0 00ff1b.ffffffff.0 00fe54.ffffffff.0 00fe14.ffffffff.0 00037e.ffffffff.0
Width: 212
GlyphClass: 1
Flags: W
LayerCount: 2
Fore
SplineSet
95 352 m 2,0,1
 113 369 113 369 136 359 c 0,2,3
 186 338 186 338 193 300 c 0,4,5
 200 261 200 261 168 234 c 0,6,7
 136 209 136 209 101 223 c 0,8,9
 81 232 81 232 70 252 c 0,10,11
 62 268 62 268 62 293 c 2,12,-1
 62 298 l 1,13,-1
 62 306 l 2,14,15
 65 323 65 323 76 332 c 2,16,-1
 81 337 l 2,17,18
 86 340 86 340 90 347 c 2,19,-1
 95 352 l 2,0,1
124 156 m 0,20,21
 166 142 166 142 188 99 c 0,22,23
 205 62 205 62 201 22 c 0,24,25
 197 -22 197 -22 173.5 -56.5 c 128,-1,26
 150 -91 150 -91 112 -104 c 0,27,28
 97 -109 97 -109 82 -102 c 128,-1,29
 67 -95 67 -95 63 -80 c 0,30,31
 58 -64 58 -64 65 -49.5 c 128,-1,32
 72 -35 72 -35 87 -30 c 0,33,34
 101 -26 101 -26 111.5 -9.5 c 128,-1,35
 122 7 122 7 124 28 c 0,36,37
 126 50 126 50 118 64 c 0,38,39
 112 77 112 77 98 82 c 0,40,41
 83 87 83 87 76 101.5 c 128,-1,42
 69 116 69 116 74 131 c 0,43,44
 79 147 79 147 94 154 c 128,-1,45
 109 161 109 161 124 156 c 0,20,21
EndSplineSet
EndChar

StartChar: less
Encoding: 60 60 31
AltUni2: 00ff1c.ffffffff.0 00fe64.ffffffff.0 003008.ffffffff.0 002329.ffffffff.0 002039.ffffffff.0 00ff1c.ffffffff.0 00fe64.ffffffff.0 003008.ffffffff.0 002329.ffffffff.0 002039.ffffffff.0
Width: 390
GlyphClass: 1
Flags: W
LayerCount: 2
Fore
SplineSet
369 566 m 0,0,1
 333 529 333 529 257 455 c 0,2,3
 256 454 256 454 239.5 438 c 128,-1,4
 223 422 223 422 204.5 404 c 128,-1,5
 186 386 186 386 180 380 c 0,6,7
 151 352 151 352 136 334 c 0,8,9
 134 331 134 331 131 326 c 2,10,-1
 128 321 l 2,11,12
 128 320 128 320 127 319 c 128,-1,13
 126 318 126 318 126 317 c 2,14,-1
 126 316 l 2,15,16
 126 315 126 315 127 313 c 128,-1,17
 128 311 128 311 128 310 c 0,18,19
 134 301 134 301 153 279 c 0,20,21
 190 240 190 240 204 225 c 0,22,23
 237 187 237 187 273 141 c 0,24,25
 277 135 277 135 295 123 c 0,26,27
 301 118 301 118 305.5 114 c 128,-1,28
 310 110 310 110 312 109 c 0,29,30
 329 95 329 95 337 82 c 0,31,32
 353 54 353 54 340 28 c 0,33,34
 334 13 334 13 318.5 7 c 128,-1,35
 303 1 303 1 289 8 c 0,36,37
 264 20 264 20 266 46 c 0,38,39
 264 48 264 48 262 49 c 0,40,41
 257 54 257 54 247 61 c 0,42,43
 220 82 220 82 212 93 c 0,44,45
 197 112 197 112 146 173 c 1,46,-1
 96 227 l 2,47,48
 70 255 70 255 61 271 c 0,49,50
 45 299 45 299 49 329 c 0,51,52
 53 354 53 354 75 382 c 0,53,54
 90 401 90 401 125 436 c 0,55,56
 167 475 167 475 203 511 c 0,57,58
 277 584 277 584 313 620 c 0,59,60
 324 632 324 632 340.5 632 c 128,-1,61
 357 632 357 632 368 621 c 128,-1,62
 379 610 379 610 379.5 593.5 c 128,-1,63
 380 577 380 577 369 566 c 0,0,1
EndSplineSet
Substitution2: "'rtla' Right to Left Alternates lookup 0 subtable" greater
EndChar

StartChar: equal
Encoding: 61 61 32
AltUni2: 00ff1d.ffffffff.0 00fe66.ffffffff.0 00208c.ffffffff.0 00207c.ffffffff.0 00ff1d.ffffffff.0 00fe66.ffffffff.0 00208c.ffffffff.0 00207c.ffffffff.0
Width: 546
GlyphClass: 1
Flags: W
LayerCount: 2
Fore
SplineSet
122 408 m 0,0,1
 297 401 297 401 493 409 c 0,2,3
 509 410 509 410 521 399 c 128,-1,4
 533 388 533 388 534 372 c 128,-1,5
 535 356 535 356 524 344 c 128,-1,6
 513 332 513 332 497 331 c 0,7,8
 298 323 298 323 119 330 c 0,9,10
 103 331 103 331 92 342.5 c 128,-1,11
 81 354 81 354 81 370 c 0,12,13
 82 387 82 387 94 398 c 128,-1,14
 106 409 106 409 122 408 c 0,0,1
124 201 m 0,15,16
 385 206 385 206 495 212 c 0,17,18
 511 213 511 213 522.5 202 c 128,-1,19
 534 191 534 191 536 175 c 0,20,21
 537 159 537 159 526 147 c 128,-1,22
 515 135 515 135 499 134 c 0,23,24
 387 128 387 128 126 123 c 0,25,26
 109 122 109 122 97.5 133.5 c 128,-1,27
 86 145 86 145 86 161 c 128,-1,28
 86 177 86 177 97 188.5 c 128,-1,29
 108 200 108 200 124 201 c 0,15,16
EndSplineSet
EndChar

StartChar: greater
Encoding: 62 62 33
AltUni2: 00ff1e.ffffffff.0 00fe65.ffffffff.0 003009.ffffffff.0 00232a.ffffffff.0 00203a.ffffffff.0 00ff1e.ffffffff.0 00fe65.ffffffff.0 003009.ffffffff.0 00232a.ffffffff.0 00203a.ffffffff.0
Width: 361
GlyphClass: 1
Flags: W
LayerCount: 2
Fore
SplineSet
109 619 m 0,0,1
 163 558 163 558 209 510 c 0,2,3
 250 469 250 469 280 434 c 0,4,5
 312 400 312 400 326 381 c 0,6,7
 346 352 346 352 350 328 c 0,8,9
 354 301 354 301 339 273 c 0,10,11
 329 254 329 254 307 228 c 2,12,-1
 298 218 l 2,13,14
 290 207 290 207 278.5 193.5 c 128,-1,15
 267 180 267 180 262 174 c 0,16,17
 231 138 231 138 201 95 c 0,18,19
 192 82 192 82 168 62 c 0,20,21
 160 55 160 55 155 50 c 0,22,23
 154 49 154 49 151 47 c 0,24,25
 153 18 153 18 127 8 c 0,26,27
 112 1 112 1 97.5 7.5 c 128,-1,28
 83 14 83 14 76 29 c 0,29,30
 66 54 66 54 80 80 c 0,31,32
 88 96 88 96 103 108 c 0,33,34
 109 114 109 114 118 122 c 0,35,36
 133 133 133 133 138 140 c 0,37,38
 173 189 173 189 201 223 c 2,39,-1
 247 278 l 2,40,41
 266 300 266 300 270 309 c 0,42,43
 273 313 273 313 273 317 c 0,44,45
 271 323 271 323 263 335 c 0,46,47
 251 352 251 352 223 381 c 0,48,49
 193 416 193 416 153 456 c 0,50,51
 87 525 87 525 51 567 c 0,52,53
 40 579 40 579 41 595 c 128,-1,54
 42 611 42 611 54 622 c 128,-1,55
 66 633 66 633 82 632 c 128,-1,56
 98 631 98 631 109 619 c 0,0,1
EndSplineSet
Substitution2: "'rtla' Right to Left Alternates lookup 0 subtable" less
EndChar

StartChar: question
Encoding: 63 63 34
AltUni2: 00ff1f.ffffffff.0 00fe56.ffffffff.0 00fe16.ffffffff.0 00ff1f.ffffffff.0 00fe56.ffffffff.0 00fe16.ffffffff.0
Width: 464
GlyphClass: 1
Flags: W
LayerCount: 2
Fore
SplineSet
214 51 m 0,0,1
 224 64 224 64 235 71 c 0,2,3
 262 86 262 86 288 75 c 0,4,5
 313 64 313 64 321 44 c 0,6,7
 333 20 333 20 320 -4 c 0,8,9
 308 -28 308 -28 273 -44 c 0,10,11
 260 -50 260 -50 246 -53 c 0,12,13
 226 -56 226 -56 209 -49 c 0,14,15
 177 -32 177 -32 184 2 c 0,16,17
 187 20 187 20 202 38 c 0,18,19
 210 47 210 47 214 51 c 0,0,1
90 499 m 0,20,21
 96 557 96 557 144 610 c 0,22,23
 188 657 188 657 245 680 c 0,24,25
 312 706 312 706 363 689 c 0,26,27
 428 669 428 669 448 595 c 0,28,29
 464 533 464 533 438 463 c 0,30,31
 428 436 428 436 411 406 c 0,32,33
 402 390 402 390 380 354 c 0,34,35
 354 312 354 312 350 303 c 0,36,37
 330 268 330 268 323 242 c 1,38,-1
 322 241 l 1,39,-1
 322 240 l 2,40,41
 322 237 322 237 321 233 c 0,42,43
 320 230 320 230 318.5 223.5 c 128,-1,44
 317 217 317 217 316 214 c 2,45,-1
 313 202 l 2,46,47
 312 200 312 200 311 196.5 c 128,-1,48
 310 193 310 193 309.5 191 c 128,-1,49
 309 189 309 189 308 187 c 0,50,51
 308 185 308 185 307 182.5 c 128,-1,52
 306 180 306 180 305 179 c 0,53,54
 299 169 299 169 293 165 c 0,55,56
 285 157 285 157 269 155 c 0,57,58
 250 155 250 155 239 168 c 0,59,60
 234 173 234 173 230 181 c 0,61,62
 228 187 228 187 228 189 c 0,63,64
 226 201 226 201 226 212 c 0,65,66
 226 232 226 232 243 244 c 1,67,-1
 248 264 l 2,68,69
 258 300 258 300 282 341 c 0,70,71
 291 357 291 357 313 394 c 0,72,73
 355 463 355 463 365 491 c 0,74,75
 382 538 382 538 372 575 c 0,76,77
 364 607 364 607 340 615 c 0,78,79
 313 623 313 623 274 608 c 0,80,81
 233 591 233 591 202.5 557.5 c 128,-1,82
 172 524 172 524 168 491 c 0,83,84
 167 475 167 475 154 464.5 c 128,-1,85
 141 454 141 454 125 456 c 0,86,87
 109 457 109 457 98.5 470 c 128,-1,88
 88 483 88 483 90 499 c 0,20,21
EndSplineSet
EndChar

StartChar: at
Encoding: 64 64 35
AltUni2: 00ff20.ffffffff.0 00fe6b.ffffffff.0 00ff20.ffffffff.0 00fe6b.ffffffff.0
Width: 537
GlyphClass: 1
Flags: W
LayerCount: 2
Fore
SplineSet
302 265 m 1,0,1
 308 269 308 269 313 275 c 0,2,3
 315 277 315 277 316 277 c 0,4,5
 324 289 324 289 325 318 c 0,6,7
 326 344 326 344 329 365 c 0,8,9
 334 389 334 389 342 411 c 1,10,11
 331 419 331 419 326 420 c 0,12,13
 323 420 323 420 321 418 c 0,14,15
 300 400 300 400 295 344 c 0,16,17
 289 293 289 293 302 265 c 1,0,1
437 311 m 1,18,19
 437 312 437 312 438 313 c 0,20,21
 443 328 443 328 446 368 c 0,22,23
 449 422 449 422 449 442 c 0,24,25
 448 474 448 474 438 510 c 0,26,27
 428 539 428 539 387 559 c 0,28,29
 345 579 345 579 307 572 c 0,30,31
 287 568 287 568 280 565 c 0,32,33
 278 565 278 565 273 562 c 0,34,35
 270 559 270 559 264 552 c 0,36,37
 250 538 250 538 242 531 c 0,38,39
 176 467 176 467 159 386 c 0,40,41
 143 313 143 313 172 243 c 128,-1,42
 201 173 201 173 264 132 c 0,43,44
 335 87 335 87 423 88 c 0,45,46
 439 89 439 89 450.5 77.5 c 128,-1,47
 462 66 462 66 463 50 c 0,48,49
 463 34 463 34 452 22.5 c 128,-1,50
 441 11 441 11 424 10 c 0,51,52
 310 8 310 8 222 67 c 0,53,54
 139 120 139 120 100 213 c 0,55,56
 62 303 62 303 82 402 c 0,57,58
 105 505 105 505 188 587 c 0,59,60
 198 595 198 595 207 606 c 0,61,62
 210 609 210 609 212.5 611.5 c 128,-1,63
 215 614 215 614 216 615.5 c 128,-1,64
 217 617 217 617 219 618.5 c 128,-1,65
 221 620 221 620 222 621 c 0,66,67
 234 632 234 632 257 640 c 0,68,69
 260 641 260 641 271 643.5 c 128,-1,70
 282 646 282 646 291 648 c 0,71,72
 352 662 352 662 421 629 c 0,73,74
 493 593 493 593 512 533 c 0,75,76
 524 494 524 494 526 445 c 0,77,78
 527 422 527 422 524 362 c 0,79,80
 518 273 518 273 485 241 c 0,81,82
 460 219 460 219 429 225 c 0,83,84
 408 229 408 229 389 248 c 1,85,86
 381 234 381 234 376 228 c 0,87,88
 375 227 375 227 373 224.5 c 128,-1,89
 371 222 371 222 370 221 c 0,90,91
 333 184 333 184 300 184 c 0,92,93
 260 183 260 183 238 221 c 0,94,95
 209 269 209 269 217 351 c 0,96,97
 225 438 225 438 270 477 c 0,98,99
 301 505 301 505 343 496 c 0,100,101
 380 487 380 487 416 448 c 0,102,103
 436 427 436 427 422 403 c 0,104,105
 422 402 422 402 421.5 399.5 c 128,-1,106
 421 397 421 397 420 396 c 0,107,108
 412 380 412 380 420 349 c 0,109,110
 427 326 427 326 437 311 c 1,18,19
EndSplineSet
EndChar

StartChar: A
Encoding: 65 65 36
AltUni2: 00ff21.ffffffff.0 001d2c.ffffffff.0 0013aa.ffffffff.0 000410.ffffffff.0 000391.ffffffff.0 00ff21.ffffffff.0 001d2c.ffffffff.0 0013aa.ffffffff.0 000410.ffffffff.0 000391.ffffffff.0
Width: 436
GlyphClass: 1
Flags: W
LayerCount: 2
Fore
SplineSet
128 247 m 1,0,1
 182 270 182 270 226 296 c 0,2,3
 285 331 285 331 347 380 c 1,4,5
 350 507 350 507 343 575 c 0,6,7
 336 656 336 656 311 690 c 1,8,9
 262 647 262 647 220 562.5 c 128,-1,10
 178 478 178 478 152 372 c 0,11,12
 136 309 136 309 128 247 c 1,0,1
76 -13 m 0,13,14
 53 62 53 62 56.5 168 c 128,-1,15
 60 274 60 274 89 387 c 0,16,17
 118 505 118 505 165.5 598 c 128,-1,18
 213 691 213 691 271 741 c 0,19,20
 283 752 283 752 304 755 c 0,21,22
 314 756 314 756 324 755 c 0,23,24
 339 754 339 754 351 743 c 0,25,26
 396 697 396 697 408 581 c 0,27,28
 415 507 415 507 412 365 c 0,29,30
 412 354 412 354 411 344 c 0,31,32
 409 219 409 219 411 189 c 0,33,34
 413 110 413 110 424 70 c 0,35,36
 428 57 428 57 421 45.5 c 128,-1,37
 414 34 414 34 401 30 c 128,-1,38
 388 26 388 26 376.5 33 c 128,-1,39
 365 40 365 40 361 53 c 0,40,41
 347 104 347 104 346 187 c 0,42,43
 345 230 345 230 346 297 c 1,44,45
 299 264 299 264 260 240 c 0,46,47
 184 197 184 197 122 176 c 1,48,49
 117 73 117 73 138 6 c 0,50,51
 142 -7 142 -7 135.5 -18.5 c 128,-1,52
 129 -30 129 -30 116 -34 c 128,-1,53
 103 -38 103 -38 91.5 -32 c 128,-1,54
 80 -26 80 -26 76 -13 c 0,13,14
EndSplineSet
EndChar

StartChar: B
Encoding: 66 66 37
AltUni2: 00ff22.ffffffff.0 00212c.ffffffff.0 001d2e.ffffffff.0 0013f4.ffffffff.0 000412.ffffffff.0 000392.ffffffff.0 00ff22.ffffffff.0 00212c.ffffffff.0 001d2e.ffffffff.0 0013f4.ffffffff.0 000412.ffffffff.0 000392.ffffffff.0
Width: 452
GlyphClass: 1
Flags: W
LayerCount: 2
Fore
SplineSet
132 402 m 1,0,1
 140 404 140 404 149.5 407.5 c 128,-1,2
 159 411 159 411 164.5 413.5 c 128,-1,3
 170 416 170 416 172 416 c 0,4,5
 193 425 193 425 220 436 c 0,6,7
 247 450 247 450 263 466 c 0,8,9
 277 480 277 480 291 499 c 0,10,11
 325 540 325 540 311 580 c 0,12,13
 298 618 298 618 252 644 c 0,14,15
 204 670 204 670 149 664 c 0,16,17
 148 663 148 663 144 663 c 128,-1,18
 140 663 140 663 139 662 c 0,19,20
 132 537 132 537 132 402 c 1,0,1
138 38 m 1,21,22
 139 40 139 40 142 40.5 c 128,-1,23
 145 41 145 41 146 41 c 0,24,25
 152 41 152 41 169 45 c 0,26,27
 174 46 174 46 181.5 47.5 c 128,-1,28
 189 49 189 49 192 49 c 0,29,30
 294 68 294 68 323 97 c 0,31,32
 358 131 358 131 355 174 c 0,33,34
 352 214 352 214 315 256 c 128,-1,35
 278 298 278 298 228 317 c 128,-1,36
 178 336 178 336 138 324 c 0,37,38
 137 324 137 324 135 323.5 c 128,-1,39
 133 323 133 323 132 322 c 0,40,41
 132 267 132 267 134 143 c 1,42,-1
 136 110 l 2,43,44
 137 102 137 102 137 88 c 0,45,46
 138 69 138 69 138 44 c 2,47,-1
 138 38 l 1,21,22
1 658 m 0,48,49
 59 723 59 723 142 731 c 0,50,51
 216 741 216 741 285 704 c 0,52,53
 355 665 355 665 376 602 c 0,54,55
 400 528 400 528 346 457 c 0,56,57
 322 429 322 429 311 418 c 0,58,59
 283 391 283 391 256 379 c 1,60,61
 320 352 320 352 365 301 c 0,62,63
 417 243 417 243 423 180 c 0,64,65
 430 104 430 104 371 48 c 0,66,67
 346 23 346 23 294 4 c 0,68,69
 263 -7 263 -7 205 -18 c 0,70,71
 202 -18 202 -18 194 -19.5 c 128,-1,72
 186 -21 186 -21 181 -22 c 0,73,74
 179 -24 179 -24 169.5 -25.5 c 128,-1,75
 160 -27 160 -27 158 -27 c 0,76,77
 100 -38 100 -38 83 -43 c 0,78,79
 69 -49 69 -49 56.5 -42.5 c 128,-1,80
 44 -36 44 -36 40 -22 c 0,81,82
 35 -9 35 -9 41 4 c 128,-1,83
 47 17 47 17 61 22 c 0,84,85
 64 22 64 22 66 23 c 0,86,87
 64 34 64 34 69 44 c 1,88,-1
 69 46 l 2,89,90
 69 68 69 68 68 86 c 0,91,92
 68 99 68 99 67 107 c 2,93,-1
 67 118 l 2,94,95
 67 127 67 127 66 129 c 2,96,-1
 66 142 l 1,97,98
 60 399 60 399 68 630 c 1,99,-1
 53 614 l 2,100,101
 44 603 44 603 30 602 c 128,-1,102
 16 601 16 601 5 611 c 0,103,104
 -5 619 -5 619 -6 633 c 128,-1,105
 -7 647 -7 647 1 658 c 0,48,49
EndSplineSet
EndChar

StartChar: C
Encoding: 67 67 38
AltUni2: 00ff23.ffffffff.0 00a7f2.ffffffff.0 00216d.ffffffff.0 00212d.ffffffff.0 002102.ffffffff.0 0013df.ffffffff.0 000421.ffffffff.0 00ff23.ffffffff.0 00a7f2.ffffffff.0 00216d.ffffffff.0 00212d.ffffffff.0 002102.ffffffff.0 0013df.ffffffff.0 000421.ffffffff.0
Width: 501
GlyphClass: 1
Flags: W
LayerCount: 2
Fore
SplineSet
427 651 m 0,0,1
 420 670 420 670 409 683 c 0,2,3
 403 689 403 689 396 691 c 0,4,5
 381 695 381 695 357 674 c 0,6,7
 292 623 292 623 224 478 c 0,8,9
 157 338 157 338 134 211 c 0,10,11
 124 154 124 154 129 113 c 0,12,13
 135 83 135 83 146 78 c 0,14,15
 190 57 190 57 262 67 c 0,16,17
 293 71 293 71 343 85 c 0,18,19
 344 85 344 85 346 85.5 c 128,-1,20
 348 86 348 86 349 86 c 0,21,22
 350 87 350 87 353 87 c 0,23,24
 354 88 354 88 356 88 c 0,25,26
 362 90 362 90 370 92 c 0,27,28
 385 95 385 95 397 98 c 0,29,30
 410 101 410 101 421.5 94 c 128,-1,31
 433 87 433 87 436 74 c 128,-1,32
 439 61 439 61 432 49.5 c 128,-1,33
 425 38 425 38 411 35 c 0,34,35
 399 32 399 32 386 29 c 0,36,37
 378 27 378 27 373 25 c 0,38,39
 371 25 371 25 369 24 c 0,40,41
 367 24 367 24 366 23 c 0,42,43
 364 23 364 23 362 22.5 c 128,-1,44
 360 22 360 22 359 22 c 0,45,46
 310 9 310 9 272 3 c 0,47,48
 180 -11 180 -11 117 20 c 0,49,50
 75 40 75 40 65 103 c 0,51,52
 58 151 58 151 70 222 c 0,53,54
 93 357 93 357 165 506 c 0,55,56
 239 663 239 663 316 725 c 0,57,58
 366 765 366 765 411 755 c 0,59,60
 460 743 460 743 488 675 c 0,61,62
 493 663 493 663 487.5 650.5 c 128,-1,63
 482 638 482 638 470 633 c 0,64,65
 457 628 457 628 444.5 633 c 128,-1,66
 432 638 432 638 427 651 c 0,0,1
EndSplineSet
EndChar

StartChar: D
Encoding: 68 68 39
AltUni2: 00ff24.ffffffff.0 00216e.ffffffff.0 002145.ffffffff.0 001d30.ffffffff.0 0013a0.ffffffff.0 00ff24.ffffffff.0 00216e.ffffffff.0 002145.ffffffff.0 001d30.ffffffff.0 0013a0.ffffffff.0
Width: 598
GlyphClass: 1
Flags: W
LayerCount: 2
Fore
SplineSet
187 673 m 1,0,1
 160 521 160 521 138 301 c 0,2,3
 125 165 125 165 126 87 c 0,4,5
 126 47 126 47 131 20 c 1,6,7
 281 88 281 88 351 165 c 0,8,9
 398 216 398 216 434 277 c 0,10,11
 479 350 479 350 497 416 c 0,12,13
 518 491 518 491 500 549 c 0,14,15
 481 613 481 613 412 653 c 0,16,17
 384 669 384 669 318 676.5 c 128,-1,18
 252 684 252 684 187 678 c 1,19,-1
 187 673 l 1,0,1
10 596 m 0,20,21
 -5 631 -5 631 4.5 659.5 c 128,-1,22
 14 688 14 688 46 708 c 0,23,24
 95 737 95 737 176 745 c 0,25,26
 252 753 252 753 329.5 743.5 c 128,-1,27
 407 734 407 734 446 711 c 0,28,29
 538 658 538 658 565 569 c 0,30,31
 588 494 588 494 563 398 c 0,32,33
 544 326 544 326 493 241 c 0,34,35
 449 169 449 169 401 119 c 0,36,37
 313 23 313 23 140 -50 c 1,38,39
 129 -62 129 -62 115 -60 c 1,40,41
 61 -82 61 -82 15 -94 c 0,42,43
 1 -98 1 -98 -11.5 -90.5 c 128,-1,44
 -24 -83 -24 -83 -27 -70 c 0,45,46
 -31 -56 -31 -56 -24 -44 c 128,-1,47
 -17 -32 -17 -32 -3 -28 c 0,48,49
 30 -19 30 -19 67 -6 c 1,50,-1
 64 4 l 1,51,52
 59 37 59 37 58 86 c 0,53,54
 56 173 56 173 71 307 c 0,55,56
 88 489 88 489 116 664 c 1,57,58
 95 658 95 658 83 650 c 0,59,60
 71 643 71 643 70 637 c 0,61,62
 67 633 67 633 72 624 c 0,63,64
 77 612 77 612 72 598.5 c 128,-1,65
 67 585 67 585 55 579 c 0,66,67
 42 574 42 574 28.5 578.5 c 128,-1,68
 15 583 15 583 10 596 c 0,20,21
EndSplineSet
EndChar

StartChar: E
Encoding: 69 69 40
AltUni2: 00ff25.ffffffff.0 002130.ffffffff.0 001d31.ffffffff.0 0013ac.ffffffff.0 000415.ffffffff.0 000395.ffffffff.0 00ff25.ffffffff.0 002130.ffffffff.0 001d31.ffffffff.0 0013ac.ffffffff.0 000415.ffffffff.0 000395.ffffffff.0
Width: 505
GlyphClass: 1
Flags: W
LayerCount: 2
Fore
SplineSet
224 643 m 0,0,1
 192 578 192 578 159 464 c 0,2,3
 150 431 150 431 148 421 c 1,4,5
 225 462 225 462 327 482 c 0,6,7
 341 484 341 484 352.5 476 c 128,-1,8
 364 468 364 468 367 454.5 c 128,-1,9
 370 441 370 441 362.5 429 c 128,-1,10
 355 417 355 417 340 414 c 0,11,12
 211 388 211 388 128 327 c 1,13,14
 118 266 118 266 117 228 c 0,15,16
 112 110 112 110 154 58 c 0,17,18
 175 32 175 32 210 25 c 0,19,20
 253 16 253 16 314 33 c 0,21,22
 327 36 327 36 339 29.5 c 128,-1,23
 351 23 351 23 356 9 c 0,24,25
 359 -6 359 -6 352 -18 c 128,-1,26
 345 -30 345 -30 331 -33 c 0,27,28
 175 -74 175 -74 102 15 c 0,29,30
 43 87 43 87 49 232 c 0,31,32
 49 243 49 243 51 268 c 1,33,34
 33 265 33 265 22 278 c 0,35,36
 11 288 11 288 11 302.5 c 128,-1,37
 11 317 11 317 22 326 c 0,38,39
 37 342 37 342 65 365 c 1,40,41
 75 422 75 422 93 483 c 0,42,43
 96 493 96 493 102 512.5 c 128,-1,44
 108 532 108 532 110 538 c 1,45,46
 84 548 84 548 87 575 c 0,47,48
 94 633 94 633 147 677 c 0,49,50
 189 710 189 710 254 730 c 0,51,52
 347 762 347 762 471 765 c 0,53,54
 485 766 485 766 495.5 756.5 c 128,-1,55
 506 747 506 747 507 732 c 0,56,57
 507 718 507 718 497 708 c 128,-1,58
 487 698 487 698 473 697 c 0,59,60
 364 695 364 695 275 666 c 0,61,62
 246 657 246 657 225 646 c 0,63,64
 225 645 225 645 224 643 c 0,0,1
EndSplineSet
EndChar

StartChar: F
Encoding: 70 70 41
AltUni2: 00ff26.ffffffff.0 00a7f3.ffffffff.0 002131.ffffffff.0 00ff26.ffffffff.0 00a7f3.ffffffff.0 002131.ffffffff.0
Width: 531
GlyphClass: 1
Flags: W
LayerCount: 2
Fore
SplineSet
101 672 m 0,0,1
 104 674 104 674 108 676 c 0,2,3
 183 702 183 702 288 727 c 0,4,5
 362 745 362 745 415 748 c 0,6,7
 486 753 486 753 517 732 c 0,8,9
 528 725 528 725 531 711 c 128,-1,10
 534 697 534 697 527 685 c 0,11,12
 519 674 519 674 505 670.5 c 128,-1,13
 491 667 491 667 480 676 c 0,14,15
 479 677 479 677 478 677 c 0,16,17
 476 678 476 678 475 678 c 0,18,19
 468 680 468 680 462 680 c 0,20,21
 445 681 445 681 420 680 c 0,22,23
 380 678 380 678 302 661 c 0,24,25
 215 640 215 640 149 617 c 1,26,27
 148 611 148 611 147.5 602.5 c 128,-1,28
 147 594 147 594 146 582 c 128,-1,29
 145 570 145 570 144 561 c 0,30,31
 138 490 138 490 135 468 c 0,32,33
 133 440 133 440 129 392 c 1,34,35
 232 437 232 437 390 437 c 0,36,37
 403 437 403 437 413 427 c 128,-1,38
 423 417 423 417 423 402.5 c 128,-1,39
 423 388 423 388 413 378.5 c 128,-1,40
 403 369 403 369 390 369 c 0,41,42
 215 369 215 369 124 313 c 1,43,44
 109 76 109 76 133 -11 c 0,45,46
 136 -25 136 -25 129.5 -37 c 128,-1,47
 123 -49 123 -49 109.5 -53 c 128,-1,48
 96 -57 96 -57 83.5 -50 c 128,-1,49
 71 -43 71 -43 67 -29 c 0,50,51
 39 73 39 73 57 326 c 0,52,53
 58 343 58 343 67 474 c 2,54,-1
 76 567 l 2,55,56
 78 591 78 591 79 600 c 1,57,58
 67 604 67 604 60 619 c 0,59,60
 55 632 55 632 60 645 c 128,-1,61
 65 658 65 658 78 664 c 0,62,63
 84 666 84 666 101 672 c 0,0,1
EndSplineSet
EndChar

StartChar: G
Encoding: 71 71 42
AltUni2: 00ff27.ffffffff.0 001d33.ffffffff.0 0013c0.ffffffff.0 00ff27.ffffffff.0 001d33.ffffffff.0 0013c0.ffffffff.0
Width: 478
GlyphClass: 1
Flags: W
LayerCount: 2
Fore
SplineSet
309 337 m 0,0,1
 372 363 372 363 407 360 c 0,2,3
 458 355 458 355 465 300 c 0,4,5
 469 270 469 270 454 203 c 0,6,7
 450 185 450 185 438 137 c 2,8,-1
 418 57 l 2,9,10
 415 44 415 44 403.5 37 c 128,-1,11
 392 30 392 30 379 33 c 0,12,13
 377 33 377 33 373 35 c 1,14,15
 365 29 365 29 361 27 c 0,16,17
 338 13 338 13 315 5 c 0,18,19
 259 -13 259 -13 203 10 c 0,20,21
 30 82 30 82 39 254 c 0,22,23
 46 383 46 383 157 543 c 0,24,25
 250 676 250 676 345 749 c 0,26,27
 393 786 393 786 424 786 c 0,28,29
 459 786 459 786 466 751 c 0,30,31
 470 734 470 734 460 705 c 0,32,33
 455 693 455 693 443 687.5 c 128,-1,34
 431 682 431 682 418 686 c 0,35,36
 403 692 403 692 398 707 c 1,37,38
 397 706 397 706 392 702.5 c 128,-1,39
 387 699 387 699 384 697 c 0,40,41
 296 629 296 629 210 506 c 0,42,43
 110 360 110 360 104 251 c 0,44,45
 98 124 98 124 228 70 c 0,46,47
 263 56 263 56 294 67 c 0,48,49
 317 74 317 74 364 107 c 1,50,51
 366 115 366 115 369 127 c 128,-1,52
 372 139 372 139 373.5 145.5 c 128,-1,53
 375 152 375 152 375 153 c 0,54,55
 385 192 385 192 391 217 c 0,56,57
 403 272 403 272 401 292 c 0,58,59
 400 293 400 293 400 295 c 0,60,61
 384 296 384 296 333 277 c 0,62,63
 320 272 320 272 308 277.5 c 128,-1,64
 296 283 296 283 291 295 c 0,65,66
 286 308 286 308 291 320.5 c 128,-1,67
 296 333 296 333 309 337 c 0,0,1
EndSplineSet
EndChar

StartChar: H
Encoding: 72 72 43
AltUni2: 00ff28.ffffffff.0 00210d.ffffffff.0 00210c.ffffffff.0 00210b.ffffffff.0 001d34.ffffffff.0 0013bb.ffffffff.0 00041d.ffffffff.0 000397.ffffffff.0 00ff28.ffffffff.0 00210d.ffffffff.0 00210c.ffffffff.0 00210b.ffffffff.0 001d34.ffffffff.0 0013bb.ffffffff.0 00041d.ffffffff.0 000397.ffffffff.0
Width: 477
GlyphClass: 1
Flags: W
LayerCount: 2
Fore
SplineSet
469 697 m 0,0,1
 411 504 411 504 395 363 c 0,2,3
 374 174 374 174 417 34 c 0,4,5
 421 21 421 21 414.5 8.5 c 128,-1,6
 408 -4 408 -4 394 -8 c 128,-1,7
 380 -12 380 -12 368 -5.5 c 128,-1,8
 356 1 356 1 351 14 c 0,9,10
 310 152 310 152 323 319 c 1,11,12
 250 302 250 302 243 300 c 0,13,14
 182 285 182 285 142 267 c 0,15,16
 121 259 121 259 96 243 c 1,17,18
 93 185 93 185 94 147 c 0,19,20
 97 51 97 51 124 0 c 0,21,22
 132 -13 132 -13 127.5 -26.5 c 128,-1,23
 123 -40 123 -40 110 -47 c 0,24,25
 98 -54 98 -54 84.5 -50 c 128,-1,26
 71 -46 71 -46 64 -33 c 0,27,28
 31 29 31 29 25 144 c 0,29,30
 22 236 22 236 38 358 c 0,31,32
 48 434 48 434 64 533 c 0,33,34
 65 537 65 537 79 611 c 128,-1,35
 93 685 93 685 95 702 c 0,36,37
 97 716 97 716 108.5 724 c 128,-1,38
 120 732 120 732 133.5 730 c 128,-1,39
 147 728 147 728 155.5 716.5 c 128,-1,40
 164 705 164 705 162 690 c 0,41,42
 160 678 160 678 153 640.5 c 128,-1,43
 146 603 146 603 139.5 564.5 c 128,-1,44
 133 526 133 526 132 521 c 0,45,46
 115 424 115 424 105 349 c 2,47,-1
 102 324 l 1,48,-1
 115 330 l 2,49,50
 161 350 161 350 226 366 c 0,51,52
 255 373 255 373 330 390 c 1,53,54
 347 530 347 530 403 717 c 0,55,56
 409 730 409 730 421 736.5 c 128,-1,57
 433 743 433 743 446.5 739 c 128,-1,58
 460 735 460 735 466.5 722.5 c 128,-1,59
 473 710 473 710 469 697 c 0,0,1
EndSplineSet
EndChar

StartChar: I
Encoding: 73 73 44
AltUni2: 00ff29.ffffffff.0 002160.ffffffff.0 002111.ffffffff.0 002110.ffffffff.0 001d35.ffffffff.0 0004c0.ffffffff.0 000406.ffffffff.0 000399.ffffffff.0 00ff29.ffffffff.0 002160.ffffffff.0 002111.ffffffff.0 002110.ffffffff.0 001d35.ffffffff.0 0004c0.ffffffff.0 000406.ffffffff.0 000399.ffffffff.0
Width: 202
GlyphClass: 1
Flags: W
LayerCount: 2
Fore
SplineSet
108 -30 m 0,0,1
 97 -51 97 -51 70 -12 c 0,2,3
 41 31 41 31 66 357 c 0,4,5
 94 723 94 723 113 739 c 0,6,7
 162 781 162 781 174 713 c 0,8,9
 175 709 175 709 131 350 c 0,10,11
 122 273 122 273 122 17 c 0,12,13
 122 8 122 8 121 3 c 1,14,15
 123 3 123 3 116 -14 c 0,16,17
 110 -31 110 -31 108 -30 c 0,0,1
EndSplineSet
EndChar

StartChar: J
Encoding: 74 74 45
AltUni2: 00ff2a.ffffffff.0 001d36.ffffffff.0 0013ab.ffffffff.0 000408.ffffffff.0 00ff2a.ffffffff.0 001d36.ffffffff.0 0013ab.ffffffff.0 000408.ffffffff.0
Width: 441
GlyphClass: 1
Flags: W
LayerCount: 2
Fore
SplineSet
108 156 m 0,0,1
 134 72 134 72 183 48 c 0,2,3
 224 28 224 28 265 72 c 0,4,5
 320 133 320 133 344 279 c 0,6,7
 373 457 373 457 344 720 c 0,8,9
 343 733 343 733 351 744 c 128,-1,10
 359 755 359 755 373 758 c 0,11,12
 386 760 386 760 397 750.5 c 128,-1,13
 408 741 408 741 409 727 c 0,14,15
 439 454 439 454 408 267 c 0,16,17
 381 100 381 100 312 25 c 0,18,19
 277 -12 277 -12 236.5 -22.5 c 128,-1,20
 196 -33 196 -33 156 -14 c 0,21,22
 80 22 80 22 46 135 c 0,23,24
 42 149 42 149 48 161.5 c 128,-1,25
 54 174 54 174 67 178 c 128,-1,26
 80 182 80 182 91.5 176 c 128,-1,27
 103 170 103 170 108 156 c 0,0,1
EndSplineSet
EndChar

StartChar: K
Encoding: 75 75 46
AltUni2: 00ff2b.ffffffff.0 00212a.ffffffff.0 001d37.ffffffff.0 0013e6.ffffffff.0 00041a.ffffffff.0 00039a.ffffffff.0 00ff2b.ffffffff.0 00212a.ffffffff.0 001d37.ffffffff.0 0013e6.ffffffff.0 00041a.ffffffff.0 00039a.ffffffff.0
Width: 490
GlyphClass: 1
Flags: W
LayerCount: 2
Fore
SplineSet
209.5 719.5 m 128,-1,1
 207 705 207 705 191 610 c 0,2,3
 191 604 191 604 187 592 c 0,4,5
 185 578 185 578 184 573 c 0,6,7
 181 548 181 548 177 533 c 0,8,9
 165 460 165 460 162 446 c 1,10,11
 279 633 279 633 423 740 c 0,12,13
 433 749 433 749 447 746.5 c 128,-1,14
 461 744 461 744 470 733 c 0,15,16
 478 722 478 722 476.5 708 c 128,-1,17
 475 694 475 694 464 686 c 0,18,19
 304 565 304 565 191 359 c 1,20,21
 203 341 203 341 239 284 c 0,22,23
 240 282 240 282 243 277 c 128,-1,24
 246 272 246 272 247 270 c 0,25,26
 253 260 253 260 256 256 c 0,27,28
 304 178 304 178 332 139 c 0,29,30
 375 81 375 81 426 38 c 0,31,32
 436 29 436 29 437 15 c 128,-1,33
 438 1 438 1 430 -10 c 0,34,35
 421 -22 421 -22 407 -23 c 128,-1,36
 393 -24 393 -24 382 -15 c 0,37,38
 328 30 328 30 277 98 c 0,39,40
 243 144 243 144 197 221 c 0,41,42
 192 231 192 231 188 234 c 0,43,44
 181 247 181 247 180 248 c 0,45,46
 176 255 176 255 167.5 269 c 128,-1,47
 159 283 159 283 155 289 c 1,48,49
 153 284 153 284 148 274 c 128,-1,50
 143 264 143 264 141 258 c 0,51,52
 137 249 137 249 132 245 c 1,53,54
 121 164 121 164 116 104 c 0,55,56
 113 52 113 52 116 23 c 0,57,58
 118 11 118 11 118 10 c 0,59,60
 138 -5 138 -5 132 -28 c 0,61,62
 128 -42 128 -42 115.5 -48.5 c 128,-1,63
 103 -55 103 -55 90 -51 c 0,64,65
 68 -46 68 -46 57 -20 c 0,66,67
 50 -4 50 -4 49 16 c 0,68,69
 45 51 45 51 49 108 c 0,70,71
 55 208 55 208 80 369 c 0,72,73
 83 386 83 386 88.5 418.5 c 128,-1,74
 94 451 94 451 95 458 c 0,75,76
 99 479 99 479 110 545 c 2,77,-1
 113 560 l 2,78,79
 116 576 116 576 117 585 c 2,80,-1
 120 604 l 2,81,82
 123 614 123 614 123 622 c 0,83,84
 139 710 139 710 141 729 c 0,85,86
 143 743 143 743 154 751.5 c 128,-1,87
 165 760 165 760 180 758 c 0,88,89
 194 756 194 756 203 745 c 128,-1,0
 212 734 212 734 209.5 719.5 c 128,-1,1
EndSplineSet
EndChar

StartChar: L
Encoding: 76 76 47
AltUni2: 00ff2c.ffffffff.0 00216c.ffffffff.0 002112.ffffffff.0 001d38.ffffffff.0 0013de.ffffffff.0 00ff2c.ffffffff.0 00216c.ffffffff.0 002112.ffffffff.0 001d38.ffffffff.0 0013de.ffffffff.0
Width: 465
GlyphClass: 1
Flags: W
LayerCount: 2
Fore
SplineSet
156 713 m 0,0,1
 154 688 154 688 149 640 c 0,2,3
 139 560 139 560 136 533 c 0,4,5
 126 446 126 446 120 365 c 0,6,7
 111 216 111 216 124 130 c 0,8,9
 134 81 134 81 147 60 c 0,10,11
 158 40 158 40 176 37 c 0,12,13
 201 32 201 32 236 36 c 0,14,15
 272 40 272 40 302 46 c 0,16,17
 303 46 303 46 305.5 46.5 c 128,-1,18
 308 47 308 47 310 47 c 0,19,20
 347 54 347 54 365 56 c 0,21,22
 393 60 393 60 422 60 c 0,23,24
 436 60 436 60 445 49.5 c 128,-1,25
 454 39 454 39 454 25 c 0,26,27
 454 9 454 9 444.5 -1.5 c 128,-1,28
 435 -12 435 -12 422 -12 c 0,29,30
 384 -12 384 -12 320 -24 c 0,31,32
 317 -25 317 -25 313 -25 c 0,33,34
 261 -34 261 -34 241 -36 c 0,35,36
 197 -39 197 -39 167 -34 c 0,37,38
 121 -27 121 -27 93 20 c 0,39,40
 71 57 71 57 60 117 c 0,41,42
 44 211 44 211 55 370 c 0,43,44
 61 454 61 454 71 542 c 2,45,-1
 84 648 l 2,46,47
 91 710 91 710 91 717 c 0,48,49
 92 732 92 732 102 742 c 128,-1,50
 112 752 112 752 125 751 c 0,51,52
 139 750 139 750 148 739 c 128,-1,53
 157 728 157 728 156 713 c 0,0,1
EndSplineSet
EndChar

StartChar: M
Encoding: 77 77 48
AltUni2: 00ff2d.ffffffff.0 00216f.ffffffff.0 002133.ffffffff.0 001d39.ffffffff.0 0013b7.ffffffff.0 00041c.ffffffff.0 00039c.ffffffff.0 00ff2d.ffffffff.0 00216f.ffffffff.0 002133.ffffffff.0 001d39.ffffffff.0 0013b7.ffffffff.0 00041c.ffffffff.0 00039c.ffffffff.0
Width: 577
GlyphClass: 1
Flags: W
LayerCount: 2
Fore
SplineSet
168 714 m 2,0,1
 171 720 171 720 171 724 c 2,2,-1
 171 730 l 2,3,4
 171 733 171 733 169 742 c 0,5,6
 163 758 163 758 149 763 c 0,7,8
 144 765 144 765 137 765 c 128,-1,9
 130 765 130 765 122.5 760 c 128,-1,10
 115 755 115 755 113 752 c 0,11,12
 112 750 112 750 109 748 c 0,13,14
 104 737 104 737 103 730 c 0,15,16
 101 726 101 726 100 721 c 0,17,18
 49 580 49 580 33 487 c 0,19,20
 10 361 10 361 10 279 c 0,21,22
 10 257 10 257 12 235 c 0,23,24
 15 205 15 205 19 179.5 c 128,-1,25
 23 154 23 154 24.5 141 c 128,-1,26
 26 128 26 128 28 119 c 0,27,28
 31 110 31 110 31 105 c 0,29,30
 31 97 31 97 34 85 c 0,31,32
 37 65 37 65 48 -14 c 0,33,34
 51 -20 51 -20 53 -23 c 0,35,36
 59 -30 59 -30 67 -38 c 256,37,38
 75 -46 75 -46 82 -46 c 0,39,40
 83 -46 83 -46 84 -46 c 0,41,42
 98 -44 98 -44 106 -33 c 128,-1,43
 114 -22 114 -22 114 -9 c 0,44,45
 114 -8 114 -8 114 -7 c 0,46,47
 109 37 109 37 98 104 c 128,-1,48
 87 171 87 171 85 184.5 c 128,-1,49
 83 198 83 198 78 240 c 0,50,51
 76 262 76 262 76 281 c 0,52,53
 76 358 76 358 97 471 c 0,54,55
 105 512 105 512 126 586 c 1,56,57
 140 518 140 518 144 490 c 0,58,59
 153 390 153 390 167 317 c 0,60,61
 189 217 189 217 232 137 c 0,62,63
 241 120 241 120 260 111 c 0,64,65
 276 107 276 107 280 107 c 1,66,67
 283 107 283 107 285 107 c 0,70,71
 299 107 299 107 310 117 c 0,72,73
 318 125 318 125 321 133 c 0,74,75
 323 137 323 137 324 143 c 0,76,77
 327 154 327 154 329 165 c 0,78,79
 334 187 334 187 345 261 c 0,80,81
 360 358 360 358 372 421 c 0,82,83
 401 568 401 568 421 618 c 0,84,85
 424 626 424 626 430 644 c 1,86,-1
 430 627 l 2,87,88
 430 606 430 606 432 589 c 0,89,90
 436 523 436 523 442 491 c 1,91,-1
 442 485 442 485 443 479 c 1,94,-1
 443 475 l 1,96,-1
 444 472 l 1,97,-1
 444 471 l 2,98,99
 444 470 444 470 444 468 c 0,100,101
 445 464 445 464 449 430 c 0,102,103
 451 417 451 417 455 361 c 1,104,-1
 455 335 455 335 458 295 c 0,107,108
 462 229 462 229 462 221 c 0,109,110
 469 143 469 143 479 85 c 0,111,112
 494 10 494 10 519 -18 c 0,113,114
 529 -30 529 -30 543 -30 c 128,-1,115
 557 -30 557 -30 566 -21 c 0,116,117
 577 -11 577 -11 577 4 c 0,118,119
 577 17 577 17 569 26 c 0,120,121
 554 41 554 41 544 97 c 0,122,123
 533 154 533 154 529 227 c 1,124,-1
 529 238 529 238 525 289.5 c 128,-1,127
 521 341 521 341 521 364 c 0,128,129
 518 426 518 426 516 436 c 128,-1,130
 514 446 514 446 513 457 c 2,131,-1
 510 475 l 2,132,133
 510 479 510 479 509 482 c 2,134,-1
 509 489 l 2,135,136
 507 499 507 499 506.5 505 c 128,-1,137
 506 511 506 511 503 523 c 0,138,139
 501 535 501 535 500 554 c 0,140,141
 499 574 499 574 498 592 c 0,142,143
 496 606 496 606 496 637 c 2,144,-1
 496 645 l 2,145,146
 496 657 496 657 495 673 c 0,147,148
 495 688 495 688 490 708 c 0,149,150
 487 720 487 720 481 730 c 0,151,152
 469 746 469 746 452 746 c 0,153,154
 448 746 448 746 443 745 c 0,155,156
 411 739 411 739 388 701 c 0,157,158
 372 675 372 675 355 629 c 0,159,160
 331 561 331 561 307 433 c 0,161,162
 306 424 306 424 290 331 c 0,163,164
 287 309 287 309 276 243 c 0,165,166
 274 224 274 224 271 217 c 0,167,168
 270 212 270 212 269 210 c 1,169,170
 244 273 244 273 232 331 c 0,171,172
 219 390 219 390 209 498 c 0,173,174
 204 538 204 538 191 596 c 1,175,176
 191 598 191 598 190 601 c 0,179,180
 176 669 176 669 174.5 679 c 128,-1,181
 173 689 173 689 172 692 c 0,182,183
 172 693 172 693 171 697 c 0,184,185
 170 702 170 702 170 705 c 0,186,187
 169 706 169 706 169 707 c 0,188,189
 169 710 169 710 168 712 c 1,190,-1
 168 711 l 1,191,-1
 168 712 l 1,192,-1
 168 714 l 2,0,1
EndSplineSet
EndChar

StartChar: N
Encoding: 78 78 49
AltUni2: 00ff2e.ffffffff.0 002115.ffffffff.0 001d3a.ffffffff.0 00039d.ffffffff.0 00ff2e.ffffffff.0 002115.ffffffff.0 001d3a.ffffffff.0 00039d.ffffffff.0
Width: 535
GlyphClass: 1
Flags: W
LayerCount: 2
Fore
SplineSet
146 655 m 1,0,1
 132 633 132 633 129 566 c 0,2,3
 127 506 127 506 136 350 c 0,4,5
 138 317 138 317 144 285 c 0,6,7
 148 256 148 256 150 235 c 0,8,9
 156 195 156 195 157 184 c 0,10,11
 159 150 159 150 170 101 c 0,12,13
 179 59 179 59 183 32 c 0,14,15
 187 2 187 2 167 -24 c 0,16,17
 157 -37 157 -37 142 -39.5 c 128,-1,18
 127 -42 127 -42 114 -34 c 0,19,20
 103 -26 103 -26 94 -11 c 0,21,22
 81 12 81 12 75 34 c 0,23,24
 47 143 47 143 40 310 c 0,25,26
 37 385 37 385 37 441 c 2,27,-1
 37 443 l 2,28,29
 37 528 37 528 35 561 c 0,30,31
 34 574 34 574 43 583.5 c 128,-1,32
 52 593 52 593 65 594 c 1,33,34
 68 632 68 632 77 659 c 0,35,36
 92 705 92 705 126 724 c 0,37,38
 133 728 133 728 147 729 c 0,39,40
 165 731 165 731 179 717 c 0,41,42
 208 688 208 688 250 580 c 0,43,44
 271 526 271 526 316 379 c 0,45,46
 377 181 377 181 394 148 c 0,47,48
 418 102 418 102 430 78 c 0,49,50
 431 76 431 76 433.5 73.5 c 128,-1,51
 436 71 436 71 437 69 c 1,52,53
 445 96 445 96 449 126 c 0,54,55
 460 199 460 199 460 334 c 0,56,57
 460 446 460 446 454 560 c 0,58,59
 448 652 448 652 438 719 c 0,60,61
 436 732 436 732 443.5 743.5 c 128,-1,62
 451 755 451 755 464 757 c 0,63,64
 477 760 477 760 488.5 752.5 c 128,-1,65
 500 745 500 745 502 731 c 0,66,67
 527 607 527 607 525 334 c 0,68,69
 524 210 524 210 513 118 c 0,70,71
 507 64 507 64 497 43 c 0,72,73
 488 23 488 23 480 15 c 0,74,75
 465 -3 465 -3 444 -3 c 128,-1,76
 423 -3 423 -3 404 11 c 0,77,78
 391 21 391 21 377 40 c 0,79,80
 353 74 353 74 334 123 c 0,81,82
 325 146 325 146 294 234 c 0,83,84
 277 283 277 283 254 360 c 0,85,86
 209 506 209 506 190 557 c 0,87,88
 165 622 165 622 146 655 c 1,0,1
EndSplineSet
EndChar

StartChar: O
Encoding: 79 79 50
AltUni2: 00ff2f.ffffffff.0 001d3c.ffffffff.0 000555.ffffffff.0 00041e.ffffffff.0 00039f.ffffffff.0 00ff2f.ffffffff.0 001d3c.ffffffff.0 000555.ffffffff.0 00041e.ffffffff.0 00039f.ffffffff.0
Width: 670
GlyphClass: 1
Flags: W
LayerCount: 2
Fore
SplineSet
297 685 m 1,0,1
 287 684 287 684 277 679 c 0,2,3
 236 663 236 663 198 606 c 0,4,5
 129 501 129 501 104 386 c 0,6,7
 72 244 72 244 127 166 c 0,8,9
 185 82 185 82 246 60 c 0,10,11
 295 43 295 43 349 68 c 0,12,13
 401 93 401 93 447.5 154.5 c 128,-1,14
 494 216 494 216 525 299 c 0,15,16
 556 380 556 380 562.5 458 c 128,-1,17
 569 536 569 536 548 589 c 0,18,19
 528 641 528 641 483 660 c 0,20,21
 431 682 431 682 342 655 c 0,22,23
 328 651 328 651 315.5 658 c 128,-1,24
 303 665 303 665 298 679 c 0,25,26
 297 682 297 682 297 685 c 1,0,1
418 741 m 1,27,28
 468 742 468 742 511 726 c 0,29,30
 582 696 582 696 615 616 c 0,31,32
 640 546 640 546 633.5 457 c 128,-1,33
 627 368 627 368 592 274 c 0,34,35
 556 178 556 178 500.5 106.5 c 128,-1,36
 445 35 445 35 380 4 c 0,37,38
 301 -34 301 -34 221 -7 c 0,39,40
 139 23 139 23 67 124 c 0,41,42
 28 181 28 181 21 258 c 0,43,44
 17 323 17 323 33 401 c 0,45,46
 63 529 63 529 138 645 c 0,47,48
 188 721 188 721 251 745 c 0,49,50
 280 756 280 756 316 760 c 0,51,52
 335 762 335 762 386 762 c 0,53,54
 411 762 411 762 418 741 c 1,27,28
EndSplineSet
EndChar

StartChar: P
Encoding: 80 80 51
AltUni2: 00ff30.ffffffff.0 002119.ffffffff.0 001d3e.ffffffff.0 0013e2.ffffffff.0 000420.ffffffff.0 0003a1.ffffffff.0 00ff30.ffffffff.0 002119.ffffffff.0 001d3e.ffffffff.0 0013e2.ffffffff.0 000420.ffffffff.0 0003a1.ffffffff.0
Width: 543
GlyphClass: 1
Flags: W
LayerCount: 2
Fore
SplineSet
98 278 m 1,0,1
 100 170 100 170 106 109 c 0,2,3
 109 64 109 64 116 35 c 0,4,5
 120 20 120 20 122 14 c 2,6,-1
 125 9 l 2,7,8
 136 -2 136 -2 136 -16.5 c 128,-1,9
 136 -31 136 -31 125 -42 c 0,10,11
 115 -53 115 -53 100 -53 c 128,-1,12
 85 -53 85 -53 74 -42 c 0,13,14
 56 -24 56 -24 46 19 c 0,15,16
 40 44 40 44 34 102 c 0,17,18
 27 186 27 186 27 324 c 0,19,20
 27 520 27 520 39 694 c 0,21,22
 40 708 40 708 51.5 718 c 128,-1,23
 63 728 63 728 77 727 c 0,24,25
 86 726 86 726 95 720 c 1,26,27
 218 770 218 770 341 757 c 0,28,29
 397 750 397 750 440 729 c 0,30,31
 501 698 501 698 517 641 c 0,32,33
 548 532 548 532 464 455 c 0,34,35
 437 430 437 430 384 400 c 0,36,37
 345 381 345 381 293 361 c 0,38,39
 278 354 278 354 218 332 c 0,40,41
 151 306 151 306 125 286 c 0,42,43
 114 276 114 276 98 278 c 1,0,1
107 648 m 1,44,45
 100 526 100 526 98 354 c 1,46,47
 130 374 130 374 192 398 c 0,48,49
 198 402 198 402 230 414 c 128,-1,50
 262 426 262 426 268 428 c 0,51,52
 374 470 374 470 416 507 c 0,53,54
 468 554 468 554 448 622 c 0,55,56
 441 648 441 648 407 666 c 0,57,58
 379 680 379 680 334 685 c 0,59,60
 221 697 221 697 107 648 c 1,44,45
EndSplineSet
EndChar

StartChar: Q
Encoding: 81 81 52
AltUni2: 00ff31.ffffffff.0 00a7f4.ffffffff.0 00211a.ffffffff.0 00ff31.ffffffff.0 00a7f4.ffffffff.0 00211a.ffffffff.0
Width: 634
GlyphClass: 1
Flags: W
LayerCount: 2
Fore
SplineSet
488 59 m 1,0,-1
 501 43 l 2,1,2
 506 36 506 36 507 35 c 0,3,4
 539 -5 539 -5 561 -40 c 0,5,6
 568 -51 568 -51 565 -64.5 c 128,-1,7
 562 -78 562 -78 550 -86 c 0,8,9
 538 -93 538 -93 524 -90 c 128,-1,10
 510 -87 510 -87 503 -75 c 0,11,12
 486 -48 486 -48 454 -8 c 0,13,14
 452 -5 452 -5 447 1 c 0,15,16
 439 12 439 12 436 16 c 1,17,18
 376 -20 376 -20 306 -20 c 0,19,20
 163 -20 163 -20 82 115 c 0,21,22
 14 232 14 232 20 390 c 0,23,24
 26 553 26 553 108 653 c 0,25,26
 204 774 204 774 360 749 c 1,27,28
 481 765 481 765 550 658 c 0,29,30
 617 557 617 557 612 394 c 0,31,32
 607 233 607 233 534 117 c 0,33,34
 516 86 516 86 488 59 c 1,0,-1
418 186 m 0,35,36
 422 155 422 155 446 117 c 1,37,-1
 448 115 l 1,38,39
 468 140 468 140 477 154 c 0,40,41
 539 251 539 251 544 396 c 0,42,43
 549 536 549 536 493 620 c 0,44,45
 440 703 440 703 346 678 c 0,46,47
 328 672 328 672 315 685 c 1,48,49
 222 686 222 686 162 611 c 0,50,51
 94 526 94 526 88 387 c 0,52,53
 83 249 83 249 141 150 c 0,54,55
 203 49 203 49 306 49 c 0,56,57
 355 49 355 49 395 72 c 1,58,-1
 388 81 l 1,59,60
 358 131 358 131 351 174 c 0,61,62
 348 187 348 187 355.5 199 c 128,-1,63
 363 211 363 211 378 213 c 0,64,65
 392 216 392 216 403.5 208 c 128,-1,66
 415 200 415 200 418 186 c 0,35,36
EndSplineSet
EndChar

StartChar: R
Encoding: 82 82 53
AltUni2: 00ff32.ffffffff.0 00211d.ffffffff.0 00211c.ffffffff.0 00211b.ffffffff.0 001d3f.ffffffff.0 0013a1.ffffffff.0 00ff32.ffffffff.0 00211d.ffffffff.0 00211c.ffffffff.0 00211b.ffffffff.0 001d3f.ffffffff.0 0013a1.ffffffff.0
Width: 517
GlyphClass: 1
Flags: W
LayerCount: 2
Fore
SplineSet
122 358 m 1,0,1
 135 364 135 364 170 372 c 0,2,3
 251 388 251 388 314 438 c 0,4,5
 377 489 377 489 385 548 c 0,6,7
 394 604 394 604 371 638 c 0,8,9
 351 668 351 668 309 679 c 0,10,11
 231 701 231 701 136 660 c 1,12,13
 125 513 125 513 122 358 c 1,0,1
76 703 m 0,14,15
 135 736 135 736 202 746.5 c 128,-1,16
 269 757 269 757 326 742 c 0,17,18
 394 724 394 724 427.5 670.5 c 128,-1,19
 461 617 461 617 450 539 c 0,20,21
 438 455 438 455 355 388 c 0,22,23
 305 347 305 347 237 323 c 1,24,25
 248 316 248 316 263 304 c 0,26,27
 302 273 302 273 347 224 c 0,28,29
 363 206 363 206 400 161 c 0,30,31
 403 156 403 156 410 148 c 128,-1,32
 417 140 417 140 421 135 c 0,33,34
 422 134 422 134 426.5 128.5 c 128,-1,35
 431 123 431 123 434 119.5 c 128,-1,36
 437 116 437 116 437 115 c 0,37,38
 442 109 442 109 470 60 c 1,39,-1
 471 59 l 2,40,41
 472 58 472 58 472 57 c 0,42,43
 491 22 491 22 495 14 c 0,44,45
 499 11 499 11 503 3 c 0,46,47
 504 1 504 1 506 -7 c 0,48,49
 506 -8 506 -8 506.5 -9 c 128,-1,50
 507 -10 507 -10 507 -11 c 0,51,52
 507 -18 507 -18 506 -22 c 0,53,54
 502 -37 502 -37 487.5 -43 c 128,-1,55
 473 -49 473 -49 460 -43 c 0,56,57
 454 -39 454 -39 453 -38 c 2,58,-1
 450 -35 l 1,59,-1
 447 -32 l 2,60,61
 446 -31 446 -31 445 -29 c 128,-1,62
 444 -27 444 -27 442 -24 c 128,-1,63
 440 -21 440 -21 439 -18 c 2,64,-1
 415 26 l 1,65,-1
 413 28 l 1,66,67
 391 69 391 69 386 74 c 2,68,-1
 371 94 l 2,69,70
 352 117 352 117 350 120 c 0,71,72
 324 152 324 152 299 180 c 0,73,74
 256 226 256 226 222 253 c 0,75,76
 165 299 165 299 138 291 c 0,77,78
 128 289 128 289 121 292 c 1,79,80
 121 82 121 82 145 28 c 0,81,82
 150 16 150 16 145.5 3 c 128,-1,83
 141 -10 141 -10 128 -15 c 0,84,85
 116 -20 116 -20 103.5 -15.5 c 128,-1,86
 91 -11 91 -11 85 1 c 0,87,88
 53 75 53 75 56 337 c 0,89,90
 59 519 59 519 70 650 c 1,91,92
 66 652 66 652 63 659 c 0,93,94
 56 670 56 670 60 683 c 128,-1,95
 64 696 64 696 76 703 c 0,14,15
EndSplineSet
EndChar

StartChar: S
Encoding: 83 83 54
AltUni2: 00ff33.ffffffff.0 0013da.ffffffff.0 00054f.ffffffff.0 000405.ffffffff.0 00ff33.ffffffff.0 0013da.ffffffff.0 00054f.ffffffff.0 000405.ffffffff.0
Width: 454
GlyphClass: 1
Flags: W
LayerCount: 2
Fore
SplineSet
363 677 m 0,0,1
 326 694 326 694 304 689 c 0,2,3
 288 685 288 685 237 655 c 0,4,5
 152 600 152 600 124 561 c 0,6,7
 112 547 112 547 111 536 c 0,8,9
 109 528 109 528 112 523 c 0,10,11
 121 505 121 505 156 484 c 0,12,13
 194 463 194 463 246 442 c 1,14,-1
 247 441 l 1,15,16
 277 428 277 428 321 407 c 0,17,18
 362 386 362 386 385 365 c 0,19,20
 427 327 427 327 432 269 c 0,21,22
 439 221 439 221 419 164 c 0,23,24
 402 114 402 114 371.5 70 c 128,-1,25
 341 26 341 26 308 5 c 0,26,27
 260 -27 260 -27 172 -30 c 0,28,29
 131 -32 131 -32 98 -31 c 2,30,-1
 71 -31 l 2,31,32
 58 -31 58 -31 48 -21 c 128,-1,33
 38 -11 38 -11 38 4 c 0,34,35
 38 18 38 18 48 28 c 128,-1,36
 58 38 58 38 71 38 c 2,37,-1
 100 38 l 1,38,-1
 169 38 l 1,39,40
 241 43 241 43 271 62 c 0,41,42
 294 76 294 76 317.5 111.5 c 128,-1,43
 341 147 341 147 355 186 c 0,44,45
 368 230 368 230 365 261 c 0,46,47
 362 294 362 294 340 315 c 0,48,49
 321 330 321 330 291 346 c 0,50,51
 269 358 269 358 220 378 c 0,52,53
 219 379 219 379 218 379 c 0,54,55
 152 407 152 407 122 425 c 0,56,57
 66 458 66 458 50 495 c 0,58,59
 27 546 27 546 69 602 c 0,60,61
 104 650 104 650 201 713 c 0,62,63
 232 732 232 732 247 739 c 0,64,65
 270 752 270 752 291 756 c 0,66,67
 334 764 334 764 390 739 c 0,68,69
 403 734 403 734 408.5 720.5 c 128,-1,70
 414 707 414 707 407 694 c 0,71,72
 402 681 402 681 389 676.5 c 128,-1,73
 376 672 376 672 363 677 c 0,0,1
EndSplineSet
EndChar

StartChar: T
Encoding: 84 84 55
AltUni2: 00ff34.ffffffff.0 001d40.ffffffff.0 0013a2.ffffffff.0 000422.ffffffff.0 0003a4.ffffffff.0 00ff34.ffffffff.0 001d40.ffffffff.0 0013a2.ffffffff.0 000422.ffffffff.0 0003a4.ffffffff.0
Width: 608
GlyphClass: 1
Flags: W
LayerCount: 2
Fore
SplineSet
218.96484375 40.8896484375 m 6,0,1
 217.345703125 -9.4423828125 217.345703125 -9.4423828125 217.345703125 -9.4423828125 c 1,2,3
 208 -21 208 -21 195.478515625 -23.4013671875 c 0,4,5
 182 -26 182 -26 170.05078125 -19.603515625 c 0,6,7
 154 -11 154 -11 154.2734375 0.0966796875 c 0,8,9
 184 380 184 380 214.66796875 759.908203125 c 1,10,11
 137 745 137 745 55.55078125 719.887695312 c 0,12,13
 43 716 43 716 29.30078125 721.606445312 c 0,14,15
 17 727 17 727 12.7890625 738.23046875 c 0,16,17
 9 749 9 749 15.6787109375 762.575195312 c 0,18,19
 21 773 21 773 35.4658203125 777.356445312 c 0,20,21
 129 806 129 806 227.021484375 825.233398438 c 0,22,23
 236 827 236 827 262.579101562 831.857421875 c 0,24,25
 289 836 289 836 312.993164062 840.78515625 c 0,26,27
 338 846 338 846 365.35546875 850.385742188 c 0,28,29
 394 855 394 855 410.745117188 859.375976562 c 0,30,31
 428 864 428 864 444.266601562 866.32421875 c 0,32,33
 453 868 453 868 459.03515625 869.624023438 c 2,34,-1
 467.9140625 871.404296875 l 2,35,36
 470.091908546 872.598978609 470.091908546 872.598978609 470.815429688 872.662109375 c 2,37,-1
 472.807617188 872.8359375 l 1,38,-1
 477.702148438 874.268554688 l 1,39,-1
 482.682617188 874.704101562 l 2,40,41
 485.630157372 875.85552512 485.630157372 875.85552512 522.094726562 883.170898438 c 2,42,-1
 530.973632812 884.952148438 l 1,43,-1
 535.954101562 885.387695312 l 2,44,45
 541 886 541 886 548.169921875 883.4453125 c 0,46,47
 559 881 559 881 566.326171875 870.979492188 c 0,48,49
 578 856 578 856 568.853515625 842.08984375 c 0,50,51
 564 834 564 834 559.762695312 831.256835938 c 256,52,53
 556 829 556 829 554.956054688 828.828125 c 0,54,55
 553 825 553 825 545.342773438 823.97265625 c 0,56,57
 527 821 527 821 525.505859375 821.233398438 c 0,58,59
 513 819 513 819 497.9609375 814.807617188 c 2,60,-1
 493.9765625 814.458984375 l 1,61,-1
 488.086914062 812.940429688 l 1,62,-1
 483.10546875 812.50390625 l 2,63,64
 479 811 479 811 474.314453125 809.727539062 c 0,65,66
 471 809 471 809 466.431640625 808.034179688 c 0,67,68
 461 807 461 807 459.545898438 806.427734375 c 0,69,70
 395 792 395 792 281.798828125 772.80859375 c 1,71,-1
 218.96484375 40.8896484375 l 6,0,1
EndSplineSet
EndChar

StartChar: U
Encoding: 85 85 56
AltUni2: 00ff35.ffffffff.0 001d41.ffffffff.0 00ff35.ffffffff.0 001d41.ffffffff.0
Width: 533
GlyphClass: 1
Flags: W
LayerCount: 2
Fore
SplineSet
510 708 m 0,0,1
 505 654 505 654 491 543 c 0,2,3
 490 535 490 535 489 526.5 c 128,-1,4
 488 518 488 518 487 512.5 c 128,-1,5
 486 507 486 507 485 502 c 0,6,7
 467 352 467 352 462 251 c 0,8,9
 459 120 459 120 480 33 c 0,10,11
 484 19 484 19 476.5 6 c 128,-1,12
 469 -7 469 -7 455 -10 c 128,-1,13
 441 -13 441 -13 429 -5.5 c 128,-1,14
 417 2 417 2 414 16 c 0,15,16
 398 80 398 80 395 156 c 1,17,18
 382 129 382 129 359 95 c 0,19,20
 331 53 331 53 297 25 c 0,21,22
 246 -15 246 -15 196 -11 c 0,23,24
 139 -5 139 -5 99 37 c 0,25,26
 67 74 67 74 50 136 c 0,27,28
 23 230 23 230 34 390 c 0,29,30
 42 508 42 508 66 633 c 0,31,32
 66 640 66 640 69 655.5 c 128,-1,33
 72 671 72 671 74 679 c 2,34,-1
 81 715 l 2,35,36
 84 728 84 728 95 736.5 c 128,-1,37
 106 745 106 745 120.5 741.5 c 128,-1,38
 135 738 135 738 142.5 726.5 c 128,-1,39
 150 715 150 715 148 701 c 0,40,41
 143 675 143 675 142 667 c 0,42,43
 138 650 138 650 133 621 c 0,44,45
 110 500 110 500 102 386 c 0,46,47
 92 237 92 237 115 153 c 0,48,49
 127 109 127 109 149 84 c 0,50,51
 170 62 170 62 203 57 c 0,52,53
 225 55 225 55 251.5 76 c 128,-1,54
 278 97 278 97 302 133 c 0,55,56
 354 210 354 210 380 319 c 0,57,58
 392 364 392 364 398 419 c 0,59,60
 401 440 401 440 410 525 c 0,61,62
 418 594 418 594 424 635 c 0,63,64
 433 700 433 700 445 748 c 0,65,66
 447 762 447 762 459.5 769.5 c 128,-1,67
 472 777 472 777 485 774 c 128,-1,68
 498 771 498 771 506 759 c 128,-1,69
 514 747 514 747 511 733 c 0,70,71
 510 731 510 731 509 727.5 c 128,-1,72
 508 724 508 724 508 722 c 0,73,74
 510 715 510 715 510 708 c 0,0,1
EndSplineSet
EndChar

StartChar: V
Encoding: 86 86 57
AltUni2: 00ff36.ffffffff.0 002c7d.ffffffff.0 002164.ffffffff.0 0013d9.ffffffff.0 00ff36.ffffffff.0 002c7d.ffffffff.0 002164.ffffffff.0 0013d9.ffffffff.0
Width: 429
GlyphClass: 1
Flags: W
LayerCount: 2
Fore
SplineSet
382 777 m 0,0,1
 436 612 436 612 380 356 c 0,2,3
 321 89 321 89 199 -20 c 0,4,5
 186 -33 186 -33 165 -36 c 0,6,7
 155 -39 155 -39 144 -37 c 0,8,9
 125 -35 125 -35 115 -24 c 0,10,11
 68 21 68 21 51 143 c 0,12,13
 40 227 40 227 40 371 c 0,14,15
 40 381 40 381 39 393 c 0,16,17
 39 493 39 493 36 555 c 0,18,19
 32 633 32 633 18 679 c 0,20,21
 14 693 14 693 21 705 c 128,-1,22
 28 717 28 717 41.5 721 c 128,-1,23
 55 725 55 725 67 719 c 128,-1,24
 79 713 79 713 83 699 c 0,25,26
 98 650 98 650 104 560 c 0,27,28
 108 494 108 494 108 394 c 0,29,30
 109 382 109 382 109 371 c 0,31,32
 109 234 109 234 118 152 c 0,33,34
 131 64 131 64 156 32 c 1,35,36
 205 79 205 79 247 168.5 c 128,-1,37
 289 258 289 258 313 371 c 0,38,39
 338 482 338 482 339 585 c 128,-1,40
 340 688 340 688 317 755 c 0,41,42
 312 768 312 768 318 780.5 c 128,-1,43
 324 793 324 793 337.5 798 c 128,-1,44
 351 803 351 803 364 797 c 128,-1,45
 377 791 377 791 382 777 c 0,0,1
EndSplineSet
EndChar

StartChar: W
Encoding: 87 87 58
AltUni2: 00ff37.ffffffff.0 001d42.ffffffff.0 0013b3.ffffffff.0 00ff37.ffffffff.0 001d42.ffffffff.0 0013b3.ffffffff.0
Width: 732
GlyphClass: 1
Flags: W
LayerCount: 2
Fore
SplineSet
136 657 m 0,0,1
 136 655 136 655 132 635 c 0,2,3
 131 630 131 630 129.5 621.5 c 128,-1,4
 128 613 128 613 128 609 c 0,5,6
 118 554 118 554 117 544 c 0,7,8
 100 435 100 435 94 349 c 0,9,10
 86 220 86 220 106 139 c 0,11,12
 129 55 129 55 178 43 c 0,13,14
 208 36 208 36 232 54 c 0,15,16
 258 75 258 75 278 123 c 0,17,18
 316 213 316 213 330 368 c 0,19,20
 332 382 332 382 334 412 c 0,21,22
 334 416 334 416 333.5 425 c 128,-1,23
 333 434 333 434 333 439 c 0,24,25
 332 475 332 475 332 548 c 2,26,-1
 332 557 l 2,27,28
 332 612 332 612 337 624 c 0,29,30
 340 632 340 632 349 638 c 0,31,32
 369 651 369 651 387 636 c 0,33,34
 394 631 394 631 397 624 c 0,35,36
 399 620 399 620 399 619 c 0,37,38
 400 617 400 617 400 613.5 c 128,-1,39
 400 610 400 610 401 608 c 0,40,41
 402 605 402 605 402.5 595.5 c 128,-1,42
 403 586 403 586 403 581 c 0,43,44
 405 502 405 502 399 411 c 1,45,46
 400 352 400 352 405 300 c 0,47,48
 416 168 416 168 439 101 c 0,49,50
 451 64 451 64 467 48 c 0,51,52
 476 37 476 37 487 39 c 0,53,54
 536 47 536 47 576 163 c 0,55,56
 614 269 614 269 631 433 c 0,57,58
 646 568 646 568 641 675 c 0,59,60
 641 687 641 687 639 701 c 2,61,-1
 639 702 l 1,62,63
 626 706 626 706 620.5 718.5 c 128,-1,64
 615 731 615 731 620 744 c 0,65,66
 621 747 621 747 627 759 c 0,67,68
 635 771 635 771 647 776 c 0,69,70
 668 784 668 784 685 767 c 0,71,72
 692 760 692 760 696 750 c 0,73,74
 705 726 705 726 706 678 c 0,75,76
 711 566 711 566 696 426 c 0,77,78
 677 256 677 256 638 141 c 0,79,80
 614 75 614 75 584 33 c 0,81,82
 547 -16 547 -16 498 -25 c 0,83,84
 454 -32 454 -32 419 3 c 0,85,86
 395 29 395 29 377 80 c 0,87,88
 369 107 369 107 358 154 c 1,89,90
 349 123 349 123 338 97 c 0,91,92
 310 34 310 34 272 3 c 0,93,94
 223 -35 223 -35 163 -20 c 0,95,96
 114 -8 114 -8 84 33 c 0,97,98
 56 70 56 70 43 124 c 0,99,100
 21 211 21 211 29 353 c 0,101,102
 35 442 35 442 52 554 c 2,103,-1
 64 620 l 2,104,105
 64 625 64 625 69 647 c 0,106,107
 69 657 69 657 73 669 c 0,108,109
 75 682 75 682 86 689.5 c 128,-1,110
 97 697 97 697 110 695 c 0,111,112
 124 693 124 693 131.5 681.5 c 128,-1,113
 139 670 139 670 136 657 c 0,0,1
EndSplineSet
EndChar

StartChar: X
Encoding: 88 88 59
AltUni2: 00ff38.ffffffff.0 002169.ffffffff.0 000425.ffffffff.0 0003a7.ffffffff.0 00ff38.ffffffff.0 002169.ffffffff.0 000425.ffffffff.0 0003a7.ffffffff.0
Width: 522
GlyphClass: 1
Flags: W
LayerCount: 2
Fore
SplineSet
91 739 m 0,0,1
 108 702 108 702 150 600 c 0,2,3
 186 513 186 513 210 455 c 1,4,5
 273 548 273 548 332 625 c 256,6,7
 391 702 391 702 449 774 c 0,8,9
 457 787 457 787 471.5 788 c 128,-1,10
 486 789 486 789 497 779 c 0,11,12
 508 770 508 770 509.5 755.5 c 128,-1,13
 511 741 511 741 501 729 c 0,14,15
 499 726 499 726 475.5 696.5 c 128,-1,16
 452 667 452 667 423.5 630 c 128,-1,17
 395 593 395 593 385 580 c 0,18,19
 291 457 291 457 243 378 c 1,20,21
 294 268 294 268 335 196 c 0,22,23
 407 73 407 73 467 23 c 0,24,25
 477 14 477 14 478.5 -0.5 c 128,-1,26
 480 -15 480 -15 472 -26 c 0,27,28
 464 -38 464 -38 450 -40 c 128,-1,29
 436 -42 436 -42 425 -33 c 0,30,31
 352 28 352 28 277 158 c 0,32,33
 238 227 238 227 200 307 c 1,34,35
 113 149 113 149 78 -5 c 0,36,37
 75 -20 75 -20 63 -27.5 c 128,-1,38
 51 -35 51 -35 37.5 -32 c 128,-1,39
 24 -29 24 -29 16.5 -16 c 128,-1,40
 9 -3 9 -3 12 11 c 0,41,42
 51 179 51 179 144 347 c 0,43,44
 151 360 151 360 165 384 c 1,45,46
 163 389 163 389 158.5 399.5 c 128,-1,47
 154 410 154 410 152 416 c 0,48,49
 120 488 120 488 87 571 c 0,50,51
 38 689 38 689 29 710 c 0,52,53
 23 724 23 724 28 737.5 c 128,-1,54
 33 751 33 751 46 757 c 0,55,56
 58 763 58 763 71.5 758.5 c 128,-1,57
 85 754 85 754 91 739 c 0,0,1
EndSplineSet
EndChar

StartChar: Y
Encoding: 89 89 60
AltUni2: 00ff39.ffffffff.0 0004ae.ffffffff.0 0003d2.ffffffff.0 0003a5.ffffffff.0 00ff39.ffffffff.0 0004ae.ffffffff.0 0003d2.ffffffff.0 0003a5.ffffffff.0
Width: 541
GlyphClass: 1
Flags: W
LayerCount: 2
Fore
SplineSet
86 745 m 0,0,1
 97 733 97 733 126 673 c 0,2,3
 167 590 167 590 182 563 c 0,4,5
 229 475 229 475 267 431 c 0,6,7
 294 401 294 401 309 399 c 0,8,9
 314 399 314 399 316 401 c 0,10,11
 317 401 317 401 318 402 c 0,12,13
 327 426 327 426 385 571 c 0,14,15
 401 610 401 610 421 657 c 0,16,17
 447 721 447 721 456 739 c 0,18,19
 461 753 461 753 474 758 c 128,-1,20
 487 763 487 763 500 757 c 0,21,22
 513 752 513 752 518 738 c 128,-1,23
 523 724 523 724 518 710 c 2,24,-1
 483 629 l 2,25,26
 469 595 469 595 448 544 c 0,27,28
 440 524 440 524 421.5 478 c 128,-1,29
 403 432 403 432 394 409 c 1,30,31
 397 394 397 394 390 382 c 0,32,33
 382 369 382 369 376 362 c 0,34,35
 373 353 373 353 359 316 c 128,-1,36
 345 279 345 279 339 260 c 0,37,38
 287 104 287 104 265 -14 c 0,39,40
 261 -28 261 -28 249.5 -36.5 c 128,-1,41
 238 -45 238 -45 224 -42 c 256,42,43
 210 -39 210 -39 202 -26.5 c 128,-1,44
 194 -14 194 -14 197 1 c 0,45,46
 222 124 222 124 275 284 c 0,47,48
 278 292 278 292 283.5 307 c 128,-1,49
 289 322 289 322 291 329 c 1,50,51
 256 338 256 338 216 382 c 0,52,53
 172 433 172 433 122 527 c 0,54,55
 121 530 121 530 65 641 c 0,56,57
 42 689 42 689 33.5 700 c 128,-1,58
 25 711 25 711 26.5 726.5 c 128,-1,59
 28 742 28 742 38.5 751 c 128,-1,60
 49 760 49 760 63.5 758 c 128,-1,61
 78 756 78 756 86 745 c 0,0,1
EndSplineSet
EndChar

StartChar: Z
Encoding: 90 90 61
AltUni2: 00ff3a.ffffffff.0 002128.ffffffff.0 002124.ffffffff.0 0013c3.ffffffff.0 000396.ffffffff.0 00ff3a.ffffffff.0 002128.ffffffff.0 002124.ffffffff.0 0013c3.ffffffff.0 000396.ffffffff.0
Width: 527
GlyphClass: 1
Flags: W
LayerCount: 2
Fore
SplineSet
78 746 m 0,0,1
 83 746 83 746 99 748 c 128,-1,2
 115 750 115 750 130 751 c 0,3,4
 147 754 147 754 167 756.5 c 128,-1,5
 187 759 187 759 190 759 c 0,6,7
 248 764 248 764 294 759 c 0,8,9
 298 759 298 759 303.5 758.5 c 128,-1,10
 309 758 309 758 312 758 c 0,11,12
 370 754 370 754 409 753 c 2,13,-1
 444 753 l 1,14,-1
 461 753 l 2,15,16
 479 753 479 753 489.5 737.5 c 128,-1,17
 500 722 500 722 494 704 c 0,18,19
 486 677 486 677 450 622 c 0,20,21
 448 619 448 619 444.5 614 c 128,-1,22
 441 609 441 609 440 607 c 0,23,24
 437 603 437 603 426.5 587.5 c 128,-1,25
 416 572 416 572 405 555.5 c 128,-1,26
 394 539 394 539 393 537 c 0,27,28
 369 499 369 499 308 394 c 1,29,-1
 338 394 l 1,30,-1
 371 394 l 2,31,32
 386 394 386 394 396 383.5 c 128,-1,33
 406 373 406 373 406 359 c 128,-1,34
 406 345 406 345 396 334 c 128,-1,35
 386 323 386 323 371 323 c 2,36,-1
 340 323 l 1,37,-1
 277 323 l 1,38,-1
 266 323 l 1,39,40
 247 292 247 292 239 276 c 0,41,42
 178 172 178 172 146 114 c 0,43,44
 139 101 139 101 131.5 88 c 128,-1,45
 124 75 124 75 117.5 62 c 128,-1,46
 111 49 111 49 109 45 c 1,47,48
 118 45 118 45 123 46 c 0,49,50
 138 46 138 46 155 49 c 0,51,52
 159 49 159 49 169 51 c 2,53,-1
 173 51 l 1,54,-1
 174 53 l 1,55,-1
 175 53 l 1,56,57
 252 67 252 67 321 57 c 0,58,59
 335 56 335 56 385 45 c 0,60,61
 392 45 392 45 455 28 c 0,62,63
 469 25 469 25 476.5 13 c 128,-1,64
 484 1 484 1 481 -14 c 0,65,66
 479 -28 479 -28 467.5 -36.5 c 128,-1,67
 456 -45 456 -45 441 -41 c 0,68,69
 434 -40 434 -40 416 -36 c 128,-1,70
 398 -32 398 -32 384 -29 c 2,71,-1
 370 -26 l 2,72,73
 352 -21 352 -21 311 -14 c 0,74,75
 253 -6 253 -6 188 -18 c 1,76,-1
 186 -18 l 2,77,78
 184 -19 184 -19 181 -19 c 0,79,80
 170 -21 170 -21 164 -22 c 0,81,82
 145 -26 145 -26 125 -26 c 0,83,84
 89 -28 89 -28 70 -19 c 0,85,86
 48 -10 48 -10 38.5 9 c 128,-1,87
 29 28 29 28 36 51 c 0,88,89
 50 90 50 90 181 314 c 0,90,91
 182 316 182 316 184 320 c 128,-1,92
 186 324 186 324 187 326 c 1,93,94
 159 327 159 327 131 333 c 0,95,96
 117 334 117 334 108 345.5 c 128,-1,97
 99 357 99 357 101 372 c 256,98,99
 103 387 103 387 114 396 c 128,-1,100
 125 405 125 405 140 403 c 0,101,102
 177 398 177 398 228 395 c 1,103,104
 286 495 286 495 335 575 c 0,105,106
 337 580 337 580 358.5 611.5 c 128,-1,107
 380 643 380 643 384 648 c 0,108,109
 386 650 386 650 389 655 c 128,-1,110
 392 660 392 660 394 662 c 0,111,112
 395 664 395 664 399.5 671 c 128,-1,113
 404 678 404 678 406 681 c 1,114,115
 367 682 367 682 306 686 c 0,116,117
 303 686 303 686 297 687.5 c 128,-1,118
 291 689 291 689 288 689 c 0,119,120
 246 692 246 692 197 688 c 0,121,122
 189 688 189 688 181.5 686.5 c 128,-1,123
 174 685 174 685 161 683.5 c 128,-1,124
 148 682 148 682 138 681 c 0,125,126
 89 675 89 675 84 674 c 0,127,128
 70 673 70 673 59.5 683 c 128,-1,129
 49 693 49 693 48 707.5 c 128,-1,130
 47 722 47 722 55 733 c 128,-1,131
 63 744 63 744 78 746 c 0,0,1
EndSplineSet
EndChar

StartChar: bracketleft
Encoding: 91 91 62
AltUni2: 00ff3b.ffffffff.0 00fe47.ffffffff.0 00ff3b.ffffffff.0 00fe47.ffffffff.0
Width: 260
GlyphClass: 1
Flags: W
LayerCount: 2
Fore
SplineSet
88 723 m 0,0,1
 96 724 96 724 125 732 c 0,2,3
 131 734 131 734 141 736 c 0,4,5
 161 741 161 741 179 743 c 0,6,7
 203 746 203 746 223 739 c 0,8,9
 238 734 238 734 245 719.5 c 128,-1,10
 252 705 252 705 247 690 c 0,11,12
 242 674 242 674 227.5 667 c 128,-1,13
 213 660 213 660 198 665 c 1,14,-1
 197 665 l 2,15,16
 196 666 196 666 195 666 c 0,17,18
 190 666 190 666 186 665 c 0,19,20
 182 665 182 665 160 661 c 0,21,22
 158 661 158 661 153 659.5 c 128,-1,23
 148 658 148 658 144 657 c 0,24,25
 128 652 128 652 126 652 c 1,26,27
 126 643 126 643 124 577 c 0,28,29
 119 437 119 437 119 427 c 0,30,31
 117 371 117 371 115 271 c 0,32,33
 112 91 112 91 114 12 c 0,34,35
 116 -46 116 -46 120 -80 c 0,36,37
 121 -84 121 -84 122 -90 c 128,-1,38
 123 -96 123 -96 123.5 -100.5 c 128,-1,39
 124 -105 124 -105 125 -108 c 0,40,41
 127 -109 127 -109 132.5 -109.5 c 128,-1,42
 138 -110 138 -110 141 -110 c 2,43,-1
 156 -110 l 2,44,45
 172 -110 172 -110 188 -112 c 0,46,47
 204 -115 204 -115 213 -128.5 c 128,-1,48
 222 -142 222 -142 219 -158 c 0,49,50
 215 -174 215 -174 202 -183 c 128,-1,51
 189 -192 189 -192 173 -189 c 0,52,53
 171 -188 171 -188 154 -188 c 2,54,-1
 138 -188 l 2,55,56
 115 -186 115 -186 103 -184 c 0,57,58
 92 -181 92 -181 83 -177 c 0,59,60
 71 -172 71 -172 61 -157 c 0,61,62
 41 -125 41 -125 36 9 c 0,63,64
 34 91 34 91 37 273 c 0,65,66
 39 373 39 373 41 429 c 0,67,68
 41 439 41 439 46 579 c 0,69,70
 48 626 48 626 48 670 c 0,71,72
 47 682 47 682 55 694 c 1,73,74
 62 720 62 720 88 723 c 0,0,1
EndSplineSet
Substitution2: "'rtla' Right to Left Alternates lookup 0 subtable" bracketright
EndChar

StartChar: backslash
Encoding: 92 92 63
AltUni2: 00ff3c.ffffffff.0 00fe68.ffffffff.0 002216.ffffffff.0 00ff3c.ffffffff.0 00fe68.ffffffff.0 002216.ffffffff.0
Width: 397
GlyphClass: 1
Flags: W
LayerCount: 2
Fore
SplineSet
91 741 m 0,0,1
 92 696 92 696 109 642 c 0,2,3
 116 616 116 616 144 541 c 0,4,5
 168 476 168 476 174 460 c 0,6,7
 184 427 184 427 212 343 c 0,8,9
 214 337 214 337 215 333.5 c 128,-1,10
 216 330 216 330 217 327 c 128,-1,11
 218 324 218 324 219 322 c 0,12,13
 257 204 257 204 298 86 c 0,14,15
 341 -43 341 -43 384 -147 c 0,16,17
 390 -162 390 -162 383.5 -177 c 128,-1,18
 377 -192 377 -192 362 -198 c 128,-1,19
 347 -204 347 -204 332 -197.5 c 128,-1,20
 317 -191 317 -191 311 -176 c 0,21,22
 268 -69 268 -69 224 60 c 0,23,24
 179 190 179 190 145 298 c 0,25,26
 144 300 144 300 143 303 c 128,-1,27
 142 306 142 306 141 309.5 c 128,-1,28
 140 313 140 313 138 319 c 0,29,30
 110 403 110 403 100 435 c 0,31,32
 94 452 94 452 71 514 c 0,33,34
 44 586 44 586 34 621 c 0,35,36
 16 683 16 683 13 736 c 0,37,38
 12 753 12 753 23 764.5 c 128,-1,39
 34 776 34 776 50 777 c 128,-1,40
 66 778 66 778 77.5 767.5 c 128,-1,41
 89 757 89 757 91 741 c 0,0,1
EndSplineSet
EndChar

StartChar: bracketright
Encoding: 93 93 64
AltUni2: 00ff3d.ffffffff.0 00fe48.ffffffff.0 00ff3d.ffffffff.0 00fe48.ffffffff.0
Width: 229
GlyphClass: 1
Flags: W
LayerCount: 2
Fore
SplineSet
126 655 m 0,0,1
 123 656 123 656 116.5 658.5 c 128,-1,2
 110 661 110 661 109 661 c 0,3,4
 93 666 93 666 89 665 c 0,5,6
 87 665 87 665 85 664 c 0,7,8
 70 658 70 658 55 664 c 128,-1,9
 40 670 40 670 34 685 c 0,10,11
 27 699 27 699 33.5 714 c 128,-1,12
 40 729 40 729 54 736 c 0,13,14
 70 742 70 742 79 743 c 0,15,16
 100 745 100 745 133 735 c 0,17,18
 138 733 138 733 159 726 c 0,19,20
 177 719 177 719 190 717 c 0,21,22
 206 713 206 713 214 698.5 c 128,-1,23
 222 684 222 684 217 668 c 0,24,25
 214 658 214 658 204 649 c 1,26,27
 204 605 204 605 206 566 c 0,28,29
 206 545 206 545 208 481 c 128,-1,30
 210 417 210 417 211 416 c 0,31,32
 212 381 212 381 213.5 328.5 c 128,-1,33
 215 276 215 276 215 259 c 0,34,35
 218 77 218 77 216 -4 c 0,36,37
 212 -137 212 -137 191 -171 c 0,38,39
 183 -182 183 -182 168 -191 c 0,40,41
 161 -195 161 -195 149 -198 c 0,42,43
 134 -201 134 -201 114 -201 c 0,44,45
 112 -201 112 -201 107 -201.5 c 128,-1,46
 102 -202 102 -202 98 -202 c 2,47,-1
 79 -202 l 1,48,49
 63 -206 63 -206 49.5 -197 c 128,-1,50
 36 -188 36 -188 33 -172 c 128,-1,51
 30 -156 30 -156 39 -142.5 c 128,-1,52
 48 -129 48 -129 64 -126 c 0,53,54
 72 -124 72 -124 96 -124 c 0,55,56
 100 -124 100 -124 105 -123.5 c 128,-1,57
 110 -123 110 -123 111 -123 c 0,58,59
 123 -123 123 -123 127 -122 c 1,60,-1
 127 -121 l 2,61,62
 128 -118 128 -118 132 -93 c 0,63,64
 135 -58 135 -58 138 -2 c 0,65,66
 140 78 140 78 137 257 c 0,67,68
 137 275 137 275 135.5 327 c 128,-1,69
 134 379 134 379 133 413 c 0,70,71
 133 423 133 423 128 563 c 0,72,73
 126 608 126 608 126 655 c 0,0,1
EndSplineSet
Substitution2: "'rtla' Right to Left Alternates lookup 0 subtable" bracketleft
EndChar

StartChar: asciicircum
Encoding: 94 94 65
AltUni2: 00ff3e.ffffffff.0 002303.ffffffff.0 000302.ffffffff.0 0002c6.ffffffff.0 0002c4.ffffffff.0 00ff3e.ffffffff.0 002303.ffffffff.0 000302.ffffffff.0 0002c6.ffffffff.0 0002c4.ffffffff.0
Width: 345
GlyphClass: 1
Flags: W
LayerCount: 2
Fore
SplineSet
53 477 m 0,0,1
 54 478 54 478 56.5 482 c 128,-1,2
 59 486 59 486 62.5 491.5 c 128,-1,3
 66 497 66 497 68 499 c 0,4,5
 77 513 77 513 94 538 c 0,6,7
 97 542 97 542 101.5 548 c 128,-1,8
 106 554 106 554 107 556 c 0,9,10
 125 580 125 580 136 591 c 0,11,12
 143 598 143 598 153 604 c 0,13,14
 159 609 159 609 164 609 c 0,15,16
 173 613 173 613 181 611 c 0,17,18
 188 610 188 610 199 603 c 0,19,20
 209 595 209 595 211 593 c 0,21,22
 226 578 226 578 234 568 c 0,23,24
 258 540 258 540 270 517 c 0,25,26
 270 516 270 516 275 509 c 0,27,28
 276 507 276 507 279.5 502 c 128,-1,29
 283 497 283 497 286 494 c 0,30,31
 286 493 286 493 286 492 c 0,32,33
 288 491 288 491 290.5 487 c 128,-1,34
 293 483 293 483 295 481 c 0,35,36
 295 480 295 480 299 475 c 2,37,-1
 300 474 l 2,38,39
 300 473 300 473 300 473 c 1,40,-1
 302 471 l 2,41,42
 303 469 303 469 304 468 c 0,43,44
 304 467 304 467 305 467 c 1,45,-1
 305 466 l 1,46,-1
 307 464 l 1,47,48
 307 464 307 464 307 462 c 1,49,50
 308 462 308 462 308 460 c 0,51,52
 309 459 309 459 310 455 c 2,53,-1
 310 446 l 2,54,55
 309 443 309 443 307 439 c 0,56,57
 306 436 306 436 305 435 c 0,58,59
 302 432 302 432 302 431 c 0,60,61
 297 427 297 427 296 427 c 0,62,63
 292 425 292 425 291 425 c 0,64,65
 284 423 284 423 281 423 c 0,66,67
 277 424 277 424 275 424.5 c 128,-1,68
 273 425 273 425 272 426 c 0,69,70
 267 428 267 428 266 430 c 0,71,72
 265 430 265 430 264 431 c 2,73,-1
 262 433 l 1,74,-1
 262 434 l 1,75,-1
 260 435 l 2,76,77
 259 436 259 436 258 438 c 0,78,79
 258 439 258 439 257 440 c 128,-1,80
 256 441 256 441 256 441 c 2,81,82
 255 443 255 443 255 444 c 0,83,84
 253 446 253 446 251 448 c 0,85,86
 248 453 248 453 241 461 c 0,87,88
 241 462 241 462 241 462 c 1,89,90
 224 488 224 488 222 492 c 0,91,92
 211 511 211 511 192 533 c 0,93,94
 179 548 179 548 175 552 c 1,95,96
 168 546 168 546 150 523 c 0,97,98
 140 509 140 509 139 506 c 0,99,100
 131 495 131 495 113 469 c 0,101,102
 112 467 112 467 109 462 c 128,-1,103
 106 457 106 457 102.5 452 c 128,-1,104
 99 447 99 447 99 446 c 0,105,106
 92 436 92 436 81.5 434 c 128,-1,107
 71 432 71 432 61 438.5 c 128,-1,108
 51 445 51 445 49 456 c 128,-1,109
 47 467 47 467 53 477 c 0,0,1
EndSplineSet
EndChar

StartChar: underscore
Encoding: 95 95 66
AltUni2: 00ff3f.ffffffff.0 00fe4f.ffffffff.0 00fe4e.ffffffff.0 00fe4d.ffffffff.0 00fe34.ffffffff.0 00fe33.ffffffff.0 00ff3f.ffffffff.0 00fe4f.ffffffff.0 00fe4e.ffffffff.0 00fe4d.ffffffff.0 00fe34.ffffffff.0 00fe33.ffffffff.0
Width: 574
GlyphClass: 1
Flags: W
LayerCount: 2
Fore
SplineSet
75 -65 m 0,0,1
 137 -67 137 -67 300 -67 c 0,2,3
 452 -66 452 -66 526 -68 c 0,4,5
 542 -69 542 -69 553 -81 c 128,-1,6
 564 -93 564 -93 563 -109 c 0,7,8
 563 -125 563 -125 551 -136 c 128,-1,9
 539 -147 539 -147 523 -146 c 0,10,11
 451 -144 451 -144 301 -145 c 0,12,13
 136 -145 136 -145 72 -143 c 0,14,15
 55 -142 55 -142 44 -130 c 128,-1,16
 33 -118 33 -118 34 -102 c 128,-1,17
 35 -86 35 -86 47 -75 c 128,-1,18
 59 -64 59 -64 75 -65 c 0,0,1
EndSplineSet
EndChar

StartChar: grave
Encoding: 96 96 67
AltUni2: 00ff40.ffffffff.0 002035.ffffffff.0 002018.ffffffff.0 001fef.ffffffff.0 00060c.ffffffff.0 00ff40.ffffffff.0 002035.ffffffff.0 002018.ffffffff.0 001fef.ffffffff.0 00060c.ffffffff.0
Width: 261
GlyphClass: 1
Flags: W
LayerCount: 2
Fore
SplineSet
104 717 m 2,0,-1
 115 695 l 2,1,2
 133 656 133 656 155.5 628 c 128,-1,3
 178 600 178 600 213 580 c 0,4,5
 227 572 227 572 231 556.5 c 128,-1,6
 235 541 235 541 227 527 c 128,-1,7
 219 513 219 513 203 509 c 128,-1,8
 187 505 187 505 174 513 c 0,9,10
 95 557 95 557 52 645 c 0,11,12
 37 676 37 676 31.5 687 c 128,-1,13
 26 698 26 698 31.5 713 c 128,-1,14
 37 728 37 728 51.5 735 c 128,-1,15
 66 742 66 742 81 737 c 128,-1,16
 96 732 96 732 104 717 c 2,0,-1
EndSplineSet
EndChar

StartChar: a
Encoding: 97 97 68
AltUni2: 00ff41.ffffffff.0 002090.ffffffff.0 001d43.ffffffff.0 000430.ffffffff.0 0000aa.ffffffff.0 00ff41.ffffffff.0 002090.ffffffff.0 001d43.ffffffff.0 000430.ffffffff.0 0000aa.ffffffff.0
Width: 421
GlyphClass: 1
Flags: W
LayerCount: 2
Fore
SplineSet
319 344 m 1,0,-1
 320 345 l 2,1,2
 320 346 320 346 320.5 346 c 128,-1,3
 321 346 321 346 321 347 c 0,4,5
 329 360 329 360 344.5 361.5 c 128,-1,6
 360 363 360 363 371 352 c 0,7,8
 381 344 381 344 386 324 c 0,9,10
 389 310 389 310 388 296 c 0,11,12
 388 270 388 270 377 234 c 0,13,14
 361 175 361 175 332 125 c 1,15,16
 338 58 338 58 374 1 c 0,17,18
 375 -1 375 -1 376.5 -4 c 128,-1,19
 378 -7 378 -7 379 -8 c 0,20,21
 387 -19 387 -19 384 -32.5 c 128,-1,22
 381 -46 381 -46 370 -53 c 0,23,24
 359 -61 359 -61 345.5 -58 c 128,-1,25
 332 -55 332 -55 325 -44 c 0,26,27
 324 -43 324 -43 322 -39 c 128,-1,28
 320 -35 320 -35 319 -34 c 0,29,30
 293 9 293 9 280 51 c 1,31,32
 243 9 243 9 201 -3 c 0,33,34
 121 -26 121 -26 59 65 c 0,35,36
 25 115 25 115 43 192 c 0,37,38
 61 260 61 260 106 312 c 0,39,40
 156 371 156 371 216 380 c 0,41,42
 274 388 274 388 319 344 c 1,0,-1
288 281 m 0,43,44
 260 321 260 321 225 316 c 0,45,46
 192 311 192 311 155 270 c 0,47,48
 119 228 119 228 107 178 c 128,-1,49
 95 128 95 128 113 101 c 0,50,51
 134 71 134 71 153 62 c 0,52,53
 167 55 167 55 183 60 c 0,54,55
 220 69 220 69 259 130 c 0,56,57
 260 131 260 131 262.5 135 c 128,-1,58
 265 139 265 139 267 141 c 2,59,-1
 267 150 l 2,60,61
 267 215 267 215 289 279 c 0,62,63
 288 280 288 280 288 281 c 0,43,44
EndSplineSet
EndChar

StartChar: b
Encoding: 98 98 69
AltUni2: 00ff42.ffffffff.0 001d47.ffffffff.0 00ff42.ffffffff.0 001d47.ffffffff.0
Width: 378
GlyphClass: 1
Flags: W
LayerCount: 2
Fore
SplineSet
41 135 m 4,0,1
 40 140 40 140 40 150 c 4,2,3
 28 313 28 313 69 602 c 4,4,5
 71 616 71 616 82 623.5 c 132,-1,6
 93 631 93 631 106 629 c 4,7,8
 119 628 119 628 127 617 c 132,-1,9
 135 606 135 606 133 592 c 4,10,11
 110 446 110 446 104 333 c 5,12,13
 128 375 128 375 152 393 c 4,14,15
 177 411 177 411 203 407 c 132,-1,16
 229 403 229 403 250 379 c 4,17,18
 339 272 339 272 349 194 c 4,19,20
 357 134 357 134 341 89 c 4,21,22
 321 31 321 31 274 4 c 4,23,24
 255 -7 255 -7 164 -14 c 4,25,26
 134 -16 134 -16 122 -16 c 4,27,28
 119 -16 119 -16 114.5 -15.5 c 132,-1,29
 110 -15 110 -15 108 -15 c 4,30,31
 102 -15 102 -15 99 -14 c 4,32,33
 89 -11 89 -11 86 -7 c 4,34,35
 79 2 79 2 78 3 c 4,36,37
 76 4 76 4 74 4 c 4,38,39
 70 6 70 6 64 12 c 4,40,41
 62 14 62 14 55 27 c 4,42,43
 47 41 47 41 47 50 c 4,44,45
 46 112 46 112 41 135 c 4,0,1
195 343 m 5,46,-1
 194 343 l 5,47,-1
 192 342 l 6,48,49
 191 341 191 341 190 340 c 4,50,51
 175 329 175 329 152 285 c 4,52,53
 139 261 139 261 119 198 c 4,54,55
 106 158 106 158 106 142 c 6,56,-1
 106 141 l 6,57,58
 106 135 106 135 113 114 c 4,59,60
 114 111 114 111 116 101 c 4,61,62
 123 72 123 72 123 49 c 5,63,64
 128 50 128 50 141 50.5 c 132,-1,65
 154 51 154 51 160 51 c 4,66,67
 169 52 169 52 184 53.5 c 132,-1,68
 199 55 199 55 201 55 c 4,69,70
 212 56 212 56 216 58 c 6,71,-1
 220 60 l 5,72,73
 294 105 294 105 285 185 c 4,74,75
 272 289 272 289 201 337 c 4,76,77
 195 341 195 341 195 342 c 6,78,-1
 195 343 l 5,46,-1
EndSplineSet
EndChar

StartChar: c
Encoding: 99 99 70
AltUni2: 00ff43.ffffffff.0 00217d.ffffffff.0 001d9c.ffffffff.0 000441.ffffffff.0 00ff43.ffffffff.0 00217d.ffffffff.0 001d9c.ffffffff.0 000441.ffffffff.0
Width: 379
GlyphClass: 1
Flags: W
LayerCount: 2
Fore
SplineSet
300 329 m 4,0,1
 235 350 235 350 176 311 c 4,2,3
 120 273 120 273 104 208 c 4,4,5
 88 144 88 144 130 101 c 4,6,7
 183 46 183 46 316 46 c 4,8,9
 329 46 329 46 338.5 36.5 c 132,-1,10
 348 27 348 27 348 13 c 4,11,12
 348 0 348 0 339 -9.5 c 132,-1,13
 330 -19 330 -19 316 -19 c 4,14,15
 156 -19 156 -19 84 56 c 4,16,17
 17 123 17 123 41 223 c 4,18,19
 62 312 62 312 140 365 c 4,20,21
 227 423 227 423 321 390 c 4,22,23
 334 385 334 385 339.5 373.5 c 132,-1,24
 345 362 345 362 341 349 c 4,25,26
 336 336 336 336 324.5 330.5 c 132,-1,27
 313 325 313 325 300 329 c 4,0,1
EndSplineSet
EndChar

StartChar: d
Encoding: 100 100 71
AltUni2: 00ff44.ffffffff.0 00217e.ffffffff.0 002146.ffffffff.0 001d48.ffffffff.0 00ff44.ffffffff.0 00217e.ffffffff.0 002146.ffffffff.0 001d48.ffffffff.0
Width: 442
GlyphClass: 1
Flags: W
LayerCount: 2
Fore
SplineSet
420 549 m 0,0,1
 389 404 389 404 369 306 c 0,2,3
 367 299 367 299 333 125 c 1,4,5
 337 76 337 76 375 1 c 0,6,7
 376 -1 376 -1 377.5 -4 c 128,-1,8
 379 -7 379 -7 380 -8 c 0,9,10
 388 -19 388 -19 385 -32.5 c 128,-1,11
 382 -46 382 -46 371 -53 c 0,12,13
 360 -61 360 -61 346 -58 c 0,14,15
 338 -56 338 -56 326 -44 c 0,16,17
 325 -43 325 -43 323 -39 c 128,-1,18
 321 -35 321 -35 320 -34 c 0,19,20
 294 9 294 9 281 51 c 1,21,22
 244 9 244 9 202 -3 c 0,23,24
 122 -26 122 -26 60 65 c 0,25,26
 25 116 25 116 44 192 c 0,27,28
 60 258 60 258 107 312 c 0,29,30
 157 371 157 371 217 380 c 0,31,32
 275 388 275 388 320 344 c 1,33,-1
 321 345 l 2,34,35
 321 346 321 346 321.5 346 c 128,-1,36
 322 346 322 346 322 347 c 0,37,38
 371 620 371 620 373 622 c 0,39,40
 397 663 397 663 427 630 c 0,41,42
 433 624 433 624 420 549 c 0,0,1
289 281 m 0,43,44
 261 321 261 321 226 316 c 0,45,46
 193 311 193 311 156 270 c 0,47,48
 120 228 120 228 108 178 c 128,-1,49
 96 128 96 128 114 101 c 0,50,51
 135 71 135 71 154 62 c 0,52,53
 168 55 168 55 184 60 c 0,54,55
 221 69 221 69 260 130 c 0,56,57
 261 131 261 131 263.5 135 c 128,-1,58
 266 139 266 139 268 141 c 2,59,-1
 268 150 l 2,60,61
 268 215 268 215 290 279 c 0,62,63
 289 280 289 280 289 281 c 0,43,44
EndSplineSet
EndChar

StartChar: e
Encoding: 101 101 72
AltUni2: 00ff45.ffffffff.0 002147.ffffffff.0 00212f.ffffffff.0 002091.ffffffff.0 001d49.ffffffff.0 000435.ffffffff.0 00ff45.ffffffff.0 002147.ffffffff.0 00212f.ffffffff.0 002091.ffffffff.0 001d49.ffffffff.0 000435.ffffffff.0
Width: 343
GlyphClass: 1
Flags: W
LayerCount: 2
Fore
SplineSet
105 164 m 1,0,1
 122 108 122 108 162 76 c 0,2,3
 205 43 205 43 258 61 c 0,4,5
 271 66 271 66 283 60 c 128,-1,6
 295 54 295 54 299 41 c 0,7,8
 304 28 304 28 298 16 c 128,-1,9
 292 4 292 4 279 0 c 0,10,11
 194 -28 194 -28 123 25 c 0,12,13
 63 71 63 71 40 155 c 0,14,15
 17 238 17 238 43 311 c 0,16,17
 75 397 75 397 159 424 c 0,18,19
 235 449 235 449 274 402 c 0,20,21
 308 362 308 362 293 299 c 0,22,23
 279 241 279 241 230 201 c 0,24,25
 175 158 175 158 105 164 c 1,0,1
104 229 m 0,26,27
 154 223 154 223 189 252 c 0,28,29
 221 276 221 276 229 314 c 0,30,31
 237 346 237 346 225 360 c 0,32,33
 219 366 219 366 212 367 c 0,34,35
 198 369 198 369 179 362 c 0,36,37
 124 344 124 344 104 289 c 0,38,39
 94 263 94 263 94 229 c 1,40,41
 100 230 100 230 104 229 c 0,26,27
EndSplineSet
EndChar

StartChar: f
Encoding: 102 102 73
AltUni2: 00ff46.ffffffff.0 001da0.ffffffff.0 000584.ffffffff.0 00ff46.ffffffff.0 001da0.ffffffff.0 000584.ffffffff.0
Width: 287
GlyphClass: 1
Flags: W
LayerCount: 2
Fore
SplineSet
85 301 m 1,0,1
 87 479 87 479 138 582 c 0,2,3
 146 599 146 599 156 610 c 0,4,5
 169 625 169 625 184 629 c 0,6,7
 204 633 204 633 221 620 c 0,8,9
 229 614 229 614 238 600 c 0,10,11
 253 570 253 570 258 522 c 0,12,13
 259 509 259 509 251 498.5 c 128,-1,14
 243 488 243 488 229 486 c 0,15,16
 216 485 216 485 205.5 493 c 128,-1,17
 195 501 195 501 193 515 c 2,18,-1
 190 539 l 1,19,20
 153 455 153 455 150 307 c 1,21,22
 152 307 152 307 162 309.5 c 128,-1,23
 172 312 172 312 180 314 c 0,24,25
 185 315 185 315 212 321 c 0,26,27
 225 323 225 323 236.5 315.5 c 128,-1,28
 248 308 248 308 250 295 c 0,29,30
 253 282 253 282 245.5 270.5 c 128,-1,31
 238 259 238 259 225 257 c 0,32,33
 200 252 200 252 195 250 c 0,34,35
 184 248 184 248 171.5 245 c 128,-1,36
 159 242 159 242 153 241 c 2,37,-1
 151 241 l 1,38,39
 159 71 159 71 201 -39 c 0,40,41
 206 -52 206 -52 200.5 -64 c 128,-1,42
 195 -76 195 -76 182 -81 c 0,43,44
 170 -86 170 -86 157.5 -80.5 c 128,-1,45
 145 -75 145 -75 140 -62 c 0,46,47
 93 62 93 62 87 236 c 1,48,49
 65 238 65 238 46 242 c 0,50,51
 33 246 33 246 26 257 c 128,-1,52
 19 268 19 268 22 282 c 0,53,54
 26 295 26 295 37.5 302 c 128,-1,55
 49 309 49 309 62 305 c 0,56,57
 71 303 71 303 85 301 c 1,0,1
EndSplineSet
EndChar

StartChar: g
Encoding: 103 103 74
AltUni2: 00ff47.ffffffff.0 00210a.ffffffff.0 001d4d.ffffffff.0 00ff47.ffffffff.0 00210a.ffffffff.0 001d4d.ffffffff.0
Width: 361
GlyphClass: 1
Flags: W
LayerCount: 2
Fore
SplineSet
229 187 m 0,0,1
 228 191 228 191 226.5 200.5 c 128,-1,2
 225 210 225 210 224 215 c 0,3,4
 215 287 215 287 216 319 c 0,5,6
 215 320 215 320 213 321.5 c 128,-1,7
 211 323 211 323 210 324 c 0,8,9
 197 316 197 316 186 303 c 0,10,11
 149 268 149 268 121 216 c 0,12,13
 88 159 88 159 85 119 c 0,14,15
 82 82 82 82 106 69 c 0,16,17
 140 49 140 49 168 73 c 0,18,19
 198 99 198 99 220 161 c 0,20,21
 221 165 221 165 224 173.5 c 128,-1,22
 227 182 227 182 229 187 c 0,0,1
303 326 m 1,23,24
 312 314 312 314 307 298 c 1,25,-1
 307 273 l 2,26,27
 307 239 307 239 295 184 c 1,28,-1
 295 183 l 2,29,30
 295 168 295 168 298 162 c 0,31,32
 299 160 299 160 299 156 c 0,33,34
 299 154 299 154 300 151 c 0,35,36
 301 149 301 149 301 145.5 c 128,-1,37
 301 142 301 142 302 140 c 0,38,39
 313 98 313 98 322 -2 c 0,40,41
 335 -155 335 -155 315 -196 c 0,42,43
 309.882352941 -198.470588235 309.882352941 -198.470588235 303 -205 c 4,44,45
 190 -346 190 -346 59 -293 c 0,46,47
 -20.2662228419 -262.495795377 -20.2662228419 -262.495795377 -21 -262 c 0,48,49
 -30 -256 -30 -256 -16 -238 c 0,50,51
 -9 -229 -9 -229 5 -224 c 1,52,53
 5 -224 5 -224 76 -243 c 5,54,55
 175 -272 175 -272 256 -150 c 2,56,-1
 260 -144 l 1,57,58
 263 -129 263 -129 263 -124 c 0,59,60
 267 -79 267 -79 257 -9 c 0,61,62
 252 28 252 28 247 67 c 1,63,64
 232 43 232 43 209 23 c 0,65,66
 147 -29 147 -29 74 12 c 0,67,68
 12 47 12 47 20 125 c 0,69,70
 26 183 26 183 64 248 c 0,71,72
 94 300 94 300 140 349 c 0,73,74
 158 368 158 368 178 380 c 0,75,76
 189 387 189 387 201 390 c 0,77,78
 213 392 213 392 232 386 c 0,79,80
 238 384 238 384 240 382 c 0,81,82
 245 377 245 377 248 377 c 0,83,84
 263 378 263 378 271 374 c 0,85,86
 286 366 286 366 293 353 c 0,87,88
 297 346 297 346 303 328 c 1,89,-1
 303 326 l 1,23,24
EndSplineSet
EndChar

StartChar: h
Encoding: 104 104 75
AltUni2: 00ff48.ffffffff.0 00210e.ffffffff.0 002095.ffffffff.0 0013c2.ffffffff.0 000570.ffffffff.0 0002b0.ffffffff.0 00ff48.ffffffff.0 00210e.ffffffff.0 002095.ffffffff.0 0013c2.ffffffff.0 000570.ffffffff.0 0002b0.ffffffff.0
Width: 315
GlyphClass: 1
Flags: W
LayerCount: 2
Fore
SplineSet
148.5 710.5 m 128,-1,1
 156 700 156 700 141.5 647 c 128,-1,2
 127 594 127 594 105.5 459 c 128,-1,3
 84 324 84 324 85.5 312 c 128,-1,4
 87 300 87 300 86 298 c 1,5,6
 110 324 110 324 136.5 352.5 c 128,-1,7
 163 381 163 381 183 382 c 0,8,9
 252 385 252 385 269 330 c 128,-1,10
 286 275 286 275 280.5 185 c 128,-1,11
 275 95 275 95 273 78.5 c 128,-1,12
 271 62 271 62 269 41.5 c 128,-1,13
 267 21 267 21 265 19.5 c 128,-1,14
 263 18 263 18 260 0.5 c 128,-1,15
 257 -17 257 -17 243.5 -30.5 c 128,-1,16
 230 -44 230 -44 215 -26 c 128,-1,17
 200 -8 200 -8 204.5 10.5 c 128,-1,18
 209 29 209 29 213 55 c 0,19,20
 234 213 234 213 214 297 c 0,21,22
 213 303 213 303 211 305 c 2,23,-1
 211 306 l 1,24,-1
 201 319 l 2,25,26
 190 332 190 332 179 323 c 0,27,28
 134 288 134 288 102.5 204.5 c 128,-1,29
 71 121 71 121 92.5 66 c 128,-1,30
 114 11 114 11 105 1 c 128,-1,31
 96 -9 96 -9 88 -11 c 0,32,33
 46 -21 46 -21 32 30 c 0,34,35
 -1 147 -1 147 44 448 c 0,36,37
 48 474 48 474 65.5 547.5 c 128,-1,38
 83 621 83 621 87 648.5 c 128,-1,39
 91 676 91 676 94 693 c 0,40,41
 100 728 100 728 129 723 c 0,42,0
 141 721 141 721 148.5 710.5 c 128,-1,1
EndSplineSet
EndChar

StartChar: k
Encoding: 107 107 78
AltUni2: 00ff4b.ffffffff.0 002096.ffffffff.0 001d4f.ffffffff.0 00ff4b.ffffffff.0 002096.ffffffff.0 001d4f.ffffffff.0
Width: 364
GlyphClass: 1
Flags: W
LayerCount: 2
Fore
SplineSet
142 580 m 0,0,1
 143 533 143 533 140 458 c 0,2,3
 140 448 140 448 138.5 425.5 c 128,-1,4
 137 403 137 403 136 384 c 0,5,6
 133 351 133 351 133 339 c 0,7,8
 131 318 131 318 130 302 c 0,9,10
 127 254 127 254 126 237 c 1,11,12
 127 237 127 237 131 235 c 1,13,14
 178 328 178 328 249 397 c 0,15,16
 250 398 250 398 254 402.5 c 128,-1,17
 258 407 258 407 259 408 c 0,18,19
 269 417 269 417 275 419 c 0,20,21
 295 427 295 427 311 414 c 2,22,-1
 316 409 l 1,23,-1
 319 406 l 2,24,25
 329 396 329 396 329 383 c 128,-1,26
 329 370 329 370 319 360 c 0,27,28
 308 349 308 349 294 351 c 1,29,30
 225 282 225 282 181 189 c 1,31,32
 205 162 205 162 221 149 c 0,33,34
 237 132 237 132 262 109 c 0,35,36
 305 71 305 71 331 62 c 0,37,38
 344 58 344 58 350 46 c 128,-1,39
 356 34 356 34 351 21 c 0,40,41
 347 8 347 8 335 2 c 128,-1,42
 323 -4 323 -4 310 1 c 0,43,44
 271 14 271 14 219 61 c 0,45,46
 196 81 196 81 175 103 c 2,47,-1
 159 119 l 1,48,49
 155 95 155 95 155 91 c 0,50,51
 145 27 145 27 137 16 c 0,52,53
 134 9 134 9 127 3 c 0,54,55
 111 -8 111 -8 94 -2 c 0,56,57
 83 2 83 2 76 13 c 0,58,59
 72 18 72 18 71 24 c 0,60,61
 66 39 66 39 61 77 c 0,62,63
 57 113 57 113 59 177 c 0,64,65
 59 189 59 189 60 201 c 0,66,67
 61 216 61 216 61 231 c 0,68,69
 61 239 61 239 65 306 c 0,70,71
 66 317 66 317 67 328.5 c 128,-1,72
 68 340 68 340 68 343 c 0,73,74
 68 347 68 347 69 361 c 128,-1,75
 70 375 70 375 71 388 c 0,76,77
 72 405 72 405 73 428 c 128,-1,78
 74 451 74 451 75 462 c 0,79,80
 78 534 78 534 77 578 c 0,81,82
 76 591 76 591 85 601 c 128,-1,83
 94 611 94 611 108 612 c 0,84,85
 122 612 122 612 131.5 602.5 c 128,-1,86
 141 593 141 593 142 580 c 0,0,1
EndSplineSet
EndChar

StartChar: l
Encoding: 108 108 79
AltUni2: 00ff4c.ffffffff.0 00217c.ffffffff.0 002113.ffffffff.0 002097.ffffffff.0 0002e1.ffffffff.0 00ff4c.ffffffff.0 00217c.ffffffff.0 002113.ffffffff.0 002097.ffffffff.0 0002e1.ffffffff.0
Width: 201
GlyphClass: 1
Flags: W
LayerCount: 2
Fore
SplineSet
162 552 m 0,0,1
 154 528 154 528 144 452 c 0,2,3
 134 362 134 362 134 282 c 0,4,5
 132 182 132 182 144 125 c 0,6,7
 150 96 150 96 158 79 c 0,8,9
 159 78 159 78 160.5 76 c 128,-1,10
 162 74 162 74 163 72 c 2,11,-1
 164 71 l 2,12,13
 165 70 165 70 164 70 c 1,14,15
 177 68 177 68 184.5 56.5 c 128,-1,16
 192 45 192 45 190 32 c 0,17,18
 187 19 187 19 176 11.5 c 128,-1,19
 165 4 165 4 152 6 c 0,20,21
 120 13 120 13 101 48 c 0,22,23
 87 74 87 74 80 112 c 0,24,25
 67 175 67 175 69 283 c 0,26,27
 70 369 70 369 79.5 456 c 128,-1,28
 89 543 89 543 101 575 c 0,29,30
 105 588 105 588 117.5 593.5 c 128,-1,31
 130 599 130 599 143 594 c 0,32,33
 156 590 156 590 161.5 577.5 c 128,-1,34
 167 565 167 565 162 552 c 0,0,1
EndSplineSet
EndChar

StartChar: m
Encoding: 109 109 80
AltUni2: 00ff4d.ffffffff.0 00217f.ffffffff.0 002098.ffffffff.0 001d50.ffffffff.0 00ff4d.ffffffff.0 00217f.ffffffff.0 002098.ffffffff.0 001d50.ffffffff.0
Width: 520
GlyphClass: 1
Flags: W
LayerCount: 2
Fore
SplineSet
147 355 m 1,0,1
 139 345 139 345 131 322 c 0,2,3
 116 277 116 277 114 199 c 0,4,5
 113 140 113 140 117 67 c 0,6,7
 118 64 118 64 118.5 57.5 c 128,-1,8
 119 51 119 51 119 48 c 0,9,10
 119 46 119 46 120 38 c 2,11,-1
 120 31 l 2,12,13
 120 21 120 21 115 11 c 0,14,15
 106 -8 106 -8 87 -10 c 0,16,17
 73 -11 73 -11 63 -2 c 128,-1,18
 53 7 53 7 52 20 c 0,19,20
 49 51 49 51 48 63 c 0,21,22
 46 77 46 77 45 87 c 2,23,-1
 45 93 l 2,24,25
 44 98 44 98 44 99 c 0,26,27
 44 101 44 101 43.5 105.5 c 128,-1,28
 43 110 43 110 42 112 c 0,29,30
 35 182 35 182 34 205 c 0,31,32
 29 283 29 283 34 326 c 0,33,34
 36 340 36 340 46.5 348 c 128,-1,35
 57 356 57 356 70 355 c 2,36,-1
 73 355 l 1,37,38
 84 383 84 383 100 399 c 0,39,40
 124 426 124 426 160 429 c 0,41,42
 178 429 178 429 189 416 c 0,43,44
 191 414 191 414 197 404 c 0,45,46
 204 390 204 390 207 379 c 0,47,48
 220 345 220 345 229 303 c 0,49,50
 237 275 237 275 246 222 c 1,51,52
 267 326 267 326 290 370 c 0,53,54
 300 388 300 388 309 396 c 0,55,56
 325 412 325 412 345 413 c 0,57,58
 368 413 368 413 384 398 c 0,59,60
 396 386 396 386 407 366 c 0,61,62
 442 299 442 299 456 219 c 0,63,64
 460 191 460 191 464 147 c 0,65,66
 465 131 465 131 465 90 c 2,67,-1
 465 87 l 1,68,-1
 465 84 l 2,69,70
 465 83 465 83 466 81 c 2,71,-1
 466 79 l 1,72,-1
 466 68 l 1,73,-1
 466 22 l 1,74,-1
 461 -21 l 2,75,76
 460 -34 460 -34 449 -42.5 c 128,-1,77
 438 -51 438 -51 425 -49 c 0,78,79
 411 -47 411 -47 403 -36.5 c 128,-1,80
 395 -26 395 -26 396 -13 c 0,81,82
 396 -12 396 -12 398.5 6 c 128,-1,83
 401 24 401 24 401 27 c 2,84,-1
 401 66 l 1,85,-1
 401 78 l 1,86,-1
 400 80 l 2,87,88
 400 82 400 82 400 83 c 2,89,-1
 400 86 l 1,90,-1
 400 89 l 2,91,92
 400 129 400 129 399 144 c 0,93,94
 396 182 396 182 392 208 c 0,95,96
 379 280 379 280 349 335 c 0,97,98
 349 336 349 336 348 338 c 1,99,100
 329 303 329 303 309 203 c 0,101,102
 308 198 308 198 306 188.5 c 128,-1,103
 304 179 304 179 302.5 170 c 128,-1,104
 301 161 301 161 299 153 c 0,105,106
 297 136 297 136 295 129 c 0,107,108
 295 126 295 126 291 106 c 0,109,110
 281 50 281 50 277 39 c 0,111,112
 271 17 271 17 257 6 c 0,113,114
 249 -1 249 -1 240 -2 c 0,115,116
 225 -7 225 -7 210 5 c 0,117,118
 203 11 203 11 199 22 c 0,119,120
 197 30 197 30 197 33 c 0,121,122
 196 44 196 44 198 63 c 2,123,-1
 198 64 l 2,124,125
 199 75 199 75 199 82 c 0,126,127
 191 184 191 184 166 288 c 0,128,129
 158 324 158 324 147 355 c 1,0,1
EndSplineSet
EndChar

StartChar: n
Encoding: 110 110 81
AltUni2: 00ff4e.ffffffff.0 002099.ffffffff.0 00207f.ffffffff.0 000578.ffffffff.0 00ff4e.ffffffff.0 002099.ffffffff.0 00207f.ffffffff.0 000578.ffffffff.0
Width: 352
GlyphClass: 1
Flags: W
LayerCount: 2
Fore
SplineSet
329 47 m 0,0,1
 344 32 344 32 338 12 c 0,2,3
 333 -1 333 -1 321.5 -6.5 c 128,-1,4
 310 -12 310 -12 297 -8 c 0,5,6
 288 -6 288 -6 278 4 c 0,7,8
 274 9 274 9 271 17 c 0,9,10
 267 25 267 25 263 41 c 0,11,12
 260 57 260 57 255 100 c 0,13,14
 255 108 255 108 251 144 c 0,15,16
 251 148 251 148 249 165 c 128,-1,17
 247 182 247 182 246 190 c 0,18,19
 237 261 237 261 222 294 c 0,20,21
 208 329 208 329 189 334 c 1,22,-1
 189 333 l 1,23,24
 186 333 186 333 183 330 c 0,25,26
 171 322 171 322 161 307 c 0,27,28
 139 280 139 280 130 256 c 0,29,30
 118 223 118 223 121 176 c 0,31,32
 121 159 121 159 125 127 c 0,33,34
 126 118 126 118 127 110 c 128,-1,35
 128 102 128 102 128 99 c 0,36,37
 130 72 130 72 127 40 c 0,38,39
 125 22 125 22 124 14 c 0,40,41
 123 12 123 12 119 3 c 0,42,43
 113 -5 113 -5 107 -8 c 0,44,45
 94 -16 94 -16 78 -10 c 0,46,47
 70 -6 70 -6 63 2 c 0,48,49
 62 5 62 5 60 9 c 2,50,-1
 57 18 l 1,51,52
 40 91 40 91 42 194 c 0,53,54
 44 255 44 255 48 319 c 0,55,56
 49 320 49 320 49 324 c 2,57,-1
 49 328 l 2,58,59
 49 334 49 334 50 336 c 0,60,61
 51 350 51 350 61 359 c 128,-1,62
 71 368 71 368 84 367 c 0,63,64
 103 365 103 365 111 349 c 1,65,66
 127 370 127 370 145 383 c 0,67,68
 174 403 174 403 202 397 c 0,69,70
 232 391 232 391 253 367 c 0,71,72
 271 347 271 347 283 318 c 0,73,74
 301 271 301 271 310 199 c 0,75,76
 314 169 314 169 316 150 c 0,77,78
 320 114 320 114 320 106 c 0,79,80
 325 66 325 66 327 54 c 0,81,82
 327 51 327 51 329 47 c 0,0,1
EndSplineSet
EndChar

StartChar: o
Encoding: 111 111 82
AltUni2: 00ff4f.ffffffff.0 002134.ffffffff.0 002092.ffffffff.0 001d52.ffffffff.0 000585.ffffffff.0 00043e.ffffffff.0 0003bf.ffffffff.0 0000ba.ffffffff.0 00ff4f.ffffffff.0 002134.ffffffff.0 002092.ffffffff.0 001d52.ffffffff.0 000585.ffffffff.0 00043e.ffffffff.0 0003bf.ffffffff.0 0000ba.ffffffff.0
Width: 414
GlyphClass: 1
Flags: W
LayerCount: 2
Fore
SplineSet
181 336 m 1,0,1
 107 290 107 290 96 221 c 0,2,3
 85 155 85 155 133 99 c 0,4,5
 178 48 178 48 228 59 c 0,6,7
 254 65 254 65 274 90 c 0,8,9
 302 123 302 123 318 181 c 0,10,11
 338 251 338 251 310 285 c 0,12,13
 288 313 288 313 233 326 c 0,14,15
 229 327 229 327 194 334 c 0,16,17
 191 334 191 334 181 336 c 1,0,1
219 395 m 1,18,19
 224 395 224 395 229 394 c 128,-1,20
 234 393 234 393 240 391.5 c 128,-1,21
 246 390 246 390 249 389 c 0,22,23
 326 370 326 370 361 325 c 0,24,25
 409 265 409 265 381 163 c 0,26,27
 338 17 338 17 242 -4 c 0,28,29
 200 -14 200 -14 158.5 2.5 c 128,-1,30
 117 19 117 19 84 56 c 0,31,32
 17 135 17 135 32 231 c 0,33,34
 43 304 43 304 103 358 c 1,35,36
 102 359 102 359 100 361.5 c 128,-1,37
 98 364 98 364 97 365 c 0,38,39
 90 376 90 376 92.5 389 c 128,-1,40
 95 402 95 402 106 410 c 0,41,42
 127 424 127 424 145 408 c 1,43,-1
 146 408 l 2,44,45
 152 405 152 405 167 404 c 1,46,-1
 168 403 l 1,47,48
 169 404 169 404 172 405.5 c 128,-1,49
 175 407 175 407 177 408 c 0,50,51
 204 420 204 420 219 395 c 1,18,19
EndSplineSet
EndChar

StartChar: p
Encoding: 112 112 83
AltUni2: 00ff50.ffffffff.0 00209a.ffffffff.0 001d56.ffffffff.0 000440.ffffffff.0 0003f1.ffffffff.0 0003c1.ffffffff.0 00ff50.ffffffff.0 00209a.ffffffff.0 001d56.ffffffff.0 000440.ffffffff.0 0003f1.ffffffff.0 0003c1.ffffffff.0
Width: 399
GlyphClass: 1
Flags: W
LayerCount: 2
Fore
SplineSet
147 -50 m 1,0,1
 148 -60 148 -60 151 -80 c 0,2,3
 161 -152 161 -152 164 -168 c 0,4,5
 197 -324 197 -324 202 -388 c 0,6,7
 203 -401 203 -401 195 -411.5 c 128,-1,8
 187 -422 187 -422 173 -424 c 0,9,10
 146 -426 146 -426 139 -400 c 1,11,12
 133 -394 133 -394 131 -382 c 0,13,14
 104 -252 104 -252 93 -155 c 2,15,-1
 91 -137 l 2,16,17
 89 -119 89 -119 86.5 -97 c 128,-1,18
 84 -75 84 -75 83 -66 c 0,19,20
 81 -33 81 -33 78 -18 c 0,21,22
 72 15 72 15 72 31 c 0,23,24
 72 40 72 40 71 44 c 128,-1,25
 70 48 70 48 70 56 c 128,-1,26
 70 64 70 64 69 68 c 0,27,28
 67 86 67 86 65 124 c 0,29,30
 55 258 55 258 63 366 c 0,31,32
 64 379 64 379 74.5 388 c 128,-1,33
 85 397 85 397 99 396 c 0,34,35
 109 395 109 395 117 388 c 1,36,37
 135 406 135 406 158 415 c 0,38,39
 225 441 225 441 288 378 c 0,40,41
 341 325 341 325 361 244 c 0,42,43
 377 181 377 181 353 84 c 0,44,45
 337 21 337 21 214 -28 c 0,46,47
 209 -30 209 -30 206 -31 c 0,48,49
 205 -31 205 -31 201.5 -32.5 c 128,-1,50
 198 -34 198 -34 194 -36 c 2,51,-1
 191 -37 l 2,52,53
 179 -42 179 -42 178 -42 c 0,54,55
 157 -49 157 -49 147 -50 c 1,0,1
147 16 m 1,56,-1
 156 19 l 2,57,58
 157 19 157 19 161 20.5 c 128,-1,59
 165 22 165 22 167 23 c 0,60,61
 168 24 168 24 182 29 c 0,62,63
 185 30 185 30 190.5 32 c 128,-1,64
 196 34 196 34 198 35 c 0,65,66
 269 52 269 52 294 110 c 0,67,68
 315 160 315 160 298 228 c 0,69,70
 283 291 283 291 242 332 c 0,71,72
 209 365 209 365 181 354 c 0,73,74
 146 342 146 342 134 258 c 0,75,76
 124 193 124 193 134 74 c 2,77,-1
 137 38 l 2,78,79
 137 36 137 36 137.5 32.5 c 128,-1,80
 138 29 138 29 138 28 c 0,81,82
 144 24 144 24 147 16 c 1,56,-1
EndSplineSet
EndChar

StartChar: q
Encoding: 113 113 84
AltUni2: 00ff51.ffffffff.0 00ff51.ffffffff.0
Width: 432
GlyphClass: 1
Flags: W
LayerCount: 2
Fore
SplineSet
312 295 m 5,0,1
 274.200195312 310.299804688 274.200195312 310.299804688 252.599609375 315.700195312 c 4,2,3
 230.099609375 322 230.099609375 322 216.599609375 319.299804688 c 4,4,5
 191.400390625 313.900390625 191.400390625 313.900390625 155.400390625 251.799804688 c 4,6,7
 108.599609375 176.200195312 108.599609375 176.200195312 118.5 115 c 4,8,9
 126.599609375 68.2001953125 126.599609375 68.2001953125 162.599609375 52 c 132,-1,10
 198.599609375 35.7998046875 198.599609375 35.7998046875 237.299804688 63.7001953125 c 4,11,12
 286.799804688 98.7998046875 286.799804688 98.7998046875 309.299804688 187.900390625 c 4,13,14
 313.799804688 205.900390625 313.799804688 205.900390625 312.900390625 233.799804688 c 4,15,16
 312.900390625 241.900390625 312.900390625 241.900390625 312 250.900390625 c 4,17,18
 311.099609375 277.900390625 311.099609375 277.900390625 312 295 c 5,0,1
382.200195312 322 m 4,19,20
 371.400390625 281.5 371.400390625 281.5 371.400390625 85.2998046875 c 4,21,22
 371.400390625 -282.799804688 371.400390625 -282.799804688 383.099609375 -364.700195312 c 4,23,24
 384.900390625 -377.299804688 384.900390625 -377.299804688 377.700195312 -387.200195312 c 132,-1,25
 370.5 -397.099609375 370.5 -397.099609375 358.799804688 -398.900390625 c 132,-1,26
 347.099609375 -400.700195312 347.099609375 -400.700195312 337.200195312 -393.950195312 c 132,-1,27
 327.299804688 -387.200195312 327.299804688 -387.200195312 325.5 -375.5 c 4,28,29
 314.700195312 -317 314.700195312 -317 312.900390625 56.5 c 5,30,31
 293.099609375 31.2998046875 293.099609375 31.2998046875 271.5 16 c 4,32,33
 206.700195312 -30.7998046875 206.700195312 -30.7998046875 140.099609375 -2 c 4,34,35
 75.2998046875 25.900390625 75.2998046875 25.900390625 60.900390625 105.099609375 c 4,36,37
 46.5 186.099609375 46.5 186.099609375 105 282.400390625 c 4,38,39
 130.200195312 324.700195312 130.200195312 324.700195312 150.900390625 345.400390625 c 4,40,41
 174.299804688 369.700195312 174.299804688 369.700195312 204.900390625 376.900390625 c 4,42,43
 231 382.299804688 231 382.299804688 267.900390625 372.400390625 c 4,44,45
 284.099609375 367.900390625 284.099609375 367.900390625 323.700195312 353.5 c 5,46,-1
 324.599609375 355.299804688 l 6,47,48
 324.599609375 356.200195312 324.599609375 356.200195312 324.599609375 357.099609375 c 4,49,50
 328.200195312 368.799804688 328.200195312 368.799804688 339.450195312 373.75 c 132,-1,51
 350.700195312 378.700195312 350.700195312 378.700195312 362.400390625 374.200195312 c 4,52,53
 384.900390625 365.200195312 384.900390625 365.200195312 380.400390625 340.900390625 c 5,54,55
 384.900390625 331.900390625 384.900390625 331.900390625 382.200195312 322 c 4,19,20
EndSplineSet
EndChar

StartChar: r
Encoding: 114 114 85
AltUni2: 00ff52.ffffffff.0 001d63.ffffffff.0 0002b3.ffffffff.0 00ff52.ffffffff.0 001d63.ffffffff.0 0002b3.ffffffff.0
Width: 361
GlyphClass: 1
Flags: W
LayerCount: 2
Fore
SplineSet
113 318 m 2,0,-1
 113 312 l 2,1,2
 115 294 115 294 115 284 c 0,3,4
 118 257 118 257 122 198 c 0,5,6
 123 185 123 185 125 162 c 0,7,8
 133 46 133 46 132 15 c 0,9,10
 132 -1 132 -1 130 -7 c 0,11,12
 126 -16 126 -16 121 -21 c 0,13,14
 103 -38 103 -38 79 -25 c 0,15,16
 70 -18 70 -18 68 -12 c 0,17,18
 66 -9 66 -9 65 -6 c 0,19,20
 60 6 60 6 51 62 c 0,21,22
 42 119 42 119 45 186 c 0,23,24
 45 200 45 200 46 217 c 0,25,26
 48 291 48 291 47 310 c 2,27,-1
 47 317 l 2,28,29
 47 321 47 321 48 322 c 0,30,31
 50 338 50 338 56 356 c 0,32,33
 61 371 61 371 66 379 c 0,34,35
 78 395 78 395 90 401 c 0,36,37
 146 427 146 427 245 385 c 0,38,39
 288 366 288 366 316 339 c 0,40,41
 351 306 351 306 350 267 c 0,42,43
 350 254 350 254 340 245 c 128,-1,44
 330 236 330 236 317 236 c 256,45,46
 304 236 304 236 294.5 245 c 128,-1,47
 285 254 285 254 286 268 c 0,48,49
 286 281 286 281 267.5 297.5 c 128,-1,50
 249 314 249 314 218 329 c 0,51,52
 184 343 184 343 155 347 c 0,53,54
 134 350 134 350 122 346 c 0,55,56
 120 344 120 344 117 336 c 0,57,58
 113 325 113 325 113 318 c 2,0,-1
EndSplineSet
EndChar

StartChar: s
Encoding: 115 115 86
AltUni2: 00ff53.ffffffff.0 00209b.ffffffff.0 000455.ffffffff.0 0002e2.ffffffff.0 00017f.ffffffff.0 00ff53.ffffffff.0 00209b.ffffffff.0 000455.ffffffff.0 0002e2.ffffffff.0 00017f.ffffffff.0
Width: 360
GlyphClass: 1
Flags: W
LayerCount: 2
Fore
SplineSet
262 345 m 0,0,1
 247 345 247 345 217 347 c 0,2,3
 205 348 205 348 200 348 c 0,4,5
 194 345 194 345 168 328 c 0,6,7
 137 309 137 309 129 298 c 0,8,9
 128 297 128 297 127 293 c 0,10,11
 127 292 127 292 128 292 c 0,12,13
 132 288 132 288 136 285 c 0,14,15
 149 276 149 276 172 266 c 0,16,17
 176 264 176 264 193 257 c 2,18,-1
 210 249 l 2,19,20
 267 224 267 224 292 202 c 0,21,22
 337 165 337 165 328 113 c 0,23,24
 317 54 317 54 264 21 c 0,25,26
 224 -6 224 -6 166 -13 c 0,27,28
 113 -18 113 -18 76 0 c 0,29,30
 55 9 55 9 45 30 c 0,31,32
 34 53 34 53 47 79 c 0,33,34
 52 90 52 90 63.5 93.5 c 128,-1,35
 75 97 75 97 86 92 c 0,36,37
 96 86 96 86 100 75 c 128,-1,38
 104 64 104 64 100 54 c 1,39,-1
 101 53 l 2,40,41
 101 52 101 52 102 52 c 0,42,43
 123 41 123 41 161 46 c 0,44,45
 201 48 201 48 232 69 c 0,46,47
 264 89 264 89 271 124 c 0,48,49
 274 141 274 141 254 158 c 0,50,51
 236 174 236 174 187 196 c 0,52,53
 186 196 186 196 147 213 c 0,54,55
 116 228 116 228 102 237 c 0,56,57
 78 254 78 254 70 276 c 0,58,59
 62 305 62 305 83 333 c 0,60,61
 100 355 100 355 137 378 c 0,62,63
 138 379 138 379 145.5 383.5 c 128,-1,64
 153 388 153 388 154 389 c 0,65,66
 162 394 162 394 167 397 c 0,67,68
 180 405 180 405 194 406 c 0,69,70
 202 407 202 407 220 406 c 0,71,72
 249 404 249 404 261.5 404 c 128,-1,73
 274 404 274 404 282.5 395.5 c 128,-1,74
 291 387 291 387 291 375 c 128,-1,75
 291 363 291 363 282.5 354 c 128,-1,76
 274 345 274 345 262 345 c 0,0,1
EndSplineSet
EndChar

StartChar: t
Encoding: 116 116 87
AltUni2: 00ff54.ffffffff.0 00209c.ffffffff.0 001d57.ffffffff.0 00ff54.ffffffff.0 00209c.ffffffff.0 001d57.ffffffff.0
Width: 266
GlyphClass: 1
Flags: W
LayerCount: 2
Fore
SplineSet
216 569 m 0,0,1
 213 553 213 553 199 504 c 0,2,3
 190 472 190 472 187 463 c 0,4,5
 182 440 182 440 175 417 c 0,6,7
 175 414 175 414 173 410 c 1,8,9
 191 410 191 410 227 406 c 0,10,11
 241 404 241 404 249 393 c 128,-1,12
 257 382 257 382 255 369 c 128,-1,13
 253 356 253 356 242.5 347.5 c 128,-1,14
 232 339 232 339 218 341 c 0,15,16
 182 346 182 346 157 345 c 1,17,18
 156 337 156 337 152 321 c 128,-1,19
 148 305 148 305 147 297 c 0,20,21
 126 185 126 185 136 117 c 128,-1,22
 146 49 146 49 195 37 c 0,23,24
 208 33 208 33 215 21.5 c 128,-1,25
 222 10 222 10 218 -3 c 0,26,27
 215 -16 215 -16 203.5 -23 c 128,-1,28
 192 -30 192 -30 179 -26 c 0,29,30
 131 -14 131 -14 104 24 c 0,31,32
 80 55 80 55 72 107 c 0,33,34
 59 183 59 183 83 309 c 0,35,36
 87 329 87 329 89 340 c 1,37,38
 81 338 81 338 61 336 c 0,39,40
 48 334 48 334 37 342 c 128,-1,41
 26 350 26 350 25 363 c 0,42,43
 23 376 23 376 30.5 387 c 128,-1,44
 38 398 38 398 52 400 c 0,45,46
 64 402 64 402 83.5 404.5 c 128,-1,47
 103 407 103 407 105 407 c 0,48,49
 108 416 108 416 112 434 c 0,50,51
 113 438 113 438 117.5 454 c 128,-1,52
 122 470 122 470 125 480 c 2,53,-1
 136 521 l 2,54,55
 145 553 145 553 152 582 c 0,56,57
 155 596 155 596 166.5 603 c 128,-1,58
 178 610 178 610 191 607 c 128,-1,59
 204 604 204 604 211.5 593 c 128,-1,60
 219 582 219 582 216 569 c 0,0,1
EndSplineSet
EndChar

StartChar: u
Encoding: 117 117 88
AltUni2: 00ff55.ffffffff.0 001d64.ffffffff.0 001d58.ffffffff.0 00057d.ffffffff.0 00ff55.ffffffff.0 001d64.ffffffff.0 001d58.ffffffff.0 00057d.ffffffff.0
Width: 384
GlyphClass: 1
Flags: W
LayerCount: 2
Fore
SplineSet
116 355 m 0,0,1
 116 353 116 353 115 347 c 128,-1,2
 114 341 114 341 113 337 c 0,3,4
 111 332 111 332 110 327 c 2,5,-1
 109 323 l 2,6,7
 109 322 109 322 109 320 c 2,8,-1
 108 318 l 1,9,10
 96 263 96 263 90 225 c 0,11,12
 80 143 80 143 111 89 c 0,13,14
 115 81 115 81 127 72 c 0,15,16
 143 63 143 63 154 63 c 0,17,18
 193 62 193 62 222 113 c 0,19,20
 248 158 248 158 268 251 c 0,21,22
 268 252 268 252 269.5 259 c 128,-1,23
 271 266 271 266 272 271 c 0,24,25
 273 333 273 333 290 377 c 0,26,27
 293 386 293 386 297 388 c 0,28,29
 307 409 307 409 330 403 c 0,30,31
 342 400 342 400 348 390 c 128,-1,32
 354 380 354 380 351 368 c 0,33,34
 350 365 350 365 349 357.5 c 128,-1,35
 348 350 348 350 347 346 c 2,36,-1
 344 333 l 2,37,38
 342 320 342 320 337.5 299.5 c 128,-1,39
 333 279 333 279 331 264 c 0,40,41
 329 237 329 237 332 212 c 0,42,43
 335 145 335 145 353 34 c 0,44,45
 355 22 355 22 348 12 c 128,-1,46
 341 2 341 2 329 0.5 c 128,-1,47
 317 -1 317 -1 307 5.5 c 128,-1,48
 297 12 297 12 296 25 c 0,49,50
 291 51 291 51 283 105 c 1,51,52
 276 90 276 90 272 84 c 0,53,54
 252 46 252 46 224 27 c 0,55,56
 191 4 191 4 152 5 c 0,57,58
 125 6 125 6 98.5 22.5 c 128,-1,59
 72 39 72 39 60 62 c 0,60,61
 20 132 20 132 33 232 c 0,62,63
 36 265 36 265 52 331 c 0,64,65
 54 345 54 345 55 350 c 2,66,-1
 60 368 l 2,67,68
 62 379 62 379 72 386 c 128,-1,69
 82 393 82 393 94 390 c 0,70,71
 107 387 107 387 113 377 c 128,-1,72
 119 367 119 367 116 355 c 0,0,1
EndSplineSet
EndChar

StartChar: v
Encoding: 118 118 89
AltUni2: 00ff56.ffffffff.0 002174.ffffffff.0 001d65.ffffffff.0 001d5b.ffffffff.0 00ff56.ffffffff.0 002174.ffffffff.0 001d65.ffffffff.0 001d5b.ffffffff.0
Width: 376
GlyphClass: 1
Flags: W
LayerCount: 2
Fore
SplineSet
90 398 m 0,0,1
 106 346 106 346 122 282 c 0,2,3
 124 277 124 277 126 267 c 0,4,5
 155 154 155 154 179 98 c 2,6,-1
 186 84 l 1,7,8
 186 86 186 86 186.5 91.5 c 128,-1,9
 187 97 187 97 187 100 c 0,10,11
 188 103 188 103 188 110 c 2,12,-1
 188 114 l 2,13,14
 189 118 189 118 189 119 c 0,15,16
 192 158 192 158 196 176 c 0,17,18
 210 234 210 234 241 295 c 0,19,20
 264 340 264 340 306 403 c 0,21,22
 313 414 313 414 327 417 c 128,-1,23
 341 420 341 420 352 412 c 128,-1,24
 363 404 363 404 365 390.5 c 128,-1,25
 367 377 367 377 360 366 c 0,26,27
 281 250 281 250 259 161 c 0,28,29
 257 153 257 153 254 114 c 0,30,31
 254 113 254 113 254 109 c 2,32,-1
 253 105 l 2,33,34
 253 103 253 103 252.5 99.5 c 128,-1,35
 252 96 252 96 252 95 c 0,36,37
 248 55 248 55 246 43 c 0,38,39
 244 30 244 30 240 19 c 0,40,41
 235 3 235 3 226 -5 c 0,42,43
 209 -24 209 -24 186 -16 c 0,44,45
 171 -13 171 -13 158 3 c 0,46,47
 139 28 139 28 120 73 c 0,48,49
 104 107 104 107 88 161 c 0,50,51
 75 204 75 204 63 251 c 0,52,53
 61 261 61 261 59 266 c 0,54,55
 40 342 40 342 28 378 c 0,56,57
 24 391 24 391 30 403 c 128,-1,58
 36 415 36 415 49 419 c 128,-1,59
 62 423 62 423 74 417 c 128,-1,60
 86 411 86 411 90 398 c 0,0,1
EndSplineSet
EndChar

StartChar: w
Encoding: 119 119 90
AltUni2: 00ff57.ffffffff.0 0002b7.ffffffff.0 00ff57.ffffffff.0 0002b7.ffffffff.0
Width: 540
GlyphClass: 1
Flags: W
LayerCount: 2
Fore
SplineSet
133 336 m 0,0,1
 124 294 124 294 122 289 c 0,2,3
 111 235 111 235 107 193 c 0,4,5
 98 94 98 94 132 61 c 0,6,7
 146 50 146 50 156 48 c 0,8,9
 165 48 165 48 175 55 c 0,10,11
 202 73 202 73 228 134 c 0,12,13
 245 175 245 175 254 221 c 0,14,15
 254 224 254 224 253.5 228 c 128,-1,16
 253 232 253 232 253 233 c 0,17,18
 253 236 253 236 252 243 c 128,-1,19
 251 250 251 250 250 258 c 0,20,21
 247 285 247 285 246 296 c 0,22,23
 243 323 243 323 245 349 c 0,24,25
 245 358 245 358 251 372 c 0,26,27
 254 381 254 381 261 388 c 0,28,29
 275 400 275 400 291.5 396 c 128,-1,30
 308 392 308 392 315 375 c 0,31,32
 334 330 334 330 325 251 c 0,33,34
 324 245 324 245 322.5 233.5 c 128,-1,35
 321 222 321 222 320 217 c 2,36,-1
 320 216 l 1,37,-1
 320 208 l 1,38,-1
 321 205 l 1,39,-1
 321 201 l 2,40,41
 321 197 321 197 321.5 192 c 128,-1,42
 322 187 322 187 322 185 c 0,43,44
 323 172 323 172 325 152 c 0,45,46
 333 96 333 96 345 76 c 0,47,48
 355 60 355 60 372 65 c 0,49,50
 404 75 404 75 424 116 c 0,51,52
 442 158 442 158 445 224 c 0,53,54
 448 352 448 352 409 447 c 0,55,56
 404 459 404 459 408.5 471.5 c 128,-1,57
 413 484 413 484 426 489 c 0,58,59
 438 494 438 494 451 489 c 128,-1,60
 464 484 464 484 469 472 c 0,61,62
 489 425 489 425 500.5 355 c 128,-1,63
 512 285 512 285 510 222 c 0,64,65
 507 144 507 144 483 89 c 0,66,67
 451 20 451 20 390 3 c 0,68,69
 325 -17 325 -17 289 43 c 0,70,71
 280 57 280 57 274 78 c 1,72,73
 249 27 249 27 213 1 c 0,74,75
 149 -42 149 -42 88 13 c 0,76,77
 54 44 54 44 45 100 c 0,78,79
 37 138 37 138 42 199 c 0,80,81
 46 243 46 243 59 303 c 0,82,83
 60 310 60 310 61.5 316.5 c 128,-1,84
 63 323 63 323 65.5 333 c 128,-1,85
 68 343 68 343 70 351 c 0,86,87
 73 364 73 364 84.5 371 c 128,-1,88
 96 378 96 378 109 375 c 128,-1,89
 122 372 122 372 129.5 360.5 c 128,-1,90
 137 349 137 349 133 336 c 0,0,1
EndSplineSet
EndChar

StartChar: x
Encoding: 120 120 91
AltUni2: 00ff58.ffffffff.0 002179.ffffffff.0 002093.ffffffff.0 001d61.ffffffff.0 000445.ffffffff.0 0003c7.ffffffff.0 0002e3.ffffffff.0 00ff58.ffffffff.0 002179.ffffffff.0 002093.ffffffff.0 001d61.ffffffff.0 000445.ffffffff.0 0003c7.ffffffff.0 0002e3.ffffffff.0
Width: 376
GlyphClass: 1
Flags: W
LayerCount: 2
Fore
SplineSet
124 184 m 1,0,1
 82 258 82 258 47 340 c 0,2,3
 42 352 42 352 47 364.5 c 128,-1,4
 52 377 52 377 65 382 c 0,5,6
 77 387 77 387 89.5 382 c 128,-1,7
 102 377 102 377 107 365 c 0,8,9
 132 304 132 304 165 244 c 1,10,11
 189 279 189 279 218 315 c 0,12,13
 226 325 226 325 234 332 c 2,14,-1
 236 334 l 2,15,16
 238 337 238 337 240 338 c 2,17,-1
 246 344 l 2,18,19
 263 360 263 360 270 372 c 0,20,21
 275 384 275 384 288 389 c 128,-1,22
 301 394 301 394 313 388 c 0,23,24
 325 383 325 383 329.5 370.5 c 128,-1,25
 334 358 334 358 329 345 c 0,26,27
 322 331 322 331 311 317 c 2,28,-1
 291 297 l 1,29,-1
 285 291 l 2,30,31
 284 290 284 290 282 288 c 128,-1,32
 280 286 280 286 279 286 c 0,33,34
 277 284 277 284 273.5 280 c 128,-1,35
 270 276 270 276 269 275 c 0,36,37
 233 228 233 228 202 183 c 1,38,-1
 203 182 l 1,39,40
 262 92 262 92 329 53 c 0,41,42
 341 47 341 47 344.5 34 c 128,-1,43
 348 21 348 21 342 9 c 0,44,45
 335 -2 335 -2 322 -6 c 128,-1,46
 309 -10 309 -10 297 -3 c 0,47,48
 227 36 227 36 163 125 c 1,49,50
 138 86 138 86 93 9 c 0,51,52
 86 -3 86 -3 73 -6.5 c 128,-1,53
 60 -10 60 -10 48 -3 c 0,54,55
 37 4 37 4 33 17 c 128,-1,56
 29 30 29 30 36 41 c 0,57,58
 80 117 80 117 124 184 c 1,0,1
EndSplineSet
EndChar

StartChar: y
Encoding: 121 121 92
AltUni2: 00ff59.ffffffff.0 000443.ffffffff.0 0002b8.ffffffff.0 00ff59.ffffffff.0 000443.ffffffff.0 0002b8.ffffffff.0
Width: 343
GlyphClass: 1
Flags: W
LayerCount: 2
Fore
SplineSet
312 337 m 0,0,1
 307 325 307 325 297 224 c 0,2,3
 288 137 288 137 285 16 c 0,4,5
 282 -160 282 -160 284 -185 c 0,6,7
 290 -247 290 -247 290 -253 c 0,8,9
 290 -336 290 -336 293 -341 c 0,10,11
 301 -353 301 -353 301 -362 c 0,12,13
 301 -376 301 -376 291 -385 c 0,14,15
 281 -395 281 -395 268 -395 c 128,-1,16
 255 -395 255 -395 245 -385 c 0,17,18
 236 -376 236 -376 231 -359 c 0,19,20
 226 -341 226 -341 225 -332 c 0,21,22
 222 -318 222 -318 220 -188 c 0,23,24
 219 -122 219 -122 220 18 c 0,25,26
 220 32 220 32 221 39 c 1,27,28
 203 21 203 21 192 17 c 0,29,30
 189 16 189 16 184.5 14 c 128,-1,31
 180 12 180 12 178 11 c 2,32,-1
 168 7 l 1,33,-1
 166 7 l 1,34,35
 101 -21 101 -21 60 36 c 0,36,37
 36 69 36 69 23 144 c 0,38,39
 16 184 16 184 16 263 c 0,40,41
 16 315 16 315 21 347 c 0,42,43
 23 360 23 360 34 368 c 128,-1,44
 45 376 45 376 58 374 c 128,-1,45
 71 372 71 372 79 361 c 128,-1,46
 87 350 87 350 85 337 c 0,47,48
 83 322 83 322 81 262 c 128,-1,49
 79 202 79 202 87 154 c 0,50,51
 96 96 96 96 112 75 c 0,52,53
 118 67 118 67 142 67 c 0,54,55
 144 67 144 67 145 68 c 0,56,57
 152 70 152 70 154 71 c 0,58,59
 157 73 157 73 161 75 c 0,60,61
 169 79 169 79 176 86 c 0,62,63
 195 105 195 105 208 157 c 0,64,65
 232 252 232 252 232 355 c 0,66,67
 232 368 232 368 241.5 377.5 c 128,-1,68
 251 387 251 387 265 386 c 0,69,70
 274 386 274 386 281 381 c 1,71,72
 289 381 289 381 293 379 c 0,73,74
 306 375 306 375 311.5 362.5 c 128,-1,75
 317 350 317 350 312 337 c 0,0,1
EndSplineSet
EndChar

StartChar: z
Encoding: 122 122 93
AltUni2: 00ff5a.ffffffff.0 001dbb.ffffffff.0 00ff5a.ffffffff.0 001dbb.ffffffff.0
Width: 412
GlyphClass: 1
Flags: W
LayerCount: 2
Fore
SplineSet
68 416 m 0,0,1
 88 414 88 414 125 412 c 128,-1,2
 162 410 162 410 178 409 c 0,3,4
 243 406 243 406 261 404 c 0,5,6
 303 401 303 401 321 396 c 0,7,8
 337 391 337 391 345 386 c 0,9,10
 359 377 359 377 366 364 c 128,-1,11
 373 351 373 351 371 333 c 0,12,13
 370 321 370 321 362 307 c 0,14,15
 352 289 352 289 325 256 c 0,16,17
 310 240 310 240 289 217 c 1,18,19
 296 218 296 218 311.5 220 c 128,-1,20
 327 222 327 222 333 223 c 0,21,22
 346 225 346 225 357.5 217.5 c 128,-1,23
 369 210 369 210 371 197 c 0,24,25
 373 183 373 183 365 172 c 128,-1,26
 357 161 357 161 344 159 c 0,27,28
 275 148 275 148 221 145 c 2,29,-1
 220 145 l 1,30,31
 210 135 210 135 197.5 122.5 c 128,-1,32
 185 110 185 110 178 102.5 c 128,-1,33
 171 95 171 95 170 94 c 2,34,-1
 169 93 l 2,35,36
 167 91 167 91 166 89 c 0,37,38
 164 87 164 87 160.5 82.5 c 128,-1,39
 157 78 157 78 155 76 c 0,40,41
 137 50 137 50 130 39 c 0,42,43
 126 33 126 33 125 30 c 1,44,45
 163 32 163 32 190 35 c 2,46,-1
 228 38 l 2,47,48
 248 41 248 41 268 39 c 0,49,50
 316 36 316 36 359 13 c 0,51,52
 370 7 370 7 374 -6 c 128,-1,53
 378 -19 378 -19 372 -31 c 0,54,55
 365 -43 365 -43 352.5 -46.5 c 128,-1,56
 340 -50 340 -50 328 -44 c 0,57,58
 298 -27 298 -27 264 -26 c 0,59,60
 247 -25 247 -25 197 -30 c 0,61,62
 135 -37 135 -37 89 -33 c 0,63,64
 62 -31 62 -31 53 -7 c 0,65,66
 48 8 48 8 52 26 c 0,67,68
 59 49 59 49 75 73 c 0,69,70
 105 121 105 121 123 139 c 0,71,72
 128 144 128 144 133 150 c 1,73,74
 114 152 114 152 95 156 c 0,75,76
 82 158 82 158 74.5 169.5 c 128,-1,77
 67 181 67 181 70 194 c 0,78,79
 72 207 72 207 83.5 214.5 c 128,-1,80
 95 222 95 222 108 219 c 0,81,82
 152 211 152 211 192 210 c 1,83,84
 210 228 210 228 214 233 c 0,85,86
 258 279 258 279 275 298 c 0,87,88
 293 319 293 319 302 333 c 1,89,90
 287 338 287 338 256 339 c 0,91,92
 237 341 237 341 174 344 c 0,93,94
 112 348 112 348 62 351 c 0,95,96
 49 353 49 353 40.5 363 c 128,-1,97
 32 373 32 373 33 386 c 0,98,99
 34 400 34 400 44.5 408.5 c 128,-1,100
 55 417 55 417 68 416 c 0,0,1
EndSplineSet
EndChar

StartChar: braceleft
Encoding: 123 123 94
AltUni2: 00ff5b.ffffffff.0 00fe5b.ffffffff.0 00fe37.ffffffff.0 00ff5b.ffffffff.0 00fe5b.ffffffff.0 00fe37.ffffffff.0
Width: 357
GlyphClass: 1
Flags: W
LayerCount: 2
Fore
SplineSet
305 700 m 0,0,1
 261 701 261 701 241 660 c 0,2,3
 222 620 222 620 213 529 c 0,4,5
 213 526 213 526 212 520 c 128,-1,6
 211 514 211 514 210.5 506 c 128,-1,7
 210 498 210 498 209 486 c 0,8,9
 205 438 205 438 201 412 c 0,10,11
 194 370 194 370 184 346 c 128,-1,12
 174 322 174 322 154 302 c 0,13,14
 144 291 144 291 121 274 c 2,15,-1
 116 270 l 1,16,-1
 110 266 l 2,17,18
 107 263 107 263 105 262 c 1,19,20
 172 206 172 206 204 121 c 0,21,22
 210 105 210 105 215 67 c 0,23,24
 217 51 217 51 220 3 c 0,25,26
 222 -21 222 -21 224 -54 c 0,27,28
 233 -146 233 -146 250 -179 c 0,29,30
 258 -196 258 -196 269 -202 c 0,31,32
 281 -207 281 -207 298 -203 c 0,33,34
 314 -199 314 -199 327.5 -207 c 128,-1,35
 341 -215 341 -215 345 -231 c 128,-1,36
 349 -247 349 -247 341 -260.5 c 128,-1,37
 333 -274 333 -274 317 -278 c 0,38,39
 224 -302 224 -302 180 -214 c 0,40,41
 156 -163 156 -163 147 -60 c 0,42,43
 145 -47 145 -47 143 -2 c 0,44,45
 138 76 138 76 130 95 c 0,46,47
 117 132 117 132 89.5 166.5 c 128,-1,48
 62 201 62 201 34 217 c 0,49,50
 20 227 20 227 15 242 c 0,51,52
 11 252 11 252 13 264 c 0,53,54
 16 275 16 275 22 286 c 128,-1,55
 28 297 28 297 41 310 c 0,56,57
 52 320 52 320 63 328 c 0,58,59
 64 329 64 329 66 330.5 c 128,-1,60
 68 332 68 332 69 332 c 2,61,-1
 72 334 l 2,62,63
 74 336 74 336 75 337 c 0,64,65
 105 359 105 359 112 377 c 0,66,67
 120 394 120 394 124 424 c 0,68,69
 128 455 128 455 131 493 c 0,70,71
 132 510 132 510 133.5 522.5 c 128,-1,72
 135 535 135 535 135 537 c 0,73,74
 138 571 138 571 146 618 c 0,75,76
 155 662 155 662 171 694 c 0,77,78
 213 781 213 781 308 778 c 0,79,80
 324 777 324 777 335 765 c 128,-1,81
 346 753 346 753 345 737 c 128,-1,82
 344 721 344 721 332.5 710 c 128,-1,83
 321 699 321 699 305 700 c 0,0,1
EndSplineSet
Substitution2: "'rtla' Right to Left Alternates lookup 0 subtable" braceright
EndChar

StartChar: bar
Encoding: 124 124 95
AltUni2: 00ffe8.ffffffff.0 00ff5c.ffffffff.0 002758.ffffffff.0 002502.ffffffff.0 002223.ffffffff.0 0001c0.ffffffff.0 00ffe8.ffffffff.0 00ff5c.ffffffff.0 002758.ffffffff.0 002502.ffffffff.0 002223.ffffffff.0 0001c0.ffffffff.0
Width: 173
GlyphClass: 1
Flags: W
LayerCount: 2
Fore
SplineSet
78 738 m 0,0,1
 78 741 78 741 79 742 c 0,2,3
 81 749 81 749 82 750 c 2,4,-1
 82 757 l 2,5,6
 82 773 82 773 93.5 784 c 128,-1,7
 105 795 105 795 121 795 c 0,8,9
 138 795 138 795 149 783.5 c 128,-1,10
 160 772 160 772 160 756 c 0,11,12
 160 724 160 724 161 602 c 0,13,14
 163 460 163 460 163 431 c 0,15,16
 163 318 163 318 160 237 c 0,17,18
 160 233 160 233 155 153 c 0,19,20
 153 132 153 132 152 122 c 0,21,22
 145 27 145 27 144 -15 c 0,23,24
 142 -91 142 -91 152 -146 c 0,25,26
 154 -162 154 -162 145 -175 c 128,-1,27
 136 -188 136 -188 120 -191 c 0,28,29
 104 -193 104 -193 91 -184 c 128,-1,30
 78 -175 78 -175 75 -159 c 0,31,32
 65 -92 65 -92 66 -14 c 0,33,34
 67 29 67 29 74 129 c 0,35,36
 75 138 75 138 76 147.5 c 128,-1,37
 77 157 77 157 77 159 c 0,38,39
 78 167 78 167 79.5 196.5 c 128,-1,40
 81 226 81 226 82 240 c 0,41,42
 85 319 85 319 85 431 c 0,43,44
 85 461 85 461 83 601 c 0,45,46
 83 628 83 628 82.5 660 c 128,-1,47
 82 692 82 692 82 699 c 2,48,-1
 82 700 l 2,49,50
 81 702 81 702 81 703 c 2,51,-1
 80 704 l 2,52,53
 80 706 80 706 80 707 c 0,54,55
 80 711 80 711 79 717 c 2,56,-1
 79 718 l 1,57,58
 75 729 75 729 78 738 c 0,0,1
EndSplineSet
EndChar

StartChar: braceright
Encoding: 125 125 96
AltUni2: 00ff5d.ffffffff.0 00fe5c.ffffffff.0 00fe38.ffffffff.0 00ff5d.ffffffff.0 00fe5c.ffffffff.0 00fe38.ffffffff.0
Width: 381
GlyphClass: 1
Flags: W
LayerCount: 2
Fore
SplineSet
72 764 m 0,0,1
 166 768 166 768 211 681 c 0,2,3
 226 647 226 647 235 604 c 0,4,5
 239 584 239 584 247 523 c 0,6,7
 250 493 250 493 251 479 c 0,8,9
 256 422 256 422 258 410 c 0,10,11
 262 381 262 381 269 364 c 0,12,13
 278 344 278 344 307 323 c 0,14,15
 311 319 311 319 313 319 c 0,16,17
 318 316 318 316 319 314 c 0,18,19
 328 308 328 308 342 296 c 0,20,21
 355 283 355 283 361 272 c 128,-1,22
 367 261 367 261 370 250 c 0,23,24
 372 238 372 238 368 228 c 0,25,26
 363 212 363 212 349 204 c 0,27,28
 321 188 321 188 293 153 c 128,-1,29
 265 118 265 118 251 81 c 0,30,31
 244 61 244 61 239 -16 c 0,32,33
 237 -39 237 -39 235 -74 c 0,34,35
 226 -175 226 -175 201 -227 c 0,36,37
 156 -315 156 -315 63 -292 c 0,38,39
 47 -288 47 -288 39 -274.5 c 128,-1,40
 31 -261 31 -261 35 -245 c 128,-1,41
 39 -229 39 -229 52.5 -220.5 c 128,-1,42
 66 -212 66 -212 82 -216 c 0,43,44
 101 -221 101 -221 112 -215 c 0,45,46
 122 -211 122 -211 131 -192 c 0,47,48
 150 -156 150 -156 157 -67 c 2,49,-1
 158 -50 l 2,50,51
 160 -33 160 -33 161 -10 c 0,52,53
 163 22 163 22 167 53 c 0,54,55
 170 83 170 83 178 108 c 0,56,57
 210 192 210 192 277 248 c 1,58,-1
 273 252 l 2,59,60
 269 254 269 254 267 256 c 0,61,62
 266 257 266 257 264 258.5 c 128,-1,63
 262 260 262 260 261 260 c 0,64,65
 242 274 242 274 228 288 c 0,66,67
 208 308 208 308 198 333 c 0,68,69
 187 355 187 355 181 399 c 0,70,71
 177 424 177 424 173 473 c 0,72,73
 171 488 171 488 169 516 c 0,74,75
 160 608 160 608 141 646 c 0,76,77
 119 689 119 689 75 686 c 0,78,79
 59 685 59 685 47.5 696.5 c 128,-1,80
 36 708 36 708 35 724 c 128,-1,81
 34 740 34 740 45 751.5 c 128,-1,82
 56 763 56 763 72 764 c 0,0,1
EndSplineSet
Substitution2: "'rtla' Right to Left Alternates lookup 0 subtable" braceleft
EndChar

StartChar: asciitilde
Encoding: 126 126 97
AltUni2: 00ff5e.ffffffff.0 00223c.ffffffff.0 000303.ffffffff.0 00ff5e.ffffffff.0 00223c.ffffffff.0 000303.ffffffff.0
Width: 406
GlyphClass: 1
Flags: W
LayerCount: 2
Fore
SplineSet
52 246 m 0,0,1
 48 288 48 288 71 333 c 0,2,3
 83 358 83 358 102 370 c 0,4,5
 127 388 127 388 157 379 c 0,6,7
 174 374 174 374 190 356 c 0,8,9
 197 346 197 346 207 330 c 0,10,11
 208 329 208 329 208 328 c 0,12,13
 219 308 219 308 227 304 c 0,14,15
 249 291 249 291 274 311 c 0,16,17
 303 335 303 335 303 370 c 0,18,19
 303 381 303 381 311 389.5 c 128,-1,20
 319 398 319 398 330 398 c 0,21,22
 342 398 342 398 350 389.5 c 128,-1,23
 358 381 358 381 358 370 c 0,24,25
 358 311 358 311 310 269 c 0,26,27
 285 248 285 248 256 244.5 c 128,-1,28
 227 241 227 241 199 256 c 0,29,30
 187 263 187 263 175 278 c 0,31,32
 166 292 166 292 161 301 c 0,33,34
 160 301 160 301 160 301.5 c 128,-1,35
 160 302 160 302 160 302 c 1,36,37
 147 325 147 325 141 327 c 0,38,39
 136 328 136 328 133 325 c 0,40,41
 125 319 125 319 120 308 c 0,42,43
 104 276 104 276 107 253 c 0,44,45
 108 241 108 241 101 232 c 128,-1,46
 94 223 94 223 82 222 c 0,47,48
 71 221 71 221 62.5 228 c 128,-1,49
 54 235 54 235 52 246 c 0,0,1
EndSplineSet
EndChar

StartChar: exclamdown
Encoding: 161 161 98
Width: 244
GlyphClass: 1
Flags: W
LayerCount: 2
Fore
SplineSet
175 545 m 0,0,1
 190 545 190 545 201 537 c 0,2,3
 219 525 219 525 227 502 c 0,4,5
 235 481 235 481 232 460 c 0,6,7
 227 426 227 426 198 413 c 0,8,9
 184 406 184 406 168 406 c 0,10,11
 146 406 146 406 133 421 c 0,12,13
 121 431 121 431 118 448 c 0,14,15
 115 458 115 458 117 470 c 0,16,17
 119 505 119 505 135 529 c 0,18,19
 149 550 149 550 175 545 c 0,0,1
199 271 m 0,20,21
 199 270 199 270 197 246 c 2,22,-1
 197 232 l 1,23,24
 191 97 191 97 191 39 c 0,25,26
 191 -62 191 -62 203 -146 c 0,27,28
 205 -162 205 -162 196 -175 c 128,-1,29
 187 -188 187 -188 170 -191 c 0,30,31
 154 -193 154 -193 141 -183.5 c 128,-1,32
 128 -174 128 -174 126 -158 c 0,33,34
 113 -71 113 -71 113 38 c 0,35,36
 113 99 113 99 119 235 c 0,37,38
 119 243 119 243 120 250 c 0,39,40
 120 268 120 268 121 275 c 0,41,42
 122 291 122 291 134 302 c 128,-1,43
 146 313 146 313 162 312 c 128,-1,44
 178 311 178 311 189 299 c 128,-1,45
 200 287 200 287 199 271 c 0,20,21
EndSplineSet
EndChar

StartChar: cent
Encoding: 162 162 99
AltUni2: 00ffe0.ffffffff.0 00ffe0.ffffffff.0
Width: 365
GlyphClass: 1
Flags: W
LayerCount: 2
Fore
SplineSet
161 275 m 1,0,1
 136 254 136 254 122 227 c 0,2,3
 99 187 99 187 107 149 c 0,4,5
 115 109 115 109 154 86 c 0,6,7
 165 80 165 80 177 77 c 1,8,9
 170 132 170 132 165 191 c 0,10,11
 163 219 163 219 161 275 c 1,0,1
294 314 m 0,12,13
 268 318 268 318 239 313 c 1,14,15
 239 250 239 250 243 197 c 0,16,17
 247 138 247 138 255 76 c 1,18,19
 287 78 287 78 297 77 c 0,20,21
 306 77 306 77 322 75 c 0,22,23
 338 72 338 72 347.5 59 c 128,-1,24
 357 46 357 46 354 30 c 0,25,26
 352 14 352 14 339 4.5 c 128,-1,27
 326 -5 326 -5 310 -2 c 0,28,29
 308 -2 308 -2 302.5 -1.5 c 128,-1,30
 297 -1 297 -1 294 -1 c 2,31,-1
 266 -1 l 1,32,33
 277 -72 277 -72 285 -111 c 0,34,35
 289 -127 289 -127 280 -140.5 c 128,-1,36
 271 -154 271 -154 255 -157 c 128,-1,37
 239 -160 239 -160 225.5 -151 c 128,-1,38
 212 -142 212 -142 209 -126 c 0,39,40
 200 -83 200 -83 187 -4 c 1,41,-1
 186 -4 l 1,42,43
 145 1 145 1 114 19 c 0,44,45
 44 62 44 62 30 134 c 0,46,47
 18 200 18 200 53 265 c 0,48,49
 87 328 87 328 152 363 c 0,50,51
 158 367 158 367 161 368 c 0,52,53
 164 447 164 447 178 514 c 0,54,55
 181 530 181 530 194.5 538.5 c 128,-1,56
 208 547 208 547 224 543 c 0,57,58
 240 540 240 540 249 526.5 c 128,-1,59
 258 513 258 513 254 497 c 0,60,61
 244 453 244 453 241 392 c 1,62,63
 271 395 271 395 303 392 c 0,64,65
 320 390 320 390 329.5 377 c 128,-1,66
 339 364 339 364 337 348 c 0,67,68
 336 332 336 332 323 322 c 128,-1,69
 310 312 310 312 294 314 c 0,12,13
EndSplineSet
EndChar

StartChar: sterling
Encoding: 163 163 100
AltUni2: 00ffe1.ffffffff.0 00ffe1.ffffffff.0
Width: 438
GlyphClass: 1
Flags: W
LayerCount: 2
Fore
SplineSet
242 529 m 0,0,1
 239 552 239 552 231.5 565.5 c 128,-1,2
 224 579 224 579 202 601 c 0,3,4
 196 607 196 607 194 608 c 0,5,6
 193 609 193 609 192 609 c 0,7,8
 180 601 180 601 167 570 c 0,9,10
 155 543 155 543 143 499 c 0,11,12
 139 479 139 479 137 471 c 0,13,14
 135 459 135 459 135 458 c 0,15,16
 130 410 130 410 136 357 c 0,17,18
 137 344 137 344 141 323 c 1,19,-1
 145 323 l 2,20,21
 209 323 209 323 247 324 c 0,22,23
 263 324 263 324 274.5 313 c 128,-1,24
 286 302 286 302 286 286 c 0,25,26
 287 269 287 269 275.5 257.5 c 128,-1,27
 264 246 264 246 248 246 c 0,28,29
 213 245 213 245 157 245 c 1,30,31
 172 186 172 186 174 178 c 0,32,33
 174 176 174 176 178 161.5 c 128,-1,34
 182 147 182 147 183 144 c 0,35,36
 190 121 190 121 192 109 c 0,37,38
 194 103 194 103 194 101 c 1,39,40
 226 111 226 111 270 102 c 0,41,42
 317 91 317 91 359 63 c 0,43,44
 406 30 406 30 424 -10 c 0,45,46
 431 -25 431 -25 425 -40 c 128,-1,47
 419 -55 419 -55 405 -62 c 0,48,49
 390 -69 390 -69 375 -63 c 128,-1,50
 360 -57 360 -57 353 -42 c 0,51,52
 344 -21 344 -21 314.5 -1.5 c 128,-1,53
 285 18 285 18 253 26 c 0,54,55
 226 32 226 32 216 26 c 1,56,-1
 215 26 l 1,57,-1
 215 25 l 1,58,-1
 215 22 l 1,59,-1
 215 11 l 2,60,61
 218 -5 218 -5 208.5 -18 c 128,-1,62
 199 -31 199 -31 183 -33 c 0,63,64
 167 -36 167 -36 154 -26.5 c 128,-1,65
 141 -17 141 -17 138 -1 c 0,66,67
 138 2 138 2 137.5 6.5 c 128,-1,68
 137 11 137 11 137 13 c 0,69,70
 133 19 133 19 131 27 c 0,71,72
 128 48 128 48 117 90 c 0,73,74
 111 110 111 110 108 123 c 0,75,76
 101 146 101 146 99 158 c 0,77,78
 85 209 85 209 78 241 c 1,79,-1
 63 238 l 2,80,81
 47 234 47 234 33.5 242.5 c 128,-1,82
 20 251 20 251 16 267 c 128,-1,83
 12 283 12 283 20.5 296.5 c 128,-1,84
 29 310 29 310 45 313 c 0,85,86
 53 315 53 315 63 317 c 1,87,88
 61 329 61 329 59 349 c 0,89,90
 51 412 51 412 57 467 c 0,91,92
 60 489 60 489 68 518 c 0,93,94
 79 564 79 564 95 601 c 0,95,96
 121 657 121 657 152 676 c 0,97,98
 206 708 206 708 258 656 c 0,99,100
 289 624 289 624 302 599.5 c 128,-1,101
 315 575 315 575 319 538 c 0,102,103
 321 522 321 522 311 509.5 c 128,-1,104
 301 497 301 497 285 495 c 128,-1,105
 269 493 269 493 256.5 503 c 128,-1,106
 244 513 244 513 242 529 c 0,0,1
EndSplineSet
EndChar

StartChar: currency
Encoding: 164 164 101
Width: 481
GlyphClass: 1
Flags: W
LayerCount: 2
Fore
SplineSet
245 372 m 128,-1,1
 223 375 223 375 206 355 c 0,2,3
 184 333 184 333 178 297 c 0,4,5
 172 263 172 263 185 242 c 0,6,7
 195 221 195 221 229 220 c 0,8,9
 278 219 278 219 304 246 c 0,10,11
 327 273 327 273 329 312 c 0,12,13
 329 353 329 353 312 373 c 0,14,15
 300 389 300 389 281 386 c 1,16,0
 267 369 267 369 245 372 c 128,-1,1
136 497 m 0,17,18
 138 493 138 493 143 481.5 c 128,-1,19
 148 470 148 470 151 464 c 128,-1,20
 154 458 154 458 154 456 c 2,21,-1
 155 454 l 1,22,-1
 156 453 l 1,23,-1
 156 452 l 1,24,25
 167 441 167 441 170 437 c 0,26,27
 174 433 174 433 175 431 c 1,28,29
 206 451 206 451 240 450 c 1,30,31
 248 458 248 458 259 461 c 0,32,33
 299 471 299 471 334 454 c 1,34,35
 350 474 350 474 359 484 c 0,36,37
 378 503 378 503 406 527 c 0,38,39
 419 538 419 538 435 537 c 128,-1,40
 451 536 451 536 461 523 c 0,41,42
 471 511 471 511 470 495 c 128,-1,43
 469 479 469 479 457 468 c 0,44,45
 412 431 412 431 389 397 c 1,46,47
 409 358 409 358 407 310 c 0,48,49
 404 251 404 251 373 208 c 1,50,-1
 374 206 l 2,51,52
 379 197 379 197 380 195 c 0,53,54
 384 189 384 189 385 187 c 0,55,56
 393 177 393 177 397 172 c 0,57,58
 398 171 398 171 400.5 169 c 128,-1,59
 403 167 403 167 404 166 c 0,60,61
 417 156 417 156 419.5 140 c 128,-1,62
 422 124 422 124 411 111 c 0,63,64
 401 98 401 98 385.5 96 c 128,-1,65
 370 94 370 94 357 104 c 0,66,67
 356 105 356 105 350.5 109 c 128,-1,68
 345 113 345 113 343 115 c 0,69,70
 335 123 335 123 319 145 c 0,71,72
 318 146 318 146 316.5 150 c 128,-1,73
 315 154 315 154 313 156 c 0,74,75
 312 157 312 157 312 158 c 1,76,77
 275 140 275 140 226 142 c 0,78,79
 197 144 197 144 176 152 c 1,80,81
 154 121 154 121 144 91 c 0,82,83
 139 76 139 76 124.5 69 c 128,-1,84
 110 62 110 62 95 67 c 128,-1,85
 80 72 80 72 72.5 86 c 128,-1,86
 65 100 65 100 70 116 c 0,87,88
 85 161 85 161 117 203 c 1,89,90
 90 250 90 250 101 311 c 0,91,92
 107 345 107 345 124 376 c 1,93,94
 118 379 118 379 113 384 c 0,95,96
 102 395 102 395 98 401 c 0,97,98
 90 409 90 409 86 417 c 0,99,100
 86 419 86 419 85 421.5 c 128,-1,101
 84 424 84 424 83 425 c 2,102,-1
 79 433 l 2,103,104
 71 451 71 451 65 463 c 0,105,106
 58 477 58 477 63.5 492 c 128,-1,107
 69 507 69 507 83 515 c 0,108,109
 98 522 98 522 113 516.5 c 128,-1,110
 128 511 128 511 136 497 c 0,17,18
EndSplineSet
EndChar

StartChar: yen
Encoding: 165 165 102
AltUni2: 00ffe5.ffffffff.0 00ffe5.ffffffff.0
Width: 413
GlyphClass: 1
Flags: W
LayerCount: 2
Fore
SplineSet
161 110 m 0,0,1
 185 112 185 112 195 113 c 0,2,3
 197 114 197 114 200 114 c 0,4,5
 201 119 201 119 201.5 129 c 128,-1,6
 202 139 202 139 202 144 c 1,7,8
 189 142 189 142 167 140 c 0,9,10
 151 139 151 139 138.5 149 c 128,-1,11
 126 159 126 159 125 175 c 128,-1,12
 124 191 124 191 134 203.5 c 128,-1,13
 144 216 144 216 160 217 c 0,14,15
 190 221 190 221 207 225 c 1,16,17
 208 250 208 250 208 267 c 0,18,19
 208 271 208 271 209 273 c 0,20,21
 209 274 209 274 208.5 275.5 c 128,-1,22
 208 277 208 277 207 278 c 0,23,24
 183 309 183 309 141 372 c 0,25,26
 138 375 138 375 138 376 c 0,27,28
 107 422 107 422 91 444 c 0,29,30
 67 477 67 477 40 502 c 0,31,32
 29 513 29 513 28.5 529.5 c 128,-1,33
 28 546 28 546 39 557 c 0,34,35
 50 569 50 569 66.5 569.5 c 128,-1,36
 83 570 83 570 94 559 c 0,37,38
 125 530 125 530 153 491 c 0,39,40
 175 462 175 462 203 419 c 0,41,42
 205 416 205 416 206 415 c 0,43,44
 223 388 223 388 240 365 c 1,45,46
 246 377 246 377 274 426 c 0,47,48
 276 428 276 428 277 431 c 0,49,50
 314 493 314 493 328 523 c 0,51,52
 334 537 334 537 349 543 c 128,-1,53
 364 549 364 549 379 542 c 128,-1,54
 394 535 394 535 399.5 520 c 128,-1,55
 405 505 405 505 399 491 c 0,56,57
 378 446 378 446 344 391 c 0,58,59
 343 388 343 388 341 386 c 0,60,61
 306 328 306 328 291 293 c 1,62,63
 296 277 296 277 286 263 c 1,64,-1
 286 249 l 1,65,66
 326 261 326 261 327 261 c 0,67,68
 343 265 343 265 356.5 257 c 128,-1,69
 370 249 370 249 375 233 c 0,70,71
 379 217 379 217 371 203.5 c 128,-1,72
 363 190 363 190 347 186 c 0,73,74
 339 184 339 184 294 170 c 0,75,76
 292 169 292 169 290 168.5 c 128,-1,77
 288 168 288 168 286.5 167.5 c 128,-1,78
 285 167 285 167 284 166.5 c 128,-1,79
 283 166 283 166 282 166 c 2,80,-1
 281 166 l 1,81,82
 281 161 281 161 280.5 152.5 c 128,-1,83
 280 144 280 144 280 143 c 0,84,85
 280 140 280 140 279.5 134 c 128,-1,86
 279 128 279 128 279 126 c 1,87,88
 295 129 295 129 308 135 c 0,89,90
 323 141 323 141 337.5 134.5 c 128,-1,91
 352 128 352 128 358 113 c 128,-1,92
 364 98 364 98 357.5 83 c 128,-1,93
 351 68 351 68 336 62 c 0,94,95
 314 54 314 54 275 45 c 1,96,97
 274 3 274 3 275 -27 c 0,98,99
 275 -48 275 -48 277 -68 c 0,100,101
 279 -78 279 -78 279 -81 c 0,102,103
 280 -82 280 -82 280 -84 c 0,104,105
 288 -98 288 -98 283 -114 c 128,-1,106
 278 -130 278 -130 264 -137 c 128,-1,107
 250 -144 250 -144 234.5 -139 c 128,-1,108
 219 -134 219 -134 211 -120 c 0,109,110
 199 -96 199 -96 197 -29 c 0,111,112
 196 -1 196 -1 197 35 c 1,113,114
 185 34 185 34 171 32 c 0,115,116
 155 31 155 31 142 40.5 c 128,-1,117
 129 50 129 50 127 66 c 0,118,119
 126 82 126 82 135.5 95 c 128,-1,120
 145 108 145 108 161 110 c 0,0,1
EndSplineSet
EndChar

StartChar: brokenbar
Encoding: 166 166 103
AltUni2: 00ffe4.ffffffff.0 00ffe4.ffffffff.0
Width: 193
GlyphClass: 1
Flags: W
LayerCount: 2
Fore
SplineSet
155 780 m 0,0,1
 154 705 154 705 161 586 c 0,2,3
 162 576 162 576 162 566 c 0,4,5
 168 468 168 468 168 417 c 0,6,7
 168 401 168 401 156.5 389.5 c 128,-1,8
 145 378 145 378 129 378 c 0,9,10
 112 378 112 378 101 389 c 128,-1,11
 90 400 90 400 90 417 c 0,12,13
 90 466 90 466 84 562 c 0,14,15
 84 572 84 572 83 582 c 0,16,17
 76 704 76 704 77 782 c 0,18,19
 78 798 78 798 89.5 809.5 c 128,-1,20
 101 821 101 821 117 820 c 0,21,22
 133 820 133 820 144 808.5 c 128,-1,23
 155 797 155 797 155 780 c 0,0,1
166 237 m 0,24,25
 163 194 163 194 166 143 c 0,26,27
 167 120 167 120 173 48 c 0,28,29
 173 45 173 45 173.5 41 c 128,-1,30
 174 37 174 37 174.5 34.5 c 128,-1,31
 175 32 175 32 175 30 c 0,32,33
 182 -48 182 -48 182 -100 c 0,34,35
 182 -116 182 -116 170.5 -127.5 c 128,-1,36
 159 -139 159 -139 143 -139 c 128,-1,37
 127 -139 127 -139 115.5 -127.5 c 128,-1,38
 104 -116 104 -116 104 -100 c 0,39,40
 104 -53 104 -53 97 23 c 0,41,42
 97 25 97 25 96.5 30.5 c 128,-1,43
 96 36 96 36 96 40 c 0,44,45
 89 107 89 107 88 139 c 0,46,47
 85 194 85 194 88 242 c 0,48,49
 89 258 89 258 101.5 269 c 128,-1,50
 114 280 114 280 130 278 c 0,51,52
 146 277 146 277 157 265 c 128,-1,53
 168 253 168 253 166 237 c 0,24,25
EndSplineSet
EndChar

StartChar: section
Encoding: 167 167 104
Width: 360
GlyphClass: 1
Flags: W
LayerCount: 2
Fore
SplineSet
311 235 m 0,0,1
 330 219 330 219 329 165 c 1,2,3
 332 322 332 322 210 379 c 0,4,5
 210 380 210 380 193 387 c 0,6,7
 187 390 187 390 172 396 c 0,8,9
 140 410 140 410 136 415 c 0,10,11
 129 423 129 423 128 422 c 0,12,13
 127 422 127 422 127 423 c 0,14,15
 126 425 126 425 129 428 c 0,16,17
 132 429 132 429 168 458 c 0,18,19
 194 480 194 480 200 478 c 0,20,21
 201 478 201 478 217 477 c 0,22,23
 247 475 247 475 262 475 c 0,24,25
 274 475 274 475 283 484 c 0,26,27
 291 493 291 493 291 505 c 256,28,29
 291 517 291 517 283 525 c 0,30,31
 274 534 274 534 262 534 c 0,32,33
 249 534 249 534 220 536 c 0,34,35
 202 537 202 537 194 536 c 0,36,37
 177 533 177 533 167 527 c 0,38,39
 156 521 156 521 154 519 c 0,40,41
 153 518 153 518 146 513 c 0,42,43
 138 509 138 509 137 508 c 0,44,45
 87 468 87 468 83 463 c 0,46,47
 60 437 60 437 70 406 c 0,48,49
 76 389 76 389 100 368 c 0,50,51
 111 358 111 358 147 343 c 0,52,53
 209 316 209 316 237 306 c 0,54,55
 269 295 269 295 292 252 c 0,56,57
 293 251 293 251 311 235 c 0,0,1
123 356 m 0,58,59
 131 349 131 349 127 343 c 0,60,61
 126 342 126 342 128 342 c 1,62,63
 128 320 128 320 136 315 c 0,64,65
 149 306 149 306 172 296 c 0,66,67
 187 290 187 290 193 287 c 2,68,-1
 210 279 l 1,69,70
 292 253 292 253 292 252 c 0,71,72
 338 218 338 218 328 163 c 0,73,74
 318 105 318 105 264 71 c 0,75,76
 222 43 222 43 166 37 c 0,77,78
 118 32 118 32 76 50 c 0,79,80
 55 59 55 59 45 80 c 0,81,82
 34 103 34 103 47 129 c 0,83,84
 52 140 52 140 64 143 c 0,85,86
 75 147 75 147 86 142 c 0,87,88
 96 136 96 136 100 125 c 128,-1,89
 104 114 104 114 100 104 c 1,90,-1
 101 103 l 2,91,92
 101 102 101 102 102 102 c 0,93,94
 121 92 121 92 161 96 c 0,95,96
 200 100 200 100 232 119 c 0,97,98
 264 139 264 139 271 174 c 0,99,100
 275 196 275 196 254 208 c 0,101,102
 208 237 208 237 187 246 c 0,103,104
 178 249 178 249 147 263 c 0,105,106
 116 278 116 278 102 287 c 0,107,108
 75 307 75 307 70 326 c 0,109,110
 63 355 63 355 81 386 c 1,111,112
 102 368 102 368 102 367 c 0,113,114
 122 356 122 356 123 356 c 0,58,59
127 346 m 1024,115,116
EndSplineSet
EndChar

StartChar: copyright
Encoding: 169 169 106
Width: 647
GlyphClass: 1
Flags: W
LayerCount: 2
Fore
SplineSet
397 670 m 1,0,1
 410 673 410 673 421 669 c 0,2,3
 499 640 499 640 551 587 c 0,4,5
 600 537 600 537 612 489 c 0,6,7
 661 290 661 290 610 172 c 0,8,9
 564 63 564 63 447 36 c 0,10,11
 350 14 350 14 245 56.5 c 128,-1,12
 140 99 140 99 96 176 c 0,13,14
 61 239 61 239 75 343 c 0,15,16
 88 436 88 436 134 521 c 0,17,18
 184 614 184 614 251 656 c 0,19,20
 324 700 324 700 397 670 c 1,0,1
379 592 m 0,21,22
 337 617 337 617 291 589 c 0,23,24
 242 559 242 559 202 485 c 0,25,26
 163 412 163 412 152 333 c 128,-1,27
 141 254 141 254 164 214 c 0,28,29
 195 160 195 160 273 129 c 0,30,31
 354 96 354 96 429 112 c 0,32,33
 507 130 507 130 539 202 c 0,34,35
 580 298 580 298 536 470 c 0,36,37
 529 499 529 499 496 532 c 0,38,39
 465 565 465 565 413 589 c 1,40,41
 394 582 394 582 379 592 c 0,21,22
411 438 m 0,42,43
 342 429 342 429 315 400 c 0,44,45
 295 380 295 380 300 351 c 0,46,47
 307 320 307 320 340 297 c 0,48,49
 380 269 380 269 442 269 c 0,50,51
 458 269 458 269 469.5 257.5 c 128,-1,52
 481 246 481 246 481 230 c 128,-1,53
 481 214 481 214 469.5 202.5 c 128,-1,54
 458 191 458 191 442 191 c 0,55,56
 357 191 357 191 296 233 c 0,57,58
 236 274 236 274 224 336 c 0,59,60
 210 403 210 403 259 454 c 0,61,62
 308 504 308 504 402 515 c 0,63,64
 418 516 418 516 431 506.5 c 128,-1,65
 444 497 444 497 446 481 c 0,66,67
 448 464 448 464 437.5 451.5 c 128,-1,68
 427 439 427 439 411 438 c 0,42,43
EndSplineSet
EndChar

StartChar: guillemotleft
Encoding: 171 171 107
AltUni2: 00fe3d.ffffffff.0 00300a.ffffffff.0 00226a.ffffffff.0 00fe3d.ffffffff.0 00300a.ffffffff.0 00226a.ffffffff.0
Width: 428
GlyphClass: 1
Flags: W
LayerCount: 2
Fore
SplineSet
208 371 m 0,0,1
 139 305 139 305 139 279 c 0,2,3
 137 268 137 268 150 253 c 0,4,5
 168 230 168 230 207 201 c 0,6,7
 220 191 220 191 222.5 175.5 c 128,-1,8
 225 160 225 160 215 146 c 0,9,10
 205 133 205 133 189 131 c 128,-1,11
 173 129 173 129 160 139 c 0,12,13
 113 173 113 173 88 206 c 0,14,15
 59 242 59 242 61 283 c 0,16,17
 62 319 62 319 90 357 c 0,18,19
 112 388 112 388 154 427 c 0,20,21
 165 438 165 438 181.5 438 c 128,-1,22
 198 438 198 438 209 426 c 0,23,24
 220 415 220 415 219.5 398.5 c 128,-1,25
 219 382 219 382 208 371 c 0,0,1
392 356 m 0,26,27
 369 332 369 332 336 307 c 0,28,29
 328 301 328 301 316 293 c 2,30,-1
 314 291 l 1,31,32
 323 277 323 277 353 239 c 0,33,34
 359 233 359 233 366 222 c 2,35,-1
 369 218 l 2,36,37
 379 204 379 204 381 202 c 0,38,39
 382 200 382 200 384 200 c 0,40,41
 400 197 400 197 409.5 184 c 128,-1,42
 419 171 419 171 417 155 c 128,-1,43
 415 139 415 139 402 129.5 c 128,-1,44
 389 120 389 120 373 122 c 0,45,46
 347 126 347 126 327 145 c 0,47,48
 318 154 318 154 304 174 c 0,49,50
 304 176 304 176 301 179 c 0,51,52
 297 184 297 184 293 190 c 0,53,54
 251 240 251 240 240 264 c 0,55,56
 220 307 220 307 251 340 c 0,57,58
 258 347 258 347 270 356 c 0,59,60
 282 364 282 364 290 370 c 0,61,62
 315 388 315 388 336 410 c 0,63,64
 347 422 347 422 363.5 422 c 128,-1,65
 380 422 380 422 391 411 c 0,66,67
 403 400 403 400 403 384 c 128,-1,68
 403 368 403 368 392 356 c 0,26,27
EndSplineSet
EndChar

StartChar: glyph108
Encoding: 172 172 108
AltUni2: 00ffe2.ffffffff.0 00ffe2.ffffffff.0
Width: 465
GlyphClass: 1
Flags: W
LayerCount: 2
Fore
SplineSet
45 302 m 0,0,1
 27 302 27 302 16 313 c 0,2,3
 3 326 3 326 3 343 c 128,-1,4
 3 360 3 360 15 371 c 0,5,6
 27 384 27 384 44 384 c 2,7,8
 44 384 44 384 45 384 c 0,9,10
 53 385 53 385 130 394 c 0,11,12
 221 404 221 404 270 404 c 128,-1,13
 319 404 319 404 352 399 c 0,14,15
 400 390 400 390 424 366 c 0,16,17
 441 349 441 349 445 325 c 0,18,19
 447 314 447 314 447 303 c 0,20,21
 447 288 447 288 446 279.5 c 128,-1,22
 445 271 445 271 442.5 256.5 c 128,-1,23
 440 242 440 242 437 226 c 128,-1,24
 434 210 434 210 434 194 c 0,25,26
 434 176 434 176 421 164.5 c 128,-1,27
 408 153 408 153 391 153 c 0,28,29
 373 153 373 153 360.5 165 c 128,-1,30
 348 177 348 177 348 193 c 0,31,32
 348 221 348 221 356 257 c 0,33,34
 356 258 356 258 357 265 c 0,35,36
 361 287 361 287 361 296.5 c 128,-1,37
 361 306 361 306 361 310 c 1,38,39
 360 310 360 310 360 310 c 1,40,41
 354 314 354 314 334 318 c 0,42,43
 310 322 310 322 281 322 c 0,44,45
 224 322 224 322 140 312 c 0,46,47
 126 310 126 310 106 308 c 0,48,49
 58 302 58 302 52.5 302 c 128,-1,50
 47 302 47 302 45 302 c 0,0,1
EndSplineSet
EndChar

StartChar: registered
Encoding: 174 174 110
Width: 827
GlyphClass: 1
Flags: W
LayerCount: 2
Fore
SplineSet
347 -38 m 1,0,1
 343 -53 343 -53 329.5 -61 c 128,-1,2
 316 -69 316 -69 301 -66 c 0,3,4
 126 -29 126 -29 49 132 c 0,5,6
 -17 274 -17 274 17 446 c 0,7,8
 52 619 52 619 165 723 c 0,9,10
 294 841 294 841 470 808 c 0,11,12
 645 775 645 775 744 611 c 0,13,14
 833 462 833 462 813 289 c 0,15,16
 792 104 792 104 657 14 c 0,17,18
 532 -69 532 -69 347 -38 c 1,0,1
331 469 m 0,19,20
 327 446 327 446 329 407 c 1,21,22
 345 419 345 419 386 437 c 0,23,24
 386 438 386 438 390 439.5 c 128,-1,25
 394 441 394 441 395 441 c 0,26,27
 437 459 437 459 445 467 c 0,28,29
 452 473 452 473 451 480 c 0,30,31
 447 498 447 498 433 506 c 0,32,33
 417 516 417 516 390 514 c 0,34,35
 356 512 356 512 325 494 c 1,36,37
 333 483 333 483 331 469 c 0,19,20
225 505 m 0,38,39
 252 544 252 544 295.5 567 c 128,-1,40
 339 590 339 590 387 592 c 0,41,42
 436 595 436 595 473 572 c 0,43,44
 516 547 516 547 527 496 c 0,45,46
 539 444 539 444 495 407 c 0,47,48
 480 395 480 395 460 385 c 0,49,50
 459 384 459 384 426 369 c 0,51,52
 424 369 424 369 416 365 c 0,53,54
 415 365 415 365 414 364 c 1,55,56
 430 362 430 362 438 358 c 0,57,58
 468 345 468 345 496 313 c 0,59,60
 509 298 509 298 534 261 c 1,61,-1
 537 258 l 1,62,63
 558 227 558 227 568 216 c 0,64,65
 579 203 579 203 578 187 c 128,-1,66
 577 171 577 171 565 161 c 0,67,68
 553 150 553 150 537 151 c 128,-1,69
 521 152 521 152 510 164 c 0,70,71
 495 180 495 180 472 214 c 1,72,-1
 471 216 l 1,73,-1
 470 218 l 1,74,75
 454 241 454 241 438 261 c 0,76,77
 419 280 419 280 406 287 c 1,78,-1
 403 287 l 2,79,80
 401 287 401 287 398 287.5 c 128,-1,81
 395 288 395 288 390.5 288.5 c 128,-1,82
 386 289 386 289 382 289 c 2,83,-1
 378 290 l 2,84,85
 374 290 374 290 373 290 c 0,86,87
 357 291 357 291 342 293 c 1,88,89
 348 238 348 238 348 203 c 0,90,91
 348 187 348 187 336.5 175.5 c 128,-1,92
 325 164 325 164 309 164 c 128,-1,93
 293 164 293 164 281.5 175.5 c 128,-1,94
 270 187 270 187 270 203 c 0,95,96
 270 238 270 238 263 294 c 0,97,98
 263 296 263 296 262.5 298.5 c 128,-1,99
 262 301 262 301 261.5 305 c 128,-1,100
 261 309 261 309 261 312 c 0,101,102
 253 363 253 363 252 393 c 0,103,104
 249 417 249 417 251 444 c 1,105,106
 242 446 242 446 235 451 c 0,107,108
 222 460 222 460 219 476 c 128,-1,109
 216 492 216 492 225 505 c 0,38,39
283 56 m 0,110,111
 491 -3 491 -3 614 79 c 0,112,113
 719 149 719 149 736 298 c 0,114,115
 752 445 752 445 677 571 c 0,116,117
 595 705 595 705 456 732 c 0,118,119
 318 757 318 757 218 665 c 0,120,121
 122 579 122 579 94 431 c 0,122,123
 64 282 64 282 120 166 c 0,124,125
 159 81 159 81 239 39 c 1,126,127
 254 64 254 64 283 56 c 0,110,111
EndSplineSet
EndChar

StartChar: degree
Encoding: 176 176 111
AltUni2: 0025e6.ffffffff.0 002218.ffffffff.0 00030a.ffffffff.0 0025e6.ffffffff.0 002218.ffffffff.0 00030a.ffffffff.0
Width: 312
GlyphClass: 1
Flags: W
LayerCount: 2
Fore
SplineSet
170 395 m 1024,0,-1
139 645 m 1,1,-1
 145 649 l 1,2,3
 189 668 189 668 225 640 c 0,4,5
 253 620 253 620 266 576 c 0,6,7
 278 537 278 537 274 498 c 0,8,9
 268 452 268 452 240 429 c 0,10,11
 195 392 195 392 138 402 c 0,12,13
 86 411 86 411 55 451 c 0,14,15
 20 496 20 496 35 548 c 0,16,17
 50 602 50 602 121 642 c 0,18,19
 128 646 128 646 139 645 c 1,1,-1
147 594 m 0,20,21
 97 566 97 566 88 533 c 0,22,23
 80 507 80 507 98 485 c 0,24,25
 116 461 116 461 147 455 c 0,26,27
 179 450 179 450 205 471 c 0,28,29
 217 481 217 481 219.5 506.5 c 128,-1,30
 222 532 222 532 213.5 559.5 c 128,-1,31
 205 587 205 587 191 597 c 0,32,33
 181 606 181 606 168 599 c 0,34,35
 161 596 161 596 151 597 c 1,36,37
 151 597 151 597 149.5 595.5 c 128,-1,38
 148 594 148 594 147 594 c 0,20,21
EndSplineSet
EndChar

StartChar: plusminus
Encoding: 177 177 112
Width: 453
GlyphClass: 1
Flags: W
LayerCount: 2
Fore
SplineSet
285 550 m 0,0,1
 281 487 281 487 281 436 c 1,2,3
 338 435 338 435 407 428 c 0,4,5
 423 427 423 427 433.5 414.5 c 128,-1,6
 444 402 444 402 442 385 c 0,7,8
 440 369 440 369 427.5 359 c 128,-1,9
 415 349 415 349 399 351 c 0,10,11
 325 357 325 357 284 358 c 1,12,13
 290 282 290 282 307 237 c 0,14,15
 313 222 313 222 306.5 207 c 128,-1,16
 300 192 300 192 284 187 c 0,17,18
 269 181 269 181 254.5 187.5 c 128,-1,19
 240 194 240 194 234 210 c 0,20,21
 212 270 212 270 206 358 c 0,22,23
 202 358 202 358 168 357 c 128,-1,24
 134 356 134 356 114 355 c 0,25,26
 97 355 97 355 85.5 366 c 128,-1,27
 74 377 74 377 73 393 c 0,28,29
 73 409 73 409 84 420.5 c 128,-1,30
 95 432 95 432 111 433 c 0,31,32
 131 434 131 434 165 435 c 128,-1,33
 199 436 199 436 203 436 c 1,34,35
 203 459 203 459 207 553 c 0,36,37
 208 570 208 570 220 580.5 c 128,-1,38
 232 591 232 591 248 590 c 128,-1,39
 264 589 264 589 275 577.5 c 128,-1,40
 286 566 286 566 285 550 c 0,0,1
140 78 m 0,41,42
 195 97 195 97 264 92 c 0,43,44
 292 89 292 89 342 81 c 0,45,46
 347 80 347 80 357 78.5 c 128,-1,47
 367 77 367 77 372 76 c 0,48,49
 388 74 388 74 397.5 61 c 128,-1,50
 407 48 407 48 405 32 c 128,-1,51
 403 16 403 16 390 6.5 c 128,-1,52
 377 -3 377 -3 361 -1 c 0,53,54
 358 -1 358 -1 330 4 c 0,55,56
 281 12 281 12 257 14 c 0,57,58
 208 18 208 18 164 4 c 0,59,60
 149 -1 149 -1 134.5 6.5 c 128,-1,61
 120 14 120 14 115 29 c 0,62,63
 110 45 110 45 117.5 59 c 128,-1,64
 125 73 125 73 140 78 c 0,41,42
EndSplineSet
EndChar

StartChar: acute
Encoding: 180 180 113
AltUni2: 001ffd.ffffffff.0 000341.ffffffff.0 000301.ffffffff.0 001ffd.ffffffff.0 000341.ffffffff.0 000301.ffffffff.0
Width: 279
GlyphClass: 1
Flags: W
LayerCount: 2
Fore
SplineSet
52 539 m 0,0,1
 71 576 71 576 105 614 c 0,2,3
 126 639 126 639 167 676 c 0,4,5
 169 678 169 678 175 683 c 128,-1,6
 181 688 181 688 187 694 c 0,7,8
 196 702 196 702 207 701 c 128,-1,9
 218 700 218 700 226 691.5 c 128,-1,10
 234 683 234 683 233 671.5 c 128,-1,11
 232 660 232 660 224 653 c 0,12,13
 217 648 217 648 211.5 643 c 128,-1,14
 206 638 206 638 204 636 c 0,15,16
 164 599 164 599 145 578 c 0,17,18
 118 546 118 546 101 513 c 0,19,20
 96 504 96 504 84.5 500.5 c 128,-1,21
 73 497 73 497 63 502 c 0,22,23
 54 507 54 507 50.5 518 c 128,-1,24
 47 529 47 529 52 539 c 0,0,1
EndSplineSet
EndChar

StartChar: uni00B5
Encoding: 181 181 114
Width: 475
GlyphClass: 1
Flags: W
LayerCount: 2
Fore
SplineSet
460 397 m 0,0,1
 419 313 419 313 416 214 c 0,2,3
 413 144 413 144 430 14 c 0,4,5
 432 -2 432 -2 422.5 -15 c 128,-1,6
 413 -28 413 -28 397 -30 c 128,-1,7
 381 -32 381 -32 368 -22 c 128,-1,8
 355 -12 355 -12 353 4 c 0,9,10
 343 79 343 79 342 98 c 1,11,12
 317 46 317 46 289 6 c 0,13,14
 253 -43 253 -43 207 -37 c 0,15,16
 170 -33 170 -33 140 5 c 0,17,18
 139 6 139 6 139 7 c 1,19,20
 129 -113 129 -113 128 -126 c 0,21,22
 121 -229 121 -229 120 -237 c 0,23,24
 118 -253 118 -253 106 -263 c 128,-1,25
 94 -273 94 -273 78 -272 c 0,26,27
 61 -270 61 -270 51 -258 c 128,-1,28
 41 -246 41 -246 42 -230 c 0,29,30
 44 -215 44 -215 46.5 -181.5 c 128,-1,31
 49 -148 49 -148 51 -120 c 0,32,33
 59 -8 59 -8 62 19 c 0,34,35
 66 73 66 73 78 160 c 0,36,37
 96 278 96 278 127 380 c 2,38,-1
 130 389 l 2,39,40
 132 393 132 393 134 401 c 0,41,42
 136 406 136 406 140.5 419 c 128,-1,43
 145 432 145 432 148 439 c 0,44,45
 154 454 154 454 168.5 461 c 128,-1,46
 183 468 183 468 199 462 c 128,-1,47
 215 456 215 456 221 440 c 0,48,49
 233 419 233 419 220 400 c 0,50,51
 211 381 211 381 209 377 c 128,-1,52
 207 373 207 373 202 358 c 0,53,54
 201 355 201 355 198.5 343 c 128,-1,55
 196 331 196 331 194 323 c 0,56,57
 183 280 183 280 182 276 c 0,58,59
 170 233 170 233 165 206 c 0,60,61
 160 174 160 174 163 142 c 0,62,63
 171 92 171 92 201 53 c 0,64,65
 208 45 208 45 213 42 c 0,66,67
 213 41 213 41 215 41 c 0,68,69
 218 42 218 42 225 52 c 0,70,71
 257 96 257 96 283 159 c 0,72,73
 299 195 299 195 325 278 c 0,74,75
 326 283 326 283 327 284 c 0,76,77
 343 336 343 336 355 369 c 0,78,79
 371 414 371 414 391 454 c 0,80,81
 398 468 398 468 413.5 473.5 c 128,-1,82
 429 479 429 479 443 472 c 0,83,84
 456 465 456 465 461.5 452 c 128,-1,85
 467 439 467 439 463 425 c 1,86,87
 468 411 468 411 460 397 c 0,0,1
EndSplineSet
EndChar

StartChar: paragraph
Encoding: 182 182 115
Width: 512
GlyphClass: 1
Flags: W
LayerCount: 2
Fore
SplineSet
222 603 m 1,0,1
 208 598 208 598 196 593 c 0,2,3
 120 562 120 562 102 504 c 0,4,5
 86 456 86 456 121 419 c 0,6,7
 152 386 152 386 209 380 c 1,8,9
 208 411 208 411 208 466 c 0,10,11
 211 550 211 550 222 603 c 1,0,1
361 698 m 0,12,13
 365 700 365 700 375 700 c 0,14,15
 381 700 381 700 387 698 c 0,16,17
 441 694 441 694 468 690 c 0,18,19
 484 688 484 688 494 675 c 128,-1,20
 504 662 504 662 502 646 c 128,-1,21
 500 630 500 630 487 620.5 c 128,-1,22
 474 611 474 611 458 613 c 0,23,24
 423 617 423 617 410 618 c 1,25,26
 394 206 394 206 443 -158 c 0,27,28
 445 -174 445 -174 435.5 -187 c 128,-1,29
 426 -200 426 -200 409 -202 c 0,30,31
 393 -204 393 -204 380 -194.5 c 128,-1,32
 367 -185 367 -185 366 -169 c 0,33,34
 316 200 316 200 332 620 c 1,35,36
 323 620 323 620 307 618 c 1,37,38
 289 562 289 562 286 464 c 0,39,40
 286 391 286 391 288 347 c 2,41,-1
 288 343 l 2,42,43
 290 340 290 340 288 337 c 0,44,45
 289 322 289 322 296 222 c 0,46,47
 297 203 297 203 305 120 c 0,48,49
 313 27 313 27 318 -30 c 0,50,51
 323 -118 323 -118 323 -160 c 0,52,53
 323 -176 323 -176 311.5 -187.5 c 128,-1,54
 300 -199 300 -199 284 -199 c 128,-1,55
 268 -199 268 -199 256.5 -187.5 c 128,-1,56
 245 -176 245 -176 245 -160 c 0,57,58
 245 -100 245 -100 240 -36 c 0,59,60
 236 11 236 11 227 113 c 0,61,62
 225 134 225 134 222.5 167 c 128,-1,63
 220 200 220 200 218 216 c 0,64,65
 215 266 215 266 212 302 c 1,66,67
 119 308 119 308 65 365 c 0,68,69
 34 398 34 398 23.5 441 c 128,-1,70
 13 484 13 484 27 527 c 0,71,72
 55 620 55 620 167 666 c 0,73,74
 248 699 248 699 361 698 c 0,12,13
EndSplineSet
EndChar

StartChar: periodcentered
Encoding: 183 183 116
AltUni2: 0022c5.ffffffff.0 002219.ffffffff.0 0006d4.ffffffff.0 000387.ffffffff.0 0022c5.ffffffff.0 002219.ffffffff.0 0006d4.ffffffff.0 000387.ffffffff.0
Width: 264
GlyphClass: 1
Flags: W
LayerCount: 2
Fore
SplineSet
125 402 m 1,0,-1
 130 407 l 2,1,2
 136 411 136 411 139 412 c 0,3,4
 143 413 143 413 144 413 c 0,5,6
 146 414 146 414 147 414 c 2,7,-1
 148 414 l 1,8,-1
 150 414 l 2,9,10
 151 415 151 415 154 415 c 0,11,12
 163 415 163 415 167 416 c 0,13,14
 187 416 187 416 205 413 c 0,15,16
 220 410 220 410 229 403 c 0,17,18
 249 392 249 392 253 371 c 0,19,20
 257 352 257 352 246 331 c 0,21,22
 241 322 241 322 224 305 c 0,23,24
 214 295 214 295 205 290 c 0,25,26
 190 280 190 280 176 277 c 0,27,28
 143 272 143 272 120 285 c 0,29,30
 94 302 94 302 91 332 c 0,31,32
 86 373 86 373 125 402 c 1,0,-1
EndSplineSet
EndChar

StartChar: cedilla
Encoding: 184 184 117
AltUni2: 000327.ffffffff.0 000327.ffffffff.0
Width: 272
GlyphClass: 1
Flags: W
LayerCount: 2
Fore
SplineSet
183 -114 m 1,0,1
 178 -114 178 -114 171 -117 c 0,2,3
 165 -117 165 -117 162 -120 c 0,4,5
 154 -122 154 -122 151 -122 c 0,6,7
 146 -124 146 -124 134 -124 c 0,8,9
 112 -122 112 -122 101 -105 c 0,10,11
 92 -90 92 -90 95 -72 c 0,12,13
 96 -65 96 -65 101 -55 c 0,14,15
 106 -44 106 -44 120 -19 c 0,16,17
 122 -16 122 -16 125.5 -11.5 c 128,-1,18
 129 -7 129 -7 132.5 -2 c 128,-1,19
 136 3 136 3 141 9 c 2,20,-1
 149 21 l 2,21,22
 159 34 159 34 175 36.5 c 128,-1,23
 191 39 191 39 204 29 c 128,-1,24
 217 19 217 19 219.5 3.5 c 128,-1,25
 222 -12 222 -12 212 -26 c 0,26,27
 212 -27 212 -27 209.5 -30 c 128,-1,28
 207 -33 207 -33 205 -36 c 1,29,30
 216 -38 216 -38 226 -42 c 0,31,32
 240 -47 240 -47 248 -60 c 0,33,34
 253 -66 253 -66 256 -76 c 0,35,36
 261 -89 261 -89 261 -100 c 0,37,38
 265 -156 265 -156 224 -220 c 0,39,40
 211 -239 211 -239 182 -259 c 0,41,42
 166 -269 166 -269 152 -272 c 0,43,44
 128 -276 128 -276 112.5 -259 c 128,-1,45
 97 -242 97 -242 103 -219 c 0,46,47
 107 -205 107 -205 119 -196.5 c 128,-1,48
 131 -188 131 -188 145 -190 c 1,49,50
 156 -181 156 -181 158 -177 c 0,51,52
 181 -143 181 -143 183 -114 c 1,0,1
EndSplineSet
EndChar

StartChar: guillemotright
Encoding: 187 187 118
AltUni2: 00fe3e.ffffffff.0 00300b.ffffffff.0 00226b.ffffffff.0 00fe3e.ffffffff.0 00300b.ffffffff.0 00226b.ffffffff.0
Width: 470
GlyphClass: 1
Flags: W
LayerCount: 2
Fore
SplineSet
146 417 m 0,0,1
 148 416 148 416 150.5 414 c 128,-1,2
 153 412 153 412 157.5 408 c 128,-1,3
 162 404 162 404 166 401 c 0,4,5
 167 400 167 400 169.5 398.5 c 128,-1,6
 172 397 172 397 173 396 c 0,7,8
 179 391 179 391 181 390 c 0,9,10
 190 384 190 384 196 378 c 0,11,12
 202 374 202 374 211 366.5 c 128,-1,13
 220 359 220 359 223 357 c 0,14,15
 258 327 258 327 268 304 c 0,16,17
 274 290 274 290 269 275 c 0,18,19
 268 273 268 273 265 266 c 0,20,21
 261 260 261 260 258 257 c 0,22,23
 255 252 255 252 244 241 c 0,24,25
 216 213 216 213 204 202 c 1,26,-1
 204 201 l 1,27,28
 195 192 195 192 184.5 182 c 128,-1,29
 174 172 174 172 171 169 c 0,30,31
 167 164 167 164 160 157 c 0,32,33
 159 155 159 155 157 153 c 2,34,-1
 156 152 l 2,35,36
 147 138 147 138 131.5 135 c 128,-1,37
 116 132 116 132 102 141 c 128,-1,38
 88 150 88 150 85 165.5 c 128,-1,39
 82 181 82 181 91 195 c 0,40,41
 102 210 102 210 149 257 c 1,42,-1
 150 257 l 1,43,-1
 182 289 l 1,44,45
 176 295 176 295 173 297 c 0,46,47
 169 301 169 301 149 316 c 0,48,49
 147 318 147 318 141.5 322 c 128,-1,50
 136 326 136 326 134 328 c 2,51,-1
 127 333 l 2,52,53
 121 337 121 337 119 339 c 0,54,55
 99 354 99 354 94 359 c 0,56,57
 82 370 82 370 81 386 c 128,-1,58
 80 402 80 402 91 414 c 0,59,60
 101 426 101 426 117.5 427 c 128,-1,61
 134 428 134 428 146 417 c 0,0,1
340 424 m 0,62,63
 360 400 360 400 393 375 c 0,64,65
 394 374 394 374 404.5 366 c 128,-1,66
 415 358 415 358 417 356 c 0,67,68
 429 347 429 347 439 336 c 0,69,70
 460 313 460 313 459 284 c 0,71,72
 458 260 458 260 437 231 c 0,73,74
 398 182 398 182 337 130 c 0,75,76
 325 120 325 120 309 121 c 128,-1,77
 293 122 293 122 282 134 c 0,78,79
 271 147 271 147 272.5 163 c 128,-1,80
 274 179 274 179 287 189 c 0,81,82
 345 240 345 240 374 278 c 0,83,84
 376 280 376 280 377.5 282.5 c 128,-1,85
 379 285 379 285 380 286 c 1,86,87
 378 287 378 287 374 290 c 0,88,89
 371 293 371 293 369 295 c 2,90,-1
 345 313 l 2,91,92
 310 340 310 340 281 373 c 0,93,94
 271 385 271 385 272 401 c 128,-1,95
 273 417 273 417 285 428 c 0,96,97
 297 438 297 438 313 437 c 128,-1,98
 329 436 329 436 340 424 c 0,62,63
EndSplineSet
EndChar

StartChar: onequarter
Encoding: 188 188 119
Width: 370
GlyphClass: 1
Flags: W
LayerCount: 2
Fore
SplineSet
299 92 m 0,0,1
 298 84 298 84 298 65 c 2,2,-1
 298 63 l 1,3,4
 313 64 313 64 325.5 54 c 128,-1,5
 338 44 338 44 339 28 c 0,6,7
 341 12 341 12 331 -0.5 c 128,-1,8
 321 -13 321 -13 305 -15 c 2,9,-1
 295 -17 l 1,10,11
 292 -64 292 -64 286 -107 c 0,12,13
 283 -124 283 -124 270 -133 c 128,-1,14
 257 -142 257 -142 241 -140 c 128,-1,15
 225 -138 225 -138 215.5 -125 c 128,-1,16
 206 -112 206 -112 208 -96 c 0,17,18
 214 -56 214 -56 215 -34 c 1,19,20
 197 -38 197 -38 174 -36 c 0,21,22
 142 -33 142 -33 119 -17 c 0,23,24
 103 -6 103 -6 96 16 c 0,25,26
 93 31 93 31 94 46 c 0,27,28
 96 72 96 72 104 101 c 0,29,30
 107 113 107 113 113 129 c 0,31,32
 115 134 115 134 118.5 146 c 128,-1,33
 122 158 122 158 125 166.5 c 128,-1,34
 128 175 128 175 128 176 c 0,35,36
 133 191 133 191 147 198.5 c 128,-1,37
 161 206 161 206 177 202 c 128,-1,38
 193 198 193 198 200.5 184 c 128,-1,39
 208 170 208 170 203 154 c 0,40,41
 203 152 203 152 196 131.5 c 128,-1,42
 189 111 189 111 187 105 c 0,43,44
 180 84 180 84 179 80 c 0,45,46
 172 54 172 54 172 43 c 1,47,48
 187 40 187 40 212 44 c 0,49,50
 213 44 213 44 215.5 44.5 c 128,-1,51
 218 45 218 45 219 45 c 1,52,53
 219 48 219 48 219.5 55.5 c 128,-1,54
 220 63 220 63 220 67 c 0,55,56
 220 87 220 87 221 94 c 0,57,58
 221 110 221 110 232.5 121.5 c 128,-1,59
 244 133 244 133 261 132 c 0,60,61
 277 131 277 131 288 119.5 c 128,-1,62
 299 108 299 108 299 92 c 0,0,1
60 333 m 0,63,64
 145 331 145 331 203 332 c 2,65,-1
 241 332 l 1,66,-1
 321 332 l 2,67,68
 337 332 337 332 348.5 320.5 c 128,-1,69
 360 309 360 309 360 293 c 128,-1,70
 360 277 360 277 348.5 265.5 c 128,-1,71
 337 254 337 254 321 254 c 2,72,-1
 241 254 l 1,73,-1
 204 254 l 2,74,75
 145 253 145 253 58 255 c 0,76,77
 42 255 42 255 30.5 266.5 c 128,-1,78
 19 278 19 278 20 294 c 0,79,80
 20 310 20 310 31.5 321.5 c 128,-1,81
 43 333 43 333 60 333 c 0,63,64
205 616 m 0,82,83
 205 583 205 583 203 549 c 0,84,85
 203 531 203 531 202 524 c 0,86,87
 200 455 200 455 205 424 c 0,88,89
 207 407 207 407 196.5 394.5 c 128,-1,90
 186 382 186 382 170 381 c 0,91,92
 154 379 154 379 141.5 389 c 128,-1,93
 129 399 129 399 127 415 c 0,94,95
 122 452 122 452 124 526 c 0,96,97
 125 533 125 533 125 552 c 0,98,99
 127 585 127 585 127 616 c 0,100,101
 127 632 127 632 138.5 643.5 c 128,-1,102
 150 655 150 655 166 655 c 128,-1,103
 182 655 182 655 193.5 643.5 c 128,-1,104
 205 632 205 632 205 616 c 0,82,83
EndSplineSet
EndChar

StartChar: onehalf
Encoding: 189 189 120
Width: 431
GlyphClass: 1
Flags: W
LayerCount: 2
Fore
SplineSet
200 66 m 2,0,1
 198 65 198 65 197 64 c 0,2,3
 196 64 196 64 194.5 62 c 128,-1,4
 193 60 193 60 192 60 c 0,5,6
 179 50 179 50 163.5 52 c 128,-1,7
 148 54 148 54 138 67 c 0,8,9
 132 77 132 77 133.5 89 c 128,-1,10
 135 101 135 101 140 112 c 2,11,-1
 144 122 l 2,12,13
 146 123 146 123 149 126 c 2,14,-1
 152 128 l 1,15,-1
 153 129 l 2,16,17
 154 130 154 130 155 130 c 0,18,19
 187 154 187 154 201 162 c 0,20,21
 229 179 229 179 262 185 c 0,22,23
 300 190 300 190 322 166 c 0,24,25
 339 146 339 146 339 117 c 0,26,27
 339 86 339 86 324 50 c 0,28,29
 314 30 314 30 290 -15 c 0,30,31
 289 -17 289 -17 287 -20.5 c 128,-1,32
 285 -24 285 -24 284 -26 c 2,33,-1
 284 -27 l 1,34,-1
 283 -28 l 1,35,36
 295 -26 295 -26 300 -26 c 0,37,38
 346 -22 346 -22 395 -39 c 0,39,40
 410 -45 410 -45 417 -59.5 c 128,-1,41
 424 -74 424 -74 418 -89 c 0,42,43
 413 -105 413 -105 398.5 -111.5 c 128,-1,44
 384 -118 384 -118 368 -113 c 0,45,46
 338 -101 338 -101 308 -103 c 0,47,48
 285 -106 285 -106 239 -121 c 0,49,50
 218 -128 218 -128 201 -115.5 c 128,-1,51
 184 -103 184 -103 182 -82 c 0,52,53
 182 -68 182 -68 188 -50 c 0,54,55
 195 -29 195 -29 214 9 c 2,56,-1
 220 21 l 2,57,58
 252 81 252 81 253 82 c 0,59,60
 258 98 258 98 259 104 c 1,61,62
 251 101 251 101 240 95 c 0,63,64
 226 87 226 87 203 69 c 2,65,-1
 200 66 l 2,0,1
286 669 m 0,66,67
 275 617 275 617 267 548 c 0,68,69
 262 505 262 505 262 482 c 0,70,71
 262 465 262 465 263 460 c 2,72,-1
 263 455 l 1,73,74
 270 441 270 441 265 425.5 c 128,-1,75
 260 410 260 410 247 403 c 0,76,77
 233 395 233 395 217 400 c 128,-1,78
 201 405 201 405 194 419 c 0,79,80
 183 442 183 442 184 483 c 0,81,82
 184 514 184 514 190 558 c 0,83,84
 197 615 197 615 210 684 c 0,85,86
 214 700 214 700 227 709 c 128,-1,87
 240 718 240 718 256 715 c 0,88,89
 272 711 272 711 281 698 c 128,-1,90
 290 685 290 685 286 669 c 0,66,67
84 262 m 0,91,92
 113 286 113 286 167 300 c 0,93,94
 204 310 204 310 283 321 c 0,95,96
 301 323 301 323 368 331 c 0,97,98
 384 333 384 333 397 323 c 128,-1,99
 410 313 410 313 412 297 c 128,-1,100
 414 281 414 281 404 268 c 128,-1,101
 394 255 394 255 378 254 c 0,102,103
 322 247 322 247 294 243 c 0,104,105
 163 227 163 227 133 202 c 0,106,107
 121 192 121 192 105 193.5 c 128,-1,108
 89 195 89 195 79 208 c 0,109,110
 68 220 68 220 69.5 236 c 128,-1,111
 71 252 71 252 84 262 c 0,91,92
EndSplineSet
EndChar

StartChar: threequarters
Encoding: 190 190 121
Width: 373
GlyphClass: 1
Flags: W
LayerCount: 2
Fore
SplineSet
73 651 m 0,0,1
 78 679 78 679 97 699 c 128,-1,2
 116 719 116 719 143 727 c 0,3,4
 200 743 200 743 245 700 c 0,5,6
 277 668 277 668 264 626 c 0,7,8
 259 611 259 611 251 599 c 0,9,10
 249 596 249 596 244 590 c 128,-1,11
 239 584 239 584 236 580 c 0,12,13
 232 576 232 576 231 574 c 1,14,15
 233 574 233 574 235 572 c 2,16,-1
 238 571 l 1,17,-1
 239 570 l 2,18,19
 240 570 240 570 241 570 c 0,20,21
 267 560 267 560 284 545 c 0,22,23
 308 521 308 521 311 483 c 0,24,25
 314 432 314 432 269 403 c 0,26,27
 239 383 239 383 193 378 c 0,28,29
 154 373 154 373 122 383 c 0,30,31
 100 390 100 390 89 401 c 0,32,33
 65 425 65 425 77 455 c 0,34,35
 83 470 83 470 98 476.5 c 128,-1,36
 113 483 113 483 128 477 c 0,37,38
 142 471 142 471 149 456 c 1,39,40
 171 454 171 454 185 456 c 0,41,42
 210 457 210 457 226 468 c 0,43,44
 233 473 233 473 233 478 c 0,45,46
 233 486 233 486 230 489 c 0,47,48
 222 494 222 494 213 497 c 0,49,50
 212 498 212 498 210 498 c 2,51,-1
 208 499 l 2,52,53
 185 509 185 509 178 514 c 0,54,55
 157 528 157 528 148 551 c 0,56,57
 143 564 143 564 146 583 c 0,58,59
 148 590 148 590 156 604 c 2,60,-1
 166 619 l 2,61,62
 169 622 169 622 171 625 c 0,63,64
 172 626 172 626 174 628 c 2,65,-1
 176 631 l 2,66,67
 182 637 182 637 186 643 c 0,68,69
 188 645 188 645 188 646 c 0,70,71
 177 655 177 655 164 652 c 128,-1,72
 151 649 151 649 149 637 c 0,73,74
 147 621 147 621 133.5 612 c 128,-1,75
 120 603 120 603 104 605 c 0,76,77
 88 608 88 608 79 621.5 c 128,-1,78
 70 635 70 635 73 651 c 0,0,1
40 314 m 0,79,80
 188 368 188 368 328 351 c 0,81,82
 344 349 344 349 354 336 c 128,-1,83
 364 323 364 323 362 307 c 128,-1,84
 360 291 360 291 347 281.5 c 128,-1,85
 334 272 334 272 318 273 c 0,86,87
 199 289 199 289 67 240 c 0,88,89
 52 235 52 235 37.5 241.5 c 128,-1,90
 23 248 23 248 17 263 c 0,91,92
 12 279 12 279 18.5 293.5 c 128,-1,93
 25 308 25 308 40 314 c 0,79,80
172 44 m 0,94,95
 178 45 178 45 180 46 c 0,96,97
 183 46 183 46 191 48 c 1,98,99
 192 60 192 60 194 76.5 c 128,-1,100
 196 93 196 93 197 101 c 0,101,102
 199 117 199 117 211 127 c 128,-1,103
 223 137 223 137 239 136 c 128,-1,104
 255 135 255 135 266 122.5 c 128,-1,105
 277 110 277 110 275 94 c 0,106,107
 273 80 273 80 270 53 c 1,108,109
 288 45 288 45 291 24 c 0,110,111
 293 9 293 9 284 -3.5 c 128,-1,112
 275 -16 275 -16 261 -19 c 1,113,114
 261 -26 261 -26 260 -29 c 0,115,116
 254 -113 254 -113 271 -158 c 0,117,118
 277 -174 277 -174 270 -188.5 c 128,-1,119
 263 -203 263 -203 248 -209 c 0,120,121
 233 -214 233 -214 218.5 -207.5 c 128,-1,122
 204 -201 204 -201 198 -186 c 0,123,124
 174 -125 174 -125 182 -34 c 1,125,-1
 181 -34 l 2,126,127
 176 -35 176 -35 166.5 -36.5 c 128,-1,128
 157 -38 157 -38 153 -39 c 0,129,130
 136 -40 136 -40 123 -39 c 0,131,132
 100 -34 100 -34 88 -19 c 0,133,134
 76 -5 76 -5 74 17 c 0,135,136
 72 35 72 35 75 52 c 0,137,138
 81 86 81 86 98 150 c 0,139,140
 102 166 102 166 116.5 174 c 128,-1,141
 131 182 131 182 146 177 c 0,142,143
 155 175 155 175 162 163 c 128,-1,144
 169 151 169 151 172 140 c 2,145,-1
 174 129 l 1,146,147
 155 64 155 64 153 41 c 2,148,149
 153 41 153 41 153 40 c 1,150,151
 155 41 155 41 158 42 c 0,152,153
 163 42 163 42 165 42 c 0,154,155
 166 43 166 43 168.5 43.5 c 128,-1,156
 171 44 171 44 172 44 c 0,94,95
EndSplineSet
EndChar

StartChar: multiply
Encoding: 215 215 143
Width: 522
GlyphClass: 1
Flags: W
LayerCount: 2
Fore
SplineSet
141 72 m 0,0,1
 148 88 148 88 166 120 c 0,2,3
 195 167 195 167 240 222 c 1,4,5
 183 291 183 291 135 363 c 0,6,7
 126 377 126 377 129 392.5 c 128,-1,8
 132 408 132 408 146 417 c 128,-1,9
 160 426 160 426 175.5 423 c 128,-1,10
 191 420 191 420 200 406 c 0,11,12
 241 343 241 343 293 280 c 1,13,14
 321 310 321 310 361 349 c 2,15,-1
 419 403 l 2,16,17
 430 414 430 414 446.5 413.5 c 128,-1,18
 463 413 463 413 474 402 c 0,19,20
 485 390 485 390 484.5 373.5 c 128,-1,21
 484 357 484 357 472 346 c 0,22,23
 431 308 431 308 415 292 c 0,24,25
 376 256 376 256 345 222 c 1,26,27
 411 153 411 153 493 99 c 0,28,29
 507 91 507 91 510.5 75.5 c 128,-1,30
 514 60 514 60 505 46 c 128,-1,31
 496 32 496 32 480 28.5 c 128,-1,32
 464 25 464 25 451 34 c 0,33,34
 368 86 368 86 293 163 c 1,35,36
 255 117 255 117 233 80 c 0,37,38
 221 61 221 61 213 41 c 0,39,40
 206 26 206 26 191 20 c 128,-1,41
 176 14 176 14 161 21 c 0,42,43
 146 27 146 27 140.5 42.5 c 128,-1,44
 135 58 135 58 141 72 c 0,0,1
EndSplineSet
EndChar

